<mxfile host="app.diagrams.net" agent="Mozilla/5.0 (Windows NT 10.0; Win64; x64) AppleWebKit/537.36 (KHTML, like Gecko) Chrome/131.0.0.0 Safari/537.36" version="26.0.5">
  <diagram name="Page-1" id="yG_QjR_HYvHJw6ncfSt6">
    <mxGraphModel dx="1024" dy="527" grid="1" gridSize="10" guides="1" tooltips="1" connect="1" arrows="1" fold="1" page="1" pageScale="1" pageWidth="827" pageHeight="1169" math="0" shadow="0">
      <root>
        <mxCell id="0" />
        <mxCell id="1" parent="0" />
        <mxCell id="219CYF1WuWqsUgkXM-5G-83" value="" style="shape=callout;whiteSpace=wrap;html=1;perimeter=calloutPerimeter;position2=0;size=10;position=0.16;fillColor=#dae8fc;strokeColor=#6c8ebf;flipV=0;flipH=1;fontFamily=Comic Sans MS;base=28;dashed=1;" vertex="1" parent="1">
          <mxGeometry x="430.5" y="262" width="140" height="40" as="geometry" />
        </mxCell>
        <UserObject label="" tags="Background" id="219CYF1WuWqsUgkXM-5G-8">
          <mxCell style="vsdxID=1;fillColor=none;gradientColor=none;image;aspect=fixed;image=data:image/png,iVBORw0KGgoAAAANSUhEUgAAAJYAAACWCAYAAAA8AXHiAAAAAXNSR0IArs4c6QAAEPhJREFUeF7tnc2PHUcRwGu86w0iH1Jiy4YEFBth4pO1UhxhFJvYBy7JIZyRwLFyQxwCEgoXlKw4QISEckBIHKI48A+QQ3Lh4A1rhKXY0sri4BCEN0IJGNmJhBNE7N0M1Lzp93pqqrur502/15NX75J4X0+/nupfV1VXd1cXoB+VQAIJFAnq1CpVAqBgKQRJJKBgJRGrVqpgKQNJJKBgJRGrVqpgKQNJJKBgJRGrVqpgKQNJJKBgJRGrVqpgKQNJJKBgJRGrVqpgKQNJJKBgJRGrVqpgKQNJJKBgJRGrVqpgKQNJJKBgJRGrVqpgORg4unr8pASPZVjeurC5viUpu0hlFCymt4+tnjywDTtXJSAsw9JBBastKQWLoWekrYpzErAKgDNvbm6clZRdpDIKFtPbj6yeeKoEeFkCgoLFS0nBYjXW158HKJ+bfFWeahabaLMS4OylzY0zEggXqYyCxfT2w6snXi4AnsKvSoCtS5sbB+1iD6+euFoAHKj/tn5xc4OAt0gIqcYS9/bR1RPoX5lZYQsc+3sOPPEPfYoLLoTGGs3yto2GgYub59d9fdrUSMXaxc0/PE801lij4d9DM0M7dLEo4YmFAOvoatNnuri54X3vo6snyglIbbCocx8Ga1LfovhkChZRXe0YVnmKajgKVmhmaIOqYGVs/7HzY4KSMRqLgsVpNxrnSg1W7Pvm0HWD01joOP9/1B/YDUunpHAhCAUUYx/LF9C0tZHPMY/RQlin6ewSyq2Qj2eD0eV9FaxICZDZGiae6CXqjRphB3ZOlgCnrdkgG2owTSYhB/zzOkDxBsAn63046DgYSihwklANCIQ8ZjBFirb34oPRWBSqiQaAs7thaU2qvcxzqEU+AXgMQbJiUg0B+/whV3usCtYByrUukFHTbb3rYOAaBFihTowZza5Oc4T5WqEGS2M1Qg6BIb++DEtnJPD3+a69q6GICrMHiwoaIRqZnbam8ZnG0PofaieU2y6AN5ZgaV0CwSQ+tuskQPkY+n4u7VebM6d2rScEuIxEtusUayWUp+16YwZSBAu9Fs0aLA6qAsoz6PxSH8SOOy3DrrMGjNrkPcd1OMIUA5JE8iNAdp2kMNjP4gCw4XVDPwp1cO+aO1zZguWDynQSaozbsHOOgWa9AHiFOuPT+mUSsJozumr7DaOFRs74LoA1ro34nRlApr6hwZUlWLw2akfA4/0ddx02EMbEYYiirMMUJZQPmjIFFO8UUG5h6AD/FgofGDMXMpV1/c5Fbd4/lL1T7KCYtnyWYOFLcUL0LZ1geY/58e5AmIQbMNZlb5eRidf4fWhWfTEyt/keI+ucLDh2tWa7syJbsEZwNXYZBGM5XOyHmpSmqarWEKuQgwyhcKkaMiigeIUuXk/MGjcI2ktHzba2ZUG384RbN7sSWYOFYmgHIv2qvx7Z1e5P1z6psOZod8Ade/ZWf/z4xnVx7xg/itNiVhu2QqEI3gT6QRQ3MlHB7MHiHfRufoUEKARoz7FH4Z5Dh2Flz14wQNnyN3DdunEd/v32Fbj59ltw8y9XnF3kAyzUr/z++27vH/qtPr/PHqwu/hYVkKXFWJN3/xNPVo888MQ3O8sWYbtZQ3b9T+dd9UT5REPzq+yXHgRYHFzSOI4nJAEI1N5jx1mt1Jmw2lxev3Ae3nvt1VY107R7SLtVBwMW529hgNO3Tug6xnX3Vw7DwW8/3TtQlCLUYu+9/ipQDTaKU7md+9FAajrro7rz9qsGqbGw0TH+Fufwor+EQCFYs/wgYG+9+ALj+PO+0pDiVS45DkpjOfwt5rADPb4FlXY68pOfi3lCU4ZOOX4QDHTU8YMOPX6wvr1ffdTp4HPaSwoXnQkPyQSa9x4UWNSZ5QTOmT/UUIefeTYI1buv/Q5uXPhjVEgBK8X67z70UNBfQ0B536upuTjNHNpXH3y5GRcYFFhtE9H0OTio0EEPzfYQKM7R7tIXkgkB/T1+bbCpdYe2Vz4bsMyyiulMGlRkpt4tE0hNSEhTSYAadTps1f81uzmr//q2yBz8ztOVBnN9OLjoDlH6PpzWmmbbc5eBI30mG7BCR6pCp5PpLCoE1ZUXX3AGNc12mlCyjzrgWm1n5iDb+7XjcP/jTzqDrFd/+1KjDdS0MyaxMZjagy2fwOkgwAoJkELpc9TRz6EdajmcnffQu/Z9+UIb3GyRblak5t/+PiQXqXZJUW4QYIWOtFOTgY46F1LAjrz84x8ycuxvpHO7LBD0h5551qm57DaFtJYdYFWwBEPCdQw+JDyqrdD8YKyKm+5zpse3+0HQbLYItybpgwvbZQdRpVqLyqzLwY2u7xh6LhuN5Wpo6LAp1VYYq+IWjhmfSnzAISRE7nsuZOCaMVJNymktO8PgEGaIAwBrsrRBBS7VVtwMbBZ7mVxwceGPkNaSzBC7DIBUz2QNVsgMUmE/8qt2Ej7er5rdmhsHF6dVQ1qrfeBidu/QBb6swfKZQQqdy7ei2qqv09Mxwqbv4QraUq1FF53tgZS7OcwaLDt2hWcJ7R2hdAR30QIxcExbVuIL4mZB9AUnn+ZsNZQQbto29vl81mD58lTRgChnBtuR9fmZDzoQOK3FmO3GYCIDLZjwrU9QYuvKDix7aaeZuZiuC06SmbnM4JvfneSczWGHgMQntGevockKQLFmH86N7fyU5ecClg1PnZgD39GZnAO/tPNU0dHPrcu1R39/QdCuHSIx321z6B5Qph3N9cziHcx4g9/NM641U7DiEnJMuo+OXFoP519RMxhKD9kVlpjn6O4LmTlsDggmfZK3CQY6TLHkOo4W8w7SskMAa70Ga2zXqK/B+Vc+kyIVTopyNhiuhXLbhKO5s4Ewidh8Oysc7Y46yDHtu+cCVgWPfXTdp8YlYOH6mzmmldPU3G67a7HcbjudDdsdPsnGXCUheRBh8xzjXySwus3S7Blhl1HPjcaReR19MC+DvWVm5BuNUk3GfMf9jmRQkOWnTkAwGWw61dNVc81VY3XdbmubE8mMkJoTR4c7b5vwxY9iY0sSB74PMy7ZGNkVGslzgwdLorEk0XbfNSYpweL8QzsC3zVMomB1uERSYgqbfko41DArsOiMNjTx8PlYPs2x0GBx8Rd02lFgvlSNNlgSBzgn590Gq8+2c7FBc9FUDeDi+Fi+EWdDR/NOSWZWxE/J5uo3yaAgKwaNtpuc9dLAsiVjBYsCFwqQhvyUURQ6jyt27fVP1y4HXxwrNkC6EGA1M+fhK1dJzzChWvA4lQ0GnVlxe9zxYOjV37xkybVbaEMyA5KWoX4PtxRF293epmxfIOX+ZZNlEEugxo+9EUP6Tq5yM50VSho72cddpbhu3HJqcn3SDnKN/FgHXtK+acpIHHe6J8seUFxaIzuNOLZNmkp8mveQPJsdWHajbbXPjNzxZZUuJ5juc5+nOaRQSBx3lIW9xtleaw3PdiUQpCiTO1j2FbrEiW0eQZeZw/l1BIXCdVLa77jH3buYAhhpnVmD5TsdTXcKuDqKrLvNxYmXaqsY/6pr4FQKxrTlsgYLX85lDrt21jw2x9Hdrq5BQE23bQZDB0umBaHv5wcFFg100gVdqdaSrB32JWhqAl2+FdVW9F1pPfP0FyWyyR4sn0ClWovPqJfe36Lm2pdTImSyycWbW7M4FykBaDDhBtrQds6r1o7KxvVuLq1lEp4187Sng4vbLevKKRGrrWapcbvClY3Gsq5Vq97FTqpPUxjZeaSkWgvr5PNh9X8ggUtM68uXFdJWvlPQ9W9VMsOLqUKpl7qCEvtcNmD5ZoDt08R+reXao2XgYtJBVreFTRtcdKUy8kFFHfa2b1XdIIYxO/MZr/nl7NAPAqx6dmjHtBpX2HIRaV+KSDwJgxFu5vqSToD57kR0mT+XBqVOuU9bKVgCPeozhfh4SGtx+Ud9msKdInuiGczl4SPTPNrOsw3bB/C6Ofx/132I+F0o9Xf7mFdVY3XxpWlBKNJegzVOWKGmUAAaVyQ05eam9qG87rxT37GBNVAmXZGrFj5RSTtzsp26COvK4QibVDLZmEJpg0lijNat7hxceOlSKHNyH4CFEtriO/KaqpmXAsu1JwDpZrBS2ceUGyJY5PZ4dqSjeRhfyGRu9ArBZTre3OiFlwb4rpHDSQLmd7/70GHR9SmOLM3BCxByX77hgBsUWJyTzu0J53JS4ctLcr5zQqI3U3AZA0OjmcvS7AKGu5mCpuoO/d68vx8UWNyNq64I9AjCT56iV/EiFCEfqM9O8c1AXRd18gNDTWGf/TKuq+sto658EaFZ27Qv4Uv7LYmcD/2ipkFoLP56OPlWY9f1cpKwQCxgfqDaIQVf/bEXrse2NWX57MFybce9tLkxSX4lkFBtXp4jR6LGT6IGM5ctSZ1xfNhcvBS6vhd9wdDdz3yIJe7CdYEoZlIke7CYdbepjjGFADNSR9DsK+RW7ttTfXXr/RvjmaLvHmir9zoBZfc+48x7LwCdCTmBH8kaLGoKQtPuSSQ6nAvKilqz90RP2zncjV68Rjp+soTitO+m2CE689mCxWRL8V5dS/0o6Ua48ZG0En4KBXxuKqBK+CcUxa+l6RttMx+6K7rr5GWq95ni4SzB4uNV7um2Y+YXZTJtc3Pv7iU4etdn4Nrtbbh2aweu3dpuiHj/yjLsX1mC/buX4fJH/63K1J/Y3yTB3mrri/OiKE6D5xrfyhas27Bzzs5a5xrR/KXc7SWS0OCzwTpy1x3wsy/tGz/yg79egyv/uVX9+/BnV+AXX94//u5Hf/sXXP7w405gcXfujCpy3RXdvoA8p7wUtoyzBAsbyPkVzM1XjaUbX6fkCJZpEzc4EBjb7+prAIXk0Nf32YLlg2sXwFozVbcRhzy2RQU4D41lt8FlzjFEsQ07rQGUq6Yy75Q1WC64KBTSGZhvNM4bLGybb8Ngs+35L+9kD5YAriiH2QVXDmBh29x+V23oPc59X2asj3oGAZYbrv5Gbi5gmU6lZyZHf+9u6vuAJaaOwYDVhqtfIecG1kh72bka+n3fGEi6lB0UWAYu3Hdu7w0PvbjxXUw5bqtNSrCwbquN6zHrnKNAcbkV874heczi+8GB1UUooet/sc6UYJFTzNmkrewiS+kzClYtKQVLioys3EKAVZvCKi0lfjhT5APrl+9+0JDm9x64d/xvSeQdHXHzAE3UK+um4ZVaCLAk3eIDy/e8BCzJ73/ayihYAlOoYMVjr2ApWPHUCJ5QsBQsASbxRRQsBSueGsETCpaCJcAkvoiCpWDFUyN4QsFSsASYxBdRsBSseGoETyhYCpYAk/giCpaCFU+N4AkFS8ESYBJfRMFSsOKpETyhYClYAkziiyhYClY8NYInFCwFS4BJfBEFq5YZPWn8+pEviqT5+OW/2+V6OYom+uHMCylYE43VSNDx8uHPAyb/8H0wWciZK/+wivR3HC1zboLNU7DGGqt5Zw0mBvn+F+7zwkV2j87l9tZgD8+pgIJlCZ5mzvvGvXfCt/bfw8JFoQolhZtT/87tZxUsS/Rchhs0h0fuvAP2rSzBvpVl+POHH8PvP/iI6bBhHShNTZyCRSSMZxBLKE/bublCneBLlhZ69tP6vYLF9GwoMUfzEdVU3OBQsDwqw6+9dAbo07YKlsAWjXKibh8wdxZe2Fyv7i7Uj1sCCpbSkUQCClYSsWqlCpYykEQCClYSsWqlCpYykEQCClYSsWqlCpYykEQCClYSsWqlCpYykEQCClYSsWqlCpYykEQCClYSsWqlCpYykEQCClYSsWqlCpYykEQCClYSsWqlCpYykEQCClYSsWql/wOGcWJaknA8VQAAAABJRU5ErkJggg==;strokeWidth=2;points=[];labelBackgroundColor=none;rounded=0;html=1;whiteSpace=wrap;" vertex="1" parent="1">
            <mxGeometry x="360" y="220" width="40" height="40" as="geometry" />
          </mxCell>
        </UserObject>
        <mxCell id="219CYF1WuWqsUgkXM-5G-27" value="" style="group" vertex="1" connectable="0" parent="1">
          <mxGeometry x="207" y="220" width="153" height="50" as="geometry" />
        </mxCell>
        <mxCell id="219CYF1WuWqsUgkXM-5G-13" value="&lt;div&gt;The Dalton Girls is&amp;nbsp;&lt;span style=&quot;background-color: transparent; color: light-dark(rgb(0, 0, 0), rgb(255, 255, 255));&quot;&gt;directed by Reginald Le Borg ...&lt;/span&gt;&lt;/div&gt;" style="rounded=1;whiteSpace=wrap;html=1;fillColor=#d5e8d4;strokeColor=#82b366;dashed=1;fontFamily=Comic Sans MS;" vertex="1" parent="219CYF1WuWqsUgkXM-5G-27">
          <mxGeometry x="12.784366576819409" width="140.21563342318058" height="40" as="geometry" />
        </mxCell>
        <UserObject label="" tags="Background" id="219CYF1WuWqsUgkXM-5G-10">
          <mxCell style="vsdxID=3;fillColor=none;gradientColor=none;image;aspect=fixed;image=data:image/png,iVBORw0KGgoAAAANSUhEUgAAAJYAAACWCAYAAAA8AXHiAAAAAXNSR0IArs4c6QAACiJJREFUeF7tnU1sFVUUx88MJCaaEAxgBDUWY/gIGyyEYEUtsjHGkhhdk1ZMu8GVkEhc0C4UE3ClGwhJK2s/EmqMG6RGeBhDH24IfYSEIloW0CAkElnwRs+jY14f8zrn3rlz7503/7uh0Dv3439+73/v3DnzCAgFCuSgQJBDm2gSChDAAgS5KACwcpEVjQIsMJCLAgArF1nRKMACA7koALBykRWNAiwwkIsCACsXWdEowAIDuSgAsHKRFY0CLDCQiwIAKxdZ0WhHg7Vu87be6P79AxQEvQUJ9TSPMyKaCIl+onp9Yuq3Xxr/VrTSkWCt27i1KwrDU0TUVbSAPDTeKJoIFi0amTp3eqJIc+k4sBpQBcFogVxKyst0EIYDRQGs48Ba090zGhD1S6NVtHoB0QjV62O+L5EdB9ba7p4rHbEELkz8dED05VS1MuzrB6OjwGps1ut13luVorB7+QoXwCo+gtNBvb7dt6WxVGCt79tBjy5b6jVKv5+t0o0ar+ZKxTu4SgXW6wf30qPLHleKmIvKd2dv0Q/7D6t27dW+C2Cphs9S/auVKk2Ofa3amzdwASzV0Fms//Nnx3SWRX71yvmmHmBZBEW1K80lsdGNa7gAlmq0LdfXdS3XcAEsy6Codsd3iAxXc3lq1crGX/+cuZ7aXEQ0dqlaGUitaLgCwDIsqOnm2i2Hx498TvtHPvEWLuNg8UNg0+KK2wvD3ohotF39lz94jx5bvrQQRw7Nc0haDg8Of0RbNr1Au4be9xIuI2Ct6+4ZjqLo1SJlFPB5FkO2fM1ztHzNalqxdrWYX9sVk44e3up7gxguLjv63vEOrkxgddKzOQZtfd9r9GxPt21uUvtLWg7ZrY4f/eL/a/cPf0zfjn+f2hYRTdeqldw/RdpgdRJUzdFgwDb1v+2Vg7XbZ01NnpkHkhQuGxt6bbA6PT2FnYsdzJdHQEn7rJPjX1F8hxgT5gtcWcCKJL5b5DoMVQyY63nw4x3eazUXvjPcsvnhpVsKV56HqFpgrevu6V/o7st1EEz3z1kR7F4uy8XxH+ni+Ml5Q+DNO2/ik4pruACWkBZ2r1f27na2NCYdlDbfGWaEa2CqWhkTSiGqlgtYR/ZtEHXuqtL1m/do8tJtGj9zQ2kILuHSAYsnJ3Qu4/lcuYA1eexFpYC5qjzzH2B9H87ft6SNxdW+S3Lk0G7swnMuo8cQpQaLA8GuNTx6OY2neb93AVe7Iwc+z4oL3yHGd4lbujc2fo7/LoHL5DFE6cHioAweukCTtTtKcHFlm5t63RSaBlwrn2wAJjhANfbuIsAionO1OzR06IIyWLbh+mbwwSOcnIuRJRFgzUVJ17VswpV0lpUHZAFR5rtEgDUXmaS9lkreEx+k8qOgPAsvh1cr5xsHpfxzjiWzawGsuei0u0NUyXuyAVcrTM2A/X3zrwZwd2fjP29p5cxzH1ldC2A1RSppOeTncVykeU8u4FrIuRg0PgO7eenKQ4+EFnS8KJqonT+7XdcVAVaTckdP/EFHTlybp2XzYxPJLTtf7BtczRPiZZQfDwmW0kzLIcBqUj3p7rD1scmuwT306+T51A+yz3DFe7XWZ4+tk8qyHAKsJjWT9lmtCXVcXfiYxGvn4nmkno1lWA4BVsvHlB/xMGDNJUvek8/OxXNc8PUygJW6MokrtNvAtybUqTiXzRN68UTnKial4zS1ob3PgmO1RIKfG7ZmPZjIe/IVrrTviKhVK1qMaF2UluhXlOyGpE932p1h0jWSPZePufQ8F4Cl6vGa9ZNO4PcM7aY9g+8u2KIULpfJgkkTAFiaoKheJjlyaNem5JyLnYu/p8uXArAsRaJdpkO8eecUFC5xrpNO3pNP+y2A5RgsSfd85iXJe/JpvwWwJJE1UEcnXVmnW1+WRIClEz3Na7LkZql0yV9S4vo7IwCWSsQy1mXX+q5yg87VbtP12Qen8K2n8Rm7aFzug2sBLBORNNBGDFicI8+vkXFRfZUsHopr1wJYBqDIswkGbmb2HlVrdxpOJ305g5dChstVAViulNfsl48tRkYvpy6hrpdDgKUZYJeXxXu11uTB1jG5XA4BlktCMvaddoTh8sAUYGUMruvLFzrCcLnPAliuycjYP8ASCNjJaTOC6WtVSUrHiRtyuYGHY2mF05+LAJYgFnAsgUgtVQCWQDOAJRAJYKmLBLDUNYNjCTQDWAKR4FjqIgEsdc3gWALN8gCLT6elD24FQ8y9yqrlj9CmtUvE/QAsgVSmweJv0+OHtkUrDNfwwPMiwACWILomwdL5clnBEK1VYbjGP03/j50AliAkJsFKevNYMARvqgCs5FA4fxO66I61ee0SkvyHCXAsgReYdCzetA8dvpCaECcYlpMqR/dtwB4rQXnnjsVjiu8IZ2b/cQKHbqd9PU8QL4WSAscSqGTSsQTddUQVgCUII8ASiISTd3WRAJa6ZnAsgWYASyASHEtdJIClrhkcS6AZwBKIBMdSFwlgqWsGxxJoZhoszmo4euJa4xX1IpU3e1bQ0M5nREMGWAKZTILFUPGrUUUtfS+taGQ4pBWAlaYQEZkECw+h3X6dUce+/sXfa8Cf5iIXydePw7EEETbpWGnfayAYjtMqgzufFu2zAJYgTCbB4u7izXuRskj54TM27+1h8SK7QcBy4avAsQQhNO1Ygi4LXwVgCUIIsAQi4eRdXSSApa4ZHEugGcASiATHUhcJYKlrBscSaAawBCLBsdRFAljqmsGxBJoBLIFIcCx1kQCWumZwLIFmAEsgEhxLXSSApa4ZHEugGcASiATHUhcJYKlrBscSaAawBCLBsdRFAljqmsGxBJoBLIFIcCx1kQCWumZwLIFmAEsgEhxLXSSApa7ZQo6l3pq9K2rVilb6utZFAEs9sABLoBnAEoiksBSqt2btiulatbJapzc4lo5qGtcU0bEiorFL1cqAxnQJYOmopnFNEcEKwnD71LnTExrTBVg6oulcUzSwAqKRqWplWGeufA0cS1c5xesKBNZ0EIYDuk4VywKwFAHRrZ4GVkCktZfRHU/idWE4nRUogGU0IumNpYClffeV3rObGnAsS7oDLIHQOMcSiKR2jgXHYr0AFsBKUwBLYZpChn6PpVAgJBxLIBKWQnWRAJa6ZnAsgWYASyASHEtdpDSw1Fss/RW4K2zcFW7e1hvV66dKj4M5AQBWA6yNW7uiMLxiTtdyt5QlPcVX5fSOGwCW0XhmzSQwOhhDjWmBNXdIOhwRHTA0jlI3o5tX7rNo+mCxawXBKAVBr88T9H1sWZLpfJ6bNljxXovCsB/OpRViI3lPWj1buCgTWM3j4w09LV7cZWHMhe/CVM6Tz0IYA8vnSWJs9hUAWPY1L0WPAKsUYbY/SYBlX/NS9AiwShFm+5MEWPY1L0WPAKsUYbY/SYBlX/NS9AiwShFm+5MEWPY1L0WPAKsUYbY/SYBlX/NS9AiwShFm+5P8Fx/Maw/ul5ZtAAAAAElFTkSuQmCC;strokeWidth=2;points=[];labelBackgroundColor=none;rounded=0;html=1;whiteSpace=wrap;" vertex="1" parent="219CYF1WuWqsUgkXM-5G-27">
            <mxGeometry y="20" width="21.883364753906797" height="21.883364753906797" as="geometry" />
          </mxCell>
        </UserObject>
        <mxCell id="219CYF1WuWqsUgkXM-5G-30" value="Why did Reginald Le Borg die?" style="shape=callout;whiteSpace=wrap;html=1;perimeter=calloutPerimeter;position2=0;size=10;position=0.16;fillColor=#BCE5E5;strokeColor=#143737;flipV=0;flipH=1;fontFamily=Comic Sans MS;base=28;" vertex="1" parent="1">
          <mxGeometry x="220" y="268" width="140" height="40" as="geometry" />
        </mxCell>
        <UserObject label="" tags="Background" id="219CYF1WuWqsUgkXM-5G-33">
          <mxCell style="vsdxID=2;fillColor=none;gradientColor=none;image;aspect=fixed;image=data:image/png,iVBORw0KGgoAAAANSUhEUgAAAJYAAACWCAYAAAA8AXHiAAAAAXNSR0IArs4c6QAAFiZJREFUeF7tXW+MXcV1P/ftWn7gpV47oK67S7GLlbgS/yLVNlEdvAaDaZsowfQDKU3sVVPTkkAkUhmQ0hpHqG5RKSWlSKhN1w4i4QsmiSpVKbTeoKRioWldO5XSYsfPYhes4NiOs5C32t1363P3zfq+eWdmztw78+7by9wvhn1z5885vznnzDlnzo0gPIECHigQeegzdBkoAAFYAQReKBCA5YWsodMArIABLxQIwPJC1tBpAFbAgBcKBGB5IWvoNAArYMALBQKwvJA1dBqAFTDghQIBWF7IGjoNwAoY8EKBACwvZA2dBmAFDHihQACWF7KGTgOwAga8UCAAywtZQ6cBWAEDXigQgOWFrKHTAKyAAS8UCMDyQtbQaQBWwIAXCgRgeSFr6DQAK2DACwUCsLyQNXT6vgTWDf3V1QnrZ2H+X3x6oYb/HD5XT/4NTz4KlB5YN/RVh+ciWF1pwOYYYBiiFJgo2sVQiyOo9QDsRbAFoGUDWCmBde1l1Z0Qw44IgZTziSMY6emBsSwAS0tGBHcUw2oELU6pJ57/t6zgLQ2wUDLFMey4wLidObHU/noMtUoEI4en6mOqvnH8BsBwDLAZAWSUjHJHTaBd2AxjjQp8NyuYna89Y4eLHlgoFeIZ2OMFUO1E3Xtkqv4I/hnHbczCzgRIDiQjyb8Yagi0KIIDOlBn5L3X1xY1sK7rqyKT93ApdEGS7L+g2k4KdXTbrl3H+gd/9bP4/orBoW0n/+s/B46//hqcmZiAM5MTZLcf/M1Nx/7v+99byx3TWTsBsiWwN4tadjYPZkeLEliJQQ6wxyQpEEiyWjn09turZxuNnZEBkN/52yfh9RcPKgHGpK/7ZotEii06YJmk1IWT3xhEcEC2UV6anHwkAtgBYDgVNqGAEuuV/aPwytf224GjeaqMAL6LLyYnzKb99MQbJ2r/9Ff7hn5tw0duPDM5ec07tZP91cuWfWDqp2eGfvb2W9Vzp05V3/yfH/ZzB8SN061qclEB69q+6iGdlMIT3NGf11uQ8NKbbw5HlcqoDaBeP/gCfOepr7D4u3JwCJYP/PLhEz/4wbeE/SVeTEnHq2DeDrvoN1P0joA+Pj4Ox18fhzOTk3Bs/FXjPBKAdZmKXBTAQkN5bhZGNaBaMKrTTJ2bmxuFKGK7HFD9cQCFYFp/x3a4euONsHbDxmTIKI5HKj09Y4majePNNuPqkINAQ6Ab1TJKygrslTeWEZWeGnQ9sJqnrxOqUxPlBvjXiYmdcRShlGI9x14bh+cf2m20pzZsvxNu+/z9gMDq9CMkGQJfdbBYUl16aqY+/YwsOTs912SjFTEod8ymb+gQ1R5tqaNT9S3yby9PTiKgWL4sIQ1MUmrb5++H9dvvLARQ8vo4AFu6rO/0zPTU+iJPj10LLK2kAsit+pBBj968WYlxoe623fcF7j7oaDvTpuhftWp206fufvzPv/zoQx2dWHOwrgSWDlQVgC2ysxCN5LlGg1aXBFVR9T396d9T0hslVLcCipJgT3/6blI94ua44bd/59wndj/04S2rVnU0uN51wEpANQOHqJCIC1DpDHRkxF1/8diCQV7ETs8ypk564Zp+98uPnvrQpo8+c+vgYBI16MTTdcC6ru+SvwGI2/VPBAeiBsRpz/lNv/+Z/mtvu/0JcTIzEezpz9ytPL4vJimlWqdq0yC47n32ObQRaz2VypZOSK/CgeUi5oaEWzk0BFev39DiAkgzQAWqxSqlVOBC6UWpxjS4ojjee8vQkKXn17RtW38vBFgCTDZxPptloVvgN+64c0GlqUC1duONcO/XnrPpelG0VR1MEFxf+rckIFCLAQ74VI0dBVYSjolhh3VKSUZ2onrDoDLlvS4rqASpGOCCGGCvL3B1BFiJPyqG0dyAwpibKQOUAcIlS5fCzPQ02TLt/ET1unJwMGl39fqNsKL5/0U4SBnLamuCHvtvPLy77e8o0e/a91jyd1/g8g4sU9A4vWp0emLwNh24veWeXbO3P/DgVjlMIrzPIq52bBxja3SqSxam6N4RwFq7cWMCOHSeduujMujvffbrC6aCD3B5AxYjvofbBSXQgQrAmOybamYjsHOtkLEqw9U30wXQ5Pih73G5/VPgStlb8zZXozFy65VXKjNkuWOJdt6Apc1E0KT62qa3yAtGcD3+yY/DL86ft6WFs/bINBEGctZpjo6QJs8//GCbrZlWiQiurYODa3IM0/KqF2ApQaWJwCfec8tsBIoIKtHfPzAAl181n7Ui7KYVvzJvP6Wfs29NLvwvpq3gw0ldoebSTWEhKtpAuFr2bx0cHHEBLufAUtlUqqAxLsIVqFShmrQ9kZVosk3HzZWaB/KCgzLr8E7ee/7h3fDawRda+pKkFsSNxhYXKtEpsFQxPiOoLOJ8OgpT/iqfHnUEGwLs+PirxnwpH9JLgJ17SlW5IKSN50QlOgXW9cuqo/JtGR2oECQvT05i8NiYWWnasgwD1dRF7t+Rcf/y1FfapEK6Y/Sf3bXvL3On4KQ30af2PcY+mVIuCFlqYdJiXs+8U2Bd11eNW7gTQ+3Iu3WlQfjyxMQhV5mWD3zo6jZguFCBWdBmSmnJqxqpTYQedY7kogx56YSIS84ttZwBC28fR+gETT1UDrr42TbLU8dgju2QBSB531GdxvLaXZTUsVH5FDDlTZjX1nIGLEoNHpmqK/t/eXKyVbrl4CIlrf76f4/n6NHdq6aUlmbszmpAlb/ORmrJSY5tIa44Hts6NNSWocudqDNgXbeseiIdbsGbI//9bp08umZxfqoWREkrG5uDS6i87XQpLVnARfVnI7Xkgw6hDnOdEAsB1vtFWslg5MTuuADOK7VY6jBHkNodsC6rngAshnHxefXIVP0jMqFc2lYUcbpRWqVpoJJcNtJG9JdHalE+P+Kwk9mIzw0sVUwwBqgfnapfIgPL5UkQ7QQ58NwttpVO8qhcI80sT67QImOj3HQgyqdFgTurEZ8LWKbMBepU6EoNcvwxbA4V0JCyDbmgSE+X6odjxLOBlVEdZgaW6bp7sngMNi+BLeJ+m0s1SHnZOQQtAEPkkCobyVaVUypNdniq1ixL/HUfvQl2/YN0zzfj6TATsFigEquJodY/MPCtP33l++dMFV5smC67GLjEtBnDd1tKalCnM9M8KJOAs8mo96jIQBZ1aA0sXeYC9EQPw1y8j8rypOodmAim+p1Sg0V52bOuQbxHqTLbtXBOeNQ8Kf8ftpNtrSyJgFbAUoEq7bOiPPDyosStmnT6ykKyHCMbk1KDi8Fop5hLSS1bW4tSh5xTpgpYOE9J4lmfDtnA0hjqbdfdv/jF+zeNH/zmS+ff+UnVdkdzVFoZ1KALAzzdh6zWTOA0lRjIm07DApamOEcbqHCx6FI489bksE2dKUEkk41RJjUo1sz0KWn3KKVSdVJc5axND9IitSyNeBawKBWorPYiZSyIWJnqGhalJnUhDlsC2krMItpzj/66uVFA0RnwFB3l/mWpZ5NOYwQWpQKzlhASJXhEtTq5iCznVnIRahAlyn+8+AJgKrOvckay3WhSZTIIKKmnc11QdKRuOmW1tTjAastCoIpzNEsykrWsXEkBalfa+n1s5yJLk7y5VKrx8wKLknoq2qjoiHOT7yFmTQLUAouSVqqsBZehGhXx8yS42QJKZ//4qOyXF1g4X1kKqU6GulAYwyfGOiHqgSWlwuDkqRwrl2kwOgAUYV+pPOSc47wNmGWGck7Hcv8cYJlCYZzANsfWUgJL4Y+iT4EOk/Z0zHBBfBtmi7YuMxKo8W3tI9UaTMBSuRhkI5/hujBKLTWwiNLXlV5YI9e17JS0okS9b/sqzUCf4KIYzgnJ2EosyrFMSUZOYNsU5iGBRV3jUtpWjm7ZmCSJ7XHa1F+W31XlkFyoxTRws2wYk/GuklaUr4vlyTf4tUhgUWqQOgm6zFYwMZpjXyFBzk7MFwZBQuIJznWFGMq4xfFcgEvM2UQL6ndTvJACli4mmVcdksDiXoxweRIUlz8FMBAQ+GA8EQEiA0v4vNC/xKk0g+2xOgwWZBN9ZmEgvqMDly8/l2muFLBkaSTacGpL5FWHJLDk+4EaNZjrpg2qN3SWmoCBhHj37FmYfu/dBfr+0hVXwPl33jHRm/wdnY/rP4lfltjIuotHdaICl6sLqTYLc5V+kx6TGTpT1npoAxb3fmAeNShiiHJasQ0xXbTlePptTqmirS8nqmouHBeBLb1MNluzP+XpsA1YlFOUOg3afAFCLEp3gdN24S7b53F46mJuWYxw23X5kFZiDhz3Tk+lsoaqwtwOLKZT1Lbmgqlovy1B5fZoPKOkQPV2EcjzZYg4dlgeKaOrHe9TNao2qouDBNKNEw1QuR2MwKLsK9dfghA2jzjB4aJEbSqs5PK9555NbCz5kasjm8ApgslyKZ/0e1mljOnDmdhvHptOXpsKVKa0IxON0r9zTuKq7FJKFcoGeZu33ca+0iWUcVWQ6ShtQyxsa/raV1ZwmfoVp7G8ANPlUtmmNetoxzlpgsKf1QIsyjGquMLF/sKWygaxIQBn59iCC9vrpExWcGG/plwnlND4sQNb10Ty3cJvHlRWGMwzZ4p+TKc0acC3AgvLZgO0pL5QjlGu4e6qwh7lw8pS74Aing5cWcIqYgzuyVeADD+qKe4AiPz/dP6aySXjGlS4DmfAIj3uRHyQa7hTOzeLYckxIrNILPGOSoXlMehF30gDEyjyzB3ftZH+NmM5AxblaqDSZLjAkqPtWQ1LzrHXhmBUWxW4smwEytA2VfrLOv/rb/8t2PHkU1lf175XBLCMHndWIJNJjk4AS2fUuwCX6J9Tr5RJlqRZ1s3KGYNlvAPA1sHBtkNgyx84EovrauBOirPATgFLGPTUp3zz2FsqCSn8a/i7KQqBJ2j8Cga6Xb792L6WLn3YV9QhRAViJ8Di5rbLwMqzs0wJbBxw2rQpojxSOgifznKQszN8etplGrFsW467waXEcuki6DSwqHRk21szNkC2beviWj5nTOaNKDIQ3aIKOafCPKowqzrpNLAoNYB/yzp/DhNt2uSpMMMdx+KuY2eB5fKqVhHAYp6IuHxy3o5TQzTPoNxoh+pihbWDlCuxcFGy0Z3VL1QEsIq4amYDBC7jbfpMt+UCl5XdoPhkSVuskFuVj7IFssTLigBWt1e0cVHvQQU6CzVIuhqwX2MQmrpOzwWW6k4eDmyTTtJpYKk2hKswUlYpkn6PYr6rA4aFNLTIIJWvfRGfLbHJddfF4riXMjsFLF18z1fYJA/IWO6ADANQJgy1qXQXV80ZpASwbO8SqhjG3WG+HKTcOJ4rz3sGHmtf8RGct4mYUI5RMeE2YFG1sOQMB66TVBbdGC9LB2S5x3cfO1OX9ZmeNxf8rkHD6c9ldEOMR10SUUhr7Ucz24HVX13dmAX81NvCI9tZNidDikC29+d8AEt1+TQ9326VVGKOrg14CqiqjaU6DSolFv7QVmiNsrM6VK8B5+ND5Osklm3KM7V5xJyzulg4Ess1sKiapAqtYvzEL/smtJxJyk324xDI1MZl3DE9lrjXiAXVxK3ptRsuXsYwzUv1u+xc9aVOXQLLJnfOVLeBdDfgH8kUZYCxo1P1hc+M5VWHNkxjXp606dJrW4vjeq55UMDi2q3yBpMLruHvWaWVElj4A/kZ3ghGjv68vl9MysbtkIeCLndmnnlw37U5WXH7pNq5CDup0sdV9qXuJJieo7KMEVkpWbK1bG7r5CGgjSc4zziu3vXpvEzPkVNfQbcm1Q0qlermqECt8S5+pKolp+8ZdlId+jgZugIS1Q831pZnDnm+fqaSVJq8OaPBzpJYKlsr+fBSBCOHp+pj2KZTUstlflceZnLf9eFjksdm5ku1TVl3Ilb4rIwV/ORBjFWTyZKRqa96JVJrbm7U1dfoVYxzVU6RC4y87VzYP7o5ZE1L0vnvXIFKa7yLRak+dJn+ZFwnVGInU3Lzggrf9w0sRnXjhWUg7Uy3hFyCigUspUrEH1KSyzZ+aMs81U7rxuCwb2CpVBka3fiIi6/436Y7jcpSTpafOLFWhQuG/GXVnVEM0lcSm+CKYOSJN07UfKhEU+mjPJc0bMFt096XTeiyao/y9Jfxq6ps410mpPKTcTHUIIIDT75xYr9LcHE+JIRzlHwuNYCWj57b4MFZ2zwnNhs7M+uEFX6qWtxojNx65ZXJwSzPYzTe5c6134GOoTaw7oN/t/vb//y5PMw1SSlqwUio2z5335be3t7aXKOB9SdW5yFMnnd9XHZQSaqll14K0++9x5quKBeFxUhSTy0GONBbqeynCqixOiYaWQML+zB9ZLzS2zsxPPIHfetu2tzPjb2JAhh4WVR3eRMDxPjINa6WVJeemqlPP3Nkqv5IJw4TOoJT9mAeW9DkHsC54A1r/MIaPj/58Y/r+K1IzEqpxFC7EOc9+eubbvrRZ//+q6cqUZRsuEYc13ATugRTZlWYfjGJJ87AIeozvel2olox/g1v8opqyOmy2dxPzgnmKFOemyq5KHCpTl9Lli6Fm//wHth23xesBIBJcpNgzWl0W01Q0ziTxBL9NYPVOy+Y8HtcTYjqh8qPR6I/fsfHz/3iZ+f75XcwOhAtgb2P//DYcBxF7QcOD5PlGNXcdByUUGffmmyTyulpdzOocJ65gJUG2NwsjEYAwy55pjgKJzbBrYODj2ilZlN6feyBP6nefM8fP+hyXqIvBHdSDO3Fg8baC7IUH1y37tQly5cPYMoOPggkLI95bPxV7VR9uQdc08cJsNokWAw7TCpStxBFgfsFQNmq5KXL+k5fv23b5UIVc+2+9DjC7kMg4UMVDpHXhCpwZnraGc+UJ7nmRnM2kIOOnAJLZng8A3sa0fzpTCfNkPGrb/jwuSvWrOnd/qU/q0EUIYhOJv01GmOm46+tShYV81amvn6BQ6H0QMlxUSLN/7dJilB8QBDg6cvk8ebwUFOP3iowzBnLVRtvwKImiACA2ZQboBdq8tfE8iwsSfVBJ24TzHn6yvouZQ/++ze+fnps9KtTp0/WrFwgOvcAmgJZ59iJ9zoKrE4sSEivGGCza5tPNX+UKOvv2C4Xq01UdyWOa7cMDSXJkS1zi2F1ywaYdwvU+pb3nx685pol9/zjgcMt4zEkdyfoyx2jdMCS1XFjFnb6AJkAExalbdps6PEfS1S4BQgQbC6lNpfxvtuVGlgyyPD/5+ZguNKAzYn5Juw/lB7zhmDyLzp4e3p7evG/l61Yee7S5ctP933g8p+uGFh1+oqrrjp9y64/+hE6GPF3k/3nm4Hd2v/7BljdyoCyzisAq6ycLXhdAVgFM6CswwdglZWzBa8rAKtgBpR1+ACssnK24HUFYBXMgLIOH4BVVs4WvK4ArIIZUNbhA7DKytmC1xWAVTADyjp8AFZZOVvwugKwCmZAWYcPwCorZwteVwBWwQwo6/ABWGXlbMHrCsAqmAFlHT4Aq6ycLXhdAVgFM6CswwdglZWzBa8rAKtgBpR1+ACssnK24HUFYBXMgLIOH4BVVs4WvK4ArIIZUNbhA7DKytmC1xWAVTADyjr8/wMejvppXCESdAAAAABJRU5ErkJggg==;strokeWidth=2;points=[];labelBackgroundColor=none;rounded=0;html=1;whiteSpace=wrap;" vertex="1" parent="1">
            <mxGeometry x="364" y="285" width="36" height="36" as="geometry" />
          </mxCell>
        </UserObject>
        <mxCell id="219CYF1WuWqsUgkXM-5G-34" value="" style="group;align=left;horizontal=1;spacing=2;" vertex="1" connectable="0" parent="1">
          <mxGeometry x="210" y="323" width="166" height="50" as="geometry" />
        </mxCell>
        <mxCell id="219CYF1WuWqsUgkXM-5G-35" value="Reginald Le Borg was ...&amp;nbsp;&lt;span style=&quot;background-color: transparent;&quot;&gt;died &lt;/span&gt;&lt;span style=&quot;background-color: transparent; color: light-dark(rgb(0, 0, 0), rgb(255, 255, 255));&quot;&gt;from a heart attack.&lt;/span&gt;" style="rounded=1;whiteSpace=wrap;html=1;fillColor=#d5e8d4;strokeColor=#82b366;dashed=1;fontFamily=Comic Sans MS;align=center;" vertex="1" parent="219CYF1WuWqsUgkXM-5G-34">
          <mxGeometry x="0.0006199460916480604" width="152.1293800539084" height="40" as="geometry" />
        </mxCell>
        <UserObject label="" tags="Background" id="219CYF1WuWqsUgkXM-5G-36">
          <mxCell style="vsdxID=3;fillColor=none;gradientColor=none;image;aspect=fixed;image=data:image/png,iVBORw0KGgoAAAANSUhEUgAAAJYAAACWCAYAAAA8AXHiAAAAAXNSR0IArs4c6QAACiJJREFUeF7tnU1sFVUUx88MJCaaEAxgBDUWY/gIGyyEYEUtsjHGkhhdk1ZMu8GVkEhc0C4UE3ClGwhJK2s/EmqMG6RGeBhDH24IfYSEIloW0CAkElnwRs+jY14f8zrn3rlz7503/7uh0Dv3439+73/v3DnzCAgFCuSgQJBDm2gSChDAAgS5KACwcpEVjQIsMJCLAgArF1nRKMACA7koALBykRWNAiwwkIsCACsXWdEowAIDuSgAsHKRFY0CLDCQiwIAKxdZ0WhHg7Vu87be6P79AxQEvQUJ9TSPMyKaCIl+onp9Yuq3Xxr/VrTSkWCt27i1KwrDU0TUVbSAPDTeKJoIFi0amTp3eqJIc+k4sBpQBcFogVxKyst0EIYDRQGs48Ba090zGhD1S6NVtHoB0QjV62O+L5EdB9ba7p4rHbEELkz8dED05VS1MuzrB6OjwGps1ut13luVorB7+QoXwCo+gtNBvb7dt6WxVGCt79tBjy5b6jVKv5+t0o0ar+ZKxTu4SgXW6wf30qPLHleKmIvKd2dv0Q/7D6t27dW+C2Cphs9S/auVKk2Ofa3amzdwASzV0Fms//Nnx3SWRX71yvmmHmBZBEW1K80lsdGNa7gAlmq0LdfXdS3XcAEsy6Codsd3iAxXc3lq1crGX/+cuZ7aXEQ0dqlaGUitaLgCwDIsqOnm2i2Hx498TvtHPvEWLuNg8UNg0+KK2wvD3ohotF39lz94jx5bvrQQRw7Nc0haDg8Of0RbNr1Au4be9xIuI2Ct6+4ZjqLo1SJlFPB5FkO2fM1ztHzNalqxdrWYX9sVk44e3up7gxguLjv63vEOrkxgddKzOQZtfd9r9GxPt21uUvtLWg7ZrY4f/eL/a/cPf0zfjn+f2hYRTdeqldw/RdpgdRJUzdFgwDb1v+2Vg7XbZ01NnpkHkhQuGxt6bbA6PT2FnYsdzJdHQEn7rJPjX1F8hxgT5gtcWcCKJL5b5DoMVQyY63nw4x3eazUXvjPcsvnhpVsKV56HqFpgrevu6V/o7st1EEz3z1kR7F4uy8XxH+ni+Ml5Q+DNO2/ik4pruACWkBZ2r1f27na2NCYdlDbfGWaEa2CqWhkTSiGqlgtYR/ZtEHXuqtL1m/do8tJtGj9zQ2kILuHSAYsnJ3Qu4/lcuYA1eexFpYC5qjzzH2B9H87ft6SNxdW+S3Lk0G7swnMuo8cQpQaLA8GuNTx6OY2neb93AVe7Iwc+z4oL3yHGd4lbujc2fo7/LoHL5DFE6cHioAweukCTtTtKcHFlm5t63RSaBlwrn2wAJjhANfbuIsAionO1OzR06IIyWLbh+mbwwSOcnIuRJRFgzUVJ17VswpV0lpUHZAFR5rtEgDUXmaS9lkreEx+k8qOgPAsvh1cr5xsHpfxzjiWzawGsuei0u0NUyXuyAVcrTM2A/X3zrwZwd2fjP29p5cxzH1ldC2A1RSppOeTncVykeU8u4FrIuRg0PgO7eenKQ4+EFnS8KJqonT+7XdcVAVaTckdP/EFHTlybp2XzYxPJLTtf7BtczRPiZZQfDwmW0kzLIcBqUj3p7rD1scmuwT306+T51A+yz3DFe7XWZ4+tk8qyHAKsJjWT9lmtCXVcXfiYxGvn4nmkno1lWA4BVsvHlB/xMGDNJUvek8/OxXNc8PUygJW6MokrtNvAtybUqTiXzRN68UTnKial4zS1ob3PgmO1RIKfG7ZmPZjIe/IVrrTviKhVK1qMaF2UluhXlOyGpE932p1h0jWSPZePufQ8F4Cl6vGa9ZNO4PcM7aY9g+8u2KIULpfJgkkTAFiaoKheJjlyaNem5JyLnYu/p8uXArAsRaJdpkO8eecUFC5xrpNO3pNP+y2A5RgsSfd85iXJe/JpvwWwJJE1UEcnXVmnW1+WRIClEz3Na7LkZql0yV9S4vo7IwCWSsQy1mXX+q5yg87VbtP12Qen8K2n8Rm7aFzug2sBLBORNNBGDFicI8+vkXFRfZUsHopr1wJYBqDIswkGbmb2HlVrdxpOJ305g5dChstVAViulNfsl48tRkYvpy6hrpdDgKUZYJeXxXu11uTB1jG5XA4BlktCMvaddoTh8sAUYGUMruvLFzrCcLnPAliuycjYP8ASCNjJaTOC6WtVSUrHiRtyuYGHY2mF05+LAJYgFnAsgUgtVQCWQDOAJRAJYKmLBLDUNYNjCTQDWAKR4FjqIgEsdc3gWALN8gCLT6elD24FQ8y9yqrlj9CmtUvE/QAsgVSmweJv0+OHtkUrDNfwwPMiwACWILomwdL5clnBEK1VYbjGP03/j50AliAkJsFKevNYMARvqgCs5FA4fxO66I61ee0SkvyHCXAsgReYdCzetA8dvpCaECcYlpMqR/dtwB4rQXnnjsVjiu8IZ2b/cQKHbqd9PU8QL4WSAscSqGTSsQTddUQVgCUII8ASiISTd3WRAJa6ZnAsgWYASyASHEtdJIClrhkcS6AZwBKIBMdSFwlgqWsGxxJoZhoszmo4euJa4xX1IpU3e1bQ0M5nREMGWAKZTILFUPGrUUUtfS+taGQ4pBWAlaYQEZkECw+h3X6dUce+/sXfa8Cf5iIXydePw7EEETbpWGnfayAYjtMqgzufFu2zAJYgTCbB4u7izXuRskj54TM27+1h8SK7QcBy4avAsQQhNO1Ygi4LXwVgCUIIsAQi4eRdXSSApa4ZHEugGcASiATHUhcJYKlrBscSaAawBCLBsdRFAljqmsGxBJoBLIFIcCx1kQCWumZwLIFmAEsgEhxLXSSApa4ZHEugGcASiATHUhcJYKlrBscSaAawBCLBsdRFAljqmsGxBJoBLIFIcCx1kQCWumZwLIFmAEsgEhxLXSSApa7ZQo6l3pq9K2rVilb6utZFAEs9sABLoBnAEoiksBSqt2btiulatbJapzc4lo5qGtcU0bEiorFL1cqAxnQJYOmopnFNEcEKwnD71LnTExrTBVg6oulcUzSwAqKRqWplWGeufA0cS1c5xesKBNZ0EIYDuk4VywKwFAHRrZ4GVkCktZfRHU/idWE4nRUogGU0IumNpYClffeV3rObGnAsS7oDLIHQOMcSiKR2jgXHYr0AFsBKUwBLYZpChn6PpVAgJBxLIBKWQnWRAJa6ZnAsgWYASyASHEtdpDSw1Fss/RW4K2zcFW7e1hvV66dKj4M5AQBWA6yNW7uiMLxiTtdyt5QlPcVX5fSOGwCW0XhmzSQwOhhDjWmBNXdIOhwRHTA0jlI3o5tX7rNo+mCxawXBKAVBr88T9H1sWZLpfJ6bNljxXovCsB/OpRViI3lPWj1buCgTWM3j4w09LV7cZWHMhe/CVM6Tz0IYA8vnSWJs9hUAWPY1L0WPAKsUYbY/SYBlX/NS9AiwShFm+5MEWPY1L0WPAKsUYbY/SYBlX/NS9AiwShFm+5MEWPY1L0WPAKsUYbY/SYBlX/NS9AiwShFm+5P8Fx/Maw/ul5ZtAAAAAElFTkSuQmCC;strokeWidth=2;points=[];labelBackgroundColor=none;rounded=0;html=1;whiteSpace=wrap;" vertex="1" parent="219CYF1WuWqsUgkXM-5G-34">
            <mxGeometry x="-10" y="24.68" width="25.320999754962024" height="25.320999754962024" as="geometry" />
          </mxCell>
        </UserObject>
        <mxCell id="219CYF1WuWqsUgkXM-5G-37" value="Heart Attack." style="shape=callout;whiteSpace=wrap;html=1;perimeter=calloutPerimeter;position2=0;size=10;position=0.23;fillColor=#BCE5E5;strokeColor=#143737;flipV=0;flipH=1;fontFamily=Comic Sans MS;base=19;" vertex="1" parent="1">
          <mxGeometry x="272" y="371" width="88" height="32" as="geometry" />
        </mxCell>
        <UserObject label="" tags="Background" id="219CYF1WuWqsUgkXM-5G-40">
          <mxCell style="vsdxID=4;fillColor=none;gradientColor=none;image;aspect=fixed;image=data:image/png,iVBORw0KGgoAAAANSUhEUgAAAJYAAACWCAYAAAA8AXHiAAAAAXNSR0IArs4c6QAAE19JREFUeF7tnXtwFdUdx397kxDIAwghgdBQgkAQEJFHKOoo78EHSlofcZxRSLVVsda2Oh0JVsBHcDqOdgYVnY5NsDMOVK2gglJQElseFZBaLAgqBEUDKA02Ca+Eu53fhr337Lm7d8/eu+fs7r1n/yHce3b3PD73+/ud33kpIC9ZAxxqQOHwTPlIWQMgwQKAhysnTAmDUqbzEAK1iWSjEzK1/z+5epvhc8mPdQ2kDVgReFSYrAKUKQAIUgQmVkhUgAYFoAkU5VAIwg0InQQutvZSFqyayop5gCqkqoMAYB4rOImk02BTlMYwhOolZF01mFJgaTCpMJk3SPHgk5ClCFiJwFSQ30MrfVZmBnTLzIRumRmQlYV/Z8DZznMRbjo6on/j52c7O6H99FnAz8l0cUCrDysZS9JRxQKrWDWVExeDqs6185N0iHK7Z0Nuj24aPG5d7afOQtvpMxps+LcELFoDgQPrPFCL4rUiwlSQl6OBJPJCuI6eaLWCrCmkqNWPr97RIDJPXr0rMGDZAYUwoSrpCuVVheJ74wKmKEvSwcn3PVjxgEJFQmXyA0xmICNgh789EeuPpQFcvgUL407nVGWRAjCFbjQEql/vfOGmLlEVRLgQMoPDn+Jw+RIsK5UKGlAkiKbqpShLald/uDhRYP18n6/AslIp7MmVFvUOjEJZNTgq1sFvjscoVyrC5Ruwzsej6uhGQf8JoUqVy1y5oLp29fb6VCmjbyLvNXMqECjDsEuqqJQZLEdbWuFYS5vhq7CSMTiVAqmeK9aCORWbaAe9uCAP+hXkp9IPOKYsZnCBoizBhPrgNv4dVNg8A+uhykllinqujobqgpLCwPtSrL8IU7iom3HsUTMtitIYpNkUnoFlplTpBJXOz4Hm43bDQQbUgjLI7QlYNFSp7E+xqFdL6yloaTvpZHBbe2wXZLAiDBkNfjOZwsGiY1QI1fAfFrPUf9qk0Qe0cYBbGyJimVGh+KtnKRQsbRanqmwiCUlH85foL0RXNquZFKhgqpJR7Qf1EgYWOush9dxBCVWiWEXv06frnGg9ZT4vzAfqJQws2gSmQ0gheYTsn4A9SzPAvFYvIWDRaoVjfmgC5eVODeBQkT7QbXiihwPdQsCie4HorLs5k9Od5gn+U0zVy6OBbu5g0Q67NIF8AfbLQDd3sGrmVKDDrq3fk6EFvlDpT8fe47GWVk9nUXAFSzrsYkAye4vXA918wZJq5R1ZAGACV33tmu3VIjLFDSy6Jyh9KxHNGfsO7C2iadQvUdNzuIFFm0HZE/QGLNqZx/jW0jXbp/LODTewyBCDdNp5N2P858eYRAGReS5gSTPoLUhmb9/35TGyl9gUVjKm8hxT5AIWbQZHX1Div5pOsxzRqhVS1Kk8V2VzAUuaQX9Sa1AtzhF518GSZtAZVOhcixreInuIvJ147mDJ+VbWoOnTknFQHpe48QYMww4Il4jQg+tg0esDpX9lDpZZZBzXUBYX5HMFbPeB5miGOJpDDmBp+1Zp2wzJMIM5VDhRD9XK6tJXffNQMNLP4mkO3QeLWHwqwYpFB30qbFzyyswKQWdH2PAZL/NIKyWvSLzrYJE9QjmMYwTLTKmGjy6FS8aWw7q3tkJrS3ToRb8T1cvNbZroPAQGrJo5FapeKRKsKFhmUJX8sA/c/YsfRxKt/msj7N55gKt6xSgmpyi8q4pFhxrc/rU568j7J7WZo55f0AMeXHBrTCYPHz4Gb6xqhO+O/o+baTTGs/gsG5NgceTPai66FVRkVt5dtxV2bN0HHWeiOze75XdRwztcptJwBSudY1h0zEiHBn2qW2+bxYQzqlf9i+sMcGGHaPCAwqRCEtSyfgkWU2t4nCjexrbX33QZjK8Y4SiHPOASEYGXiuWoma0TWy7BAgA0fbfcNgNKSxPbSsAMrmQ6RrTPV7tmu6scYC25+kDaeU8HU4gKhRt6kLM0Sfwumz4KZs2alDS+rW3tsOz3r8OZ0x2RZyU6eZI20xKspJvHvQfY7aMw8IIiuPPu6917IQCgctUtXxsJRyTqb0nFcrVZkn8YwtSOR5zQW2sTj0agrpo9KWGzZ5fLV/68HvbtPhxJlohJDDxYqRDHYoEJW7lvSU+YPnMCjLxosB0bSX3vhkmUYCXVBM5uJlXITpXIJ/NWKLNS7Ny+F958dUvCqkWB1VS7ZrvrvwZXnXcsKbny2cuttLGX1gVLJ3ScPypOPxmCPi7OGYIAvYpyYOSoMrjqmkud3upa+qeWvhIZW3S6yYoEy0EzsJosB480JEVl6lvcCyp/gudsen9hZH5rw56EeohBBSuyZ7vTX5KT5uINEg4Q9x/QB0ZeVAbl5Xj6r78u9LWeenRlQuZQgmXSllYbjcVr9qzsDMjKzoSc3GzIysqEzMwM7W/96lPYE4qKekN+rxwoLiqE3gV5/qLIIje1j7wciWs5+REHE6yuc5kjR5e4MTXZ5oBJQ7Wj0vTslQMDBhTB0OGl3Lr9fiDvtVXvw+6d0d03WQOm5Fghr1mkrjvv9H5YrIW1aih67wE6HXbzBw4qhgkTR6Q0RGb1s+eTg7Dq5fcjX7GOdARuEBpL6NacLKvZAfiOnJ7ZMHzkQN840l6pF+1nscYNRSyocF2xsJKTDTlYndbgRczIK2hY3/vYwrrIEA8LWIGcQapXBgmWE6fSaoYAKtR1lZdzj2qzNqaf0j3+u/rIfC2WuCENFq+l9rwUy3BMHKufZaZUM2aPgyuuHOuntvRVXshAKQtYohat8gGL6hmygEU76ahSM2aNdzwxzletLiAzy555Fb5r7pofz2IdRIQaMC9cwDrvZ0VW69jZfnoFS3b3LKh59HYBzRL8V7zw7BvQ/OV/mcGirAKXcULeYEV2S7aTaLKXgos3q+ZO82W0248YkmCxLBAW0SPkDRbT0A7tTI4ePxhurJrmxzb0ZZ6cgBXbI1SW8DronJ8pZPSz6LlBDz5yC+Tn5fqyEf2YKSdg0Y47rx4hV8Wi41lWMx1Jmy99K+foOgFLlOMuFCyrHgsJFstCTudVn9p3OAFLlOMuAizbeJYEKznwWcES6V9xB4sekDYLO0iwxIAl0r/iDhbtZ5mZQwmWGLBE+ldiwKqM7vCHL6Sj8BIsMWCR8Stec7DIknALN+gvsTOHEiz+YIn2r4Qolp05lGC5B5ZVz1vEOkK6FNwVSwMrjjkkwSromwe/+m1VcjWdZnezjBXSx53wWEfoCVjxDhWQYCX3S7ADywszKMwU4ovoY1D0zcNIsOg9OZOr8vS42w4sL8ygULDogwX0mJYEK7kfgB1YXphBoWBZOfESLH5geWUGvQArZogHZ47iRD+8kjWFzcdPwa59x6H5+EkoKcyBkr49YGx5YXItx+nuzf8+Cnubvoe2Ux3QO68bjB7SB8Zf6Dyv8RRLdFBUaBxLf9nyh64qaznWWtl2/Owz+mc446H99NmkwUKgald8DB/tiz1GpKSwByx74FLAf/1wbdl9DJ57fS80NbfFZOfiIQVwf9UouHBQL+asWoFFq1W3HhkrFq/cNo/5wUkmFBJueK5mxmIFQDtf58j+VsOOdPiZvgtMIoqFUN1YE120aVYfCNXCeWM8V68NH34Di1/aFbfJsrMy4On7J8Ilw/owNa0VWLTT3r88HzKzlCYVlBX31m5czPTwJBJxB+v5BTM2gQJT9Dy2nzgLLV/HHu2RqCm87+ltpkpF1wnC9VqtdzNTv/nuJNy0cBNTU5UW58LKR6eAwtA6VmCRTnt2biYUlRGTJ1VomL90I9cDxxmyzlQXpolIpSITkKpFfu5UsdZtOQxPrPiYOYM/nT0M7riunDm9mwn/sOo/8Or7TcyPvL9qJNw8zX4/NDOwzNUqZHi3CrCEp3JxBev5mukHAZQyvUSTL58A5UPLYP3af8KWxk9iKtkpWAgVwsV6jRteCMt+k/wOxqzvI9NVPdwAh79tZ771R6OK4OlfTrRNbwYWqVYDy4qh6vZp0HzkW2jcvIN4nto0v/Y9e3Jtc2CegBtYz9XMnKeAGtl1ZtyYkTD+kpGRXDyzdBWcaDE6sE7BQt8KfSzWy0tzePlda1mzqaVDc7jqsYgHYXkvDVZu925wjKjXXy+oimzLtP/zJgNcSgim3vP4xgZHGWNMLAysW2642rBIYtOGj6Bhg9GRdQoWq39F1sXmF69lrBp3k4kAC5d/6R0hzP2UmWNh6sxxkYLgJiIrX38n8n8VlOp7azfUu1vSrqdxBCvaE8QX/WzujYb8o1rVvbDWoFpOwXrprf3wp7c/Y66Xay4rhYVzxzCndzPhnUs3w96m6HnMds+eWTEAFt9pv7UAqVjkM3HzOFQr+vrjitcIsPj5WZ6BhaVb/ZcPYNeOKBhOwWIJNZAV++wDkzwLObzytwNa/Ir1euKu8TBlXH/b5FZgVd91DZQNKbEBK4CKtfzhGVPUMET617NnTYaS/kWGgjZ90Qx1L66LfOYULLyRVbW8dNz1AlY//nfY/5XxHEIzcq4Y0w+enD/BFipMYAaWFVTowL+9vjHYphAj7WqoM7KPIe2866UjN7UYPLwfzLtjNlOF6olQtdZt+SquSfRL9P3QkTZ4cNl2wJiW1XXx0D7w1H0VkNs9k6ke6l96Gw7uOxpJW3nzlTB2wjDTe2Oc93Dm4HuefJc9BsKUo65E3EwhPpwMN6BaoWrRF/6CPv/0a+3jsRPKAUMSiVyoXO9sPWzoJSJQV19a6lnsyqwcbSc74IXV++DNf3wJ585F9k2BvJwsuGHyIPh55XBHxccQwq4d+7V7hl74A9M61h+IdY2qpV/zazdya39uD8bML6+ZXqeCEhmfMjOHZGExxpUoWKSCHTl+0jNfipWKjs4wfHroe2g/1Qm98rJgRFlv1lsN6RAsVCK8rH68+B1tBhVQ6++pfa86oZcy3MQXLMocmhXcbbAYypxSSVjBotVK4WgGuZtCzRxSY4W0akmwkuOcBSxarSDoY4WaOaRUC3eSuXbWlZFgqQSLL1h0UFRTE44Rd700XE2h/hJ6MBrhwkg8XhgJxsLj5YaPlVwzBe9uO8WiTSDvwWehYGmqpXTWkdNn0N9CR33t+g8kWEnwTIJD+rD4Y0XoyF6gCBMoFKyoSezYRM52QOXq6OiE02fOSMVKEC4zsGJ8Ku3ZapMSUqp5DTrT2RdiCvWXdvlbRrhCIQXC4a54jjSFzukiwcIfal5ejlGlPIBKSK+QriozuPQ0EqzkwDK/W21SwllTeUXYrXIsVLFI5QqHOufp8+AlWM6B0u+gnXPySaIcdbPcewKW0TR27gYA7YBAqVjOAYsFS9UWTITCmfWiVYrMvadgYUbI8UQJVtJgbZtfu9G7g6qJ7EuwnLelr+4wKJaAiDpr4b0HixjyiTeIylqgdEtHgsV7YNlJ3XoOFhmVJyPyTgqRzmnJkQsJFkECPdOUXnSRztCwlF3UHHaWvPjKeacHqc3mbDktVDqlN4LFbw670zr13BSyTmF2WrB0SC9yOZfT+vQcLC3kIB14p+2mpRc5h91pBn0BFj2tRppDtmYkp8zgHTznsLPlKJrKF2BJc+i02brSk/6Vn3qEmDdfgCXNoXOwaDPIc7m889z5CCxpDp01n5/NoK8UizaHctzQGjS6N+g3M+grsGhziFF4nLpML8t39rtOzdS0WolYHOG0Jn3jY2HGpWrZN18Q1Mp3iiVVyx6smIWnApZy2ecqNoWvFMtMteTAdLTRvFh4mghUvlQsDS5qzwernWoSLXQQ7/Nq4WmideU7xYqqVnQ1j3TkQdvXilwj6OV8dhbYfAmWBhe1cRu9NJ+lcKmSZue/9sBHH++JFsdHM0Wt6ti3YGGG4y3NTxVo7MphtviU904xdnli+d7XYJktzU8nZ94UKp/2AmnYfA2Wmb+Fn6VDVN4MKr+NB8ZTLt+DZQVXKi+8MFUqzjvwsZg3J2kCAZYVXKno0NOzFrTGDICzHjhTSGaYHvLB7xCucWNGaOYx6FdM7y+gUGG2A6NYOjRmm4ogXMOGDDKc1RM0yMz2YPDjrAXWeg0cWLpZhFDHInJHZl29yG0oWSvBy3SmG6Rp1o/fcSQiyhtIsHS4zHasCZJ6mZo+QXuE8oYrsGDpFWN12Kafh4GsVEr0rns84Qo8WPHUS495oXOPoPnhslSpgIUT7OoyJcCKqhcevhleRO5zqvteGPfyEjD9hFN9h+how4jdG9QOCLe+Tymw7NTLC//L2uwFMz7FCl7KgUWGJcyce908Jntmj10FI1D7Pz9knJUQualr1z2eh33b5Y/39ykLliHuRe0xr5tH/RADtyvZfDvsrrcEPYzAWlcpD5YBMGorcB5DQlbOeboApdd32oCl+1/0PvNu+V1xQwgebIfNqiy80qUVWFZw4ec4r7586KCEwhJWpi/dVIqENO3A0uGyGhLCsET5kEG2C2V15/yzLw5FzgJK9RCCE3VLS7DswhK6c4/Hh+iB1bzcHGhr7zrLGRUqNh51vtoDOMXFCTCsadMWLLteI2sFkiqV6iEEJ3WS9mCRgJmZR/vKTP2YlH0dxKaQYFF1gvO9ILOzDMLqXFVVumYPKmp0FqGqaCd7qwo0hkLQIOqYtkQa18t7JFhe1n4Kv1uClcKN62XR/g95/OE8KHgB7wAAAABJRU5ErkJggg==;strokeWidth=2;points=[];labelBackgroundColor=none;rounded=0;html=1;whiteSpace=wrap;" vertex="1" parent="1">
            <mxGeometry x="190.5" y="428" width="40" height="40" as="geometry" />
          </mxCell>
        </UserObject>
        <mxCell id="219CYF1WuWqsUgkXM-5G-41" value="" style="endArrow=none;dashed=1;html=1;dashPattern=1 3;strokeWidth=2;rounded=0;" edge="1" parent="1">
          <mxGeometry width="50" height="50" relative="1" as="geometry">
            <mxPoint x="402" y="495" as="sourcePoint" />
            <mxPoint x="402" y="115" as="targetPoint" />
          </mxGeometry>
        </mxCell>
        <UserObject label="" tags="Background" id="219CYF1WuWqsUgkXM-5G-55">
          <mxCell style="vsdxID=1;fillColor=none;gradientColor=none;image;aspect=fixed;image=data:image/png,iVBORw0KGgoAAAANSUhEUgAAAJYAAACWCAYAAAA8AXHiAAAAAXNSR0IArs4c6QAACKhJREFUeF7tnYuR5TQQRbWRAJEAkQCRAJEAkQCRwEYC01Mr8Hr06Sur9TTPx1VTNVVPbku3j1sf6/MhcaFAgAIfAmxiEgUSYAFBiAKAFSIrRgELBkIUAKwQWTEKWDAQogBghciKUcCCgRAFACtEVowCFgyEKABYIbJidASsb1JK9hd5/fHyDPvj6iuwpT9GwPoppfRjv7yXUvz8crc9h6uvwJb+AKy+43ZPAViCh4hYfrEAy69VAiy/WIDl1wqwBK0ASxCLiOUXC7D8WhGxBK0ASxCLiOUXC7D8WhGxBK0ASxCLiOUXC7D8WhGxBK0ASxCLiOUX69ZgjXw68ktLSlWBf8Qb5Bd9xOEjb8jIc8Syk1xQALAEsUjqVwCw/FqRUlAAsASxSOpXALD8WpFSUACwBLFKSa2j8XXFxm8ppV8v2ldu/zKl9P2nGyxPf6eUPn6agr16GjZgKZ47pDWgvnsBx5xZu+Qu9GBeMlCt6dwGmeVnFeiAJTrTA1Q2uQIsg+r3DuDHIq7Ikz0PsASw/hIcaGajnWirZwwq9bLo9ZV6k5gesATBwsUS8mKRykAfvaxK/GH0Zsd94VqNjIjvOvIeLpbDYTmJRaqray8jI2q4Vs8OllUrdpUa8VGO6714lifrkX5x6CWWmI2sEgFLiBJHsbLzzMm16BEFVstp52ca8L80oltUlQhYIlhHoHrVUgRYBkkeqzpn3dpMpeGEVs/RymP3zR7nAiwBLItOpWX5KyNWzWEGxreNsrR6kBEvAGAJYNWSrgLLIpVFrNJlUPWiTi2fEW0twHpHYNWqwV60ykVsRS0PmIpUgKWoVUm7KmLVBmhrbatSdmsOn10dAtY7AqvmLBtFz8MeveLUXgJv1OvZz78DllepRroVEavVvlLGCmtjYLPbWYD1TsCqAaFGmlY7SwG0Jxtg9RRy/L4iYtUa7uoAZ+sbo1Kl9mQBrJ5Cjt8B661IgOUAp5dkBVgzn1Fz+swhB8DqUeP4fabTVwzCApbDqTnJzIan8NjXpCvAmtXGsvzOGLboaUTE6ink+P2RYKm9QhrvDocekzx7xJo13DBrPKznHiJWTyHH7ysiVm38SR3YBCyHQ+8UsVpVmNKbm9lWa7mIiCUCXEq+ImK1Gt3KB+QZH7I9kgGWR6VOmlVgXZ1P1aoGZ466t16CmpTKy/FqY6RR3VssUMrcyHMmMLVsuMEedHU+1aqZDYA1iaxVEavVzuoNO7SgVOZzeSWjKvQq1Ui3CizLQmsxRas6aa1DnF0NErEmQGUmVoLVilqlFUQs/zo4edc2Vu3gzNquM1Y9/VmA1wC4sutLqxFujzP7eWFFbalYzlZU25SqUIhaqlg10732UC9L6g4zNXvK+FcvT+ffVa1u3StUxYoCy+xe3RREdqRIlqqVnJ+RULtrVaiKFQlWb/ihxcHViOlhTNUKsDyqdtLMdKxaLcoOHCwvYAnCqWJFR6xs37tVZMQeDbUyqlrJwD9TVTiye15JeOsp1nqYAudvkhpgNhBqG9va/3lzW+uBetcdXnn+8V7AmqUkdj5TALAAIkQBwAqRFaOABQMhCgBWiKwYBSwYCFEAsEJkxShgwUCIAoAVIitGAQsGQhQArBBZMQpYMBCiAGANyppnFNh5NfmDr31cvjLleDArxY/RNiW5dvJr66CBWXkALFFJmz1gK2VqJ6vmBQ2PmFHgmT5jxR2ZcSLKxEGYimDKzFYDzCLDiukqXqByWQFL8Hq0WCPnA0YdgHSUZeSU1WitLH9UhQ54W4tEe7dHRy4lihKxXohvnchecmbUWzgSEc75U/ew6sF6/B2wBLV2EqsX0nMvME8LrhVT3Y/dK1dNK3tebbFq1Et4zHNPt3P5bjXnvVUFllbatF6IqCrx/ExzkEGVV++sjO6A5QwHtbeuVbW1lr9HRK0MVgYq90JXHW1Sk5KIVVHmyqGTVzdIc3L/mswAMpjOwxqAVVBxhzZWbUtFT9SZtV+oAtg5LWBtCNbVnfOsSCt3zysBCFgbgjVjy+pV5wLWohpgbQjWjC2rH10dAtaGYM3asrrWM4rclyrLCVgbglUDQt0EduUWkjTeHV2dR/cKa2Cpm8DOqFIdchWTELE2i1gzT8cCLP9r8fSfdGa+6bNO7PK75/+UM8sx8nxG3k+qzXRI6wOxtdcir5nlGMknYJ1UoyocwejtPYAFWHNIOlkBrIKss8afauNhckN1wPVUhZv1Clvf+VQgZg20DnDVPCmMiX6CojPFmvUBedZ4mCDDf0mJWBtGrBkfkGd8yB4BKt8DWBuCNeMDci3qeeZzXQEKsBrqPfqTTqud5TlVYvWhkyUpiVgbRizLUsTUZLM7sy3YimyAtSlYvQMn7YN06WpF21XVoOULsDYFy7KlLufqHVCpzo640tYCrI3B6p0JmE8y/ZhSqp2ymounjoF5oTKA7O982fZKtQWrlpfSNXOHHEbeOx7sRSEPALstsa/leebMVsBykDHSSz2anemwc3av5i0qn4DlAMuqRNukpHdwd8lUJFS9dqCjaJ8lmZlXwHKqr25utmJvLMByOi8nGwnvq8aHLGpZQ73UYI5uqJdkHNGKNpYA5CqwcpbOp5naxrY5ggjZvpw0g37ZUErJZrXO2tqSqnCGR7DxRgHAAooQBQArRFaMAhYMhCgAWCGyYhSwYCBEgacBS1Un6qOwmo/3kH7mWFmtvLI/RsaXtizIeyAgKI9b+gOwgry90CxgCWLLoVew/WxJAUvwKGD5xQIsv1YJsPxiAZZfK8AStAIsQSwill8swPJrRcQStAIsQSwill8swPJrRcQStAIsQSwill+spwGrtgjTL0U/pW3uYX9cfQW29MfIJ51+UUlxewUA6/YIxAgAWDG63t4qYN0egRgBACtG19tbBazbIxAjAGDF6Hp7q4B1ewRiBACsGF1vbxWwbo9AjACAFaPr7a0C1u0RiBHgXxUFJ8RL+3EwAAAAAElFTkSuQmCC;strokeWidth=2;points=[];labelBackgroundColor=none;rounded=0;html=1;whiteSpace=wrap;" vertex="1" parent="1">
            <mxGeometry x="430.5" y="260" width="35" height="35" as="geometry" />
          </mxCell>
        </UserObject>
        <mxCell id="219CYF1WuWqsUgkXM-5G-88" value="Heart Attack." style="shape=callout;whiteSpace=wrap;html=1;perimeter=calloutPerimeter;position2=0;size=10;position=0.23;fillColor=#dae8fc;strokeColor=#6c8ebf;flipV=0;flipH=1;fontFamily=Comic Sans MS;base=19;" vertex="1" parent="1">
          <mxGeometry x="482" y="371" width="88" height="32" as="geometry" />
        </mxCell>
        <mxCell id="219CYF1WuWqsUgkXM-5G-93" value="intermediate representation" style="text;html=1;align=center;verticalAlign=middle;whiteSpace=wrap;rounded=0;fontFamily=Comic Sans MS;" vertex="1" parent="1">
          <mxGeometry x="465.5" y="261" width="90" height="33" as="geometry" />
        </mxCell>
        <UserObject label="" tags="Background" id="219CYF1WuWqsUgkXM-5G-96">
          <mxCell style="vsdxID=2;fillColor=none;gradientColor=none;image;aspect=fixed;image=data:image/png,iVBORw0KGgoAAAANSUhEUgAAAJ4AAACWCAYAAAAv1jEWAAAAAXNSR0IArs4c6QAAFiBJREFUeF7tnXuMXUUdx3/n3rVULOxC3d0uqLv9x9aAFNQqEoSWECEqL2MiDym7EjVKMBBNVBRbBGOIGhLR+ojSrZVYCEEKSsBHH0jAUCIUxVj+6a6m3e5W7S6tBpDu1e/dzjL3d+d57jlnzr3nnMRIunNm5sx87u81v5mJqHzKEQgwAlGANssmyxGgErwSgiAjUIIXZNjLRkvwSgaCjEAJXpBhLxstwSsZCDICJXhBhr1stASvZCDICJTgBRn2stESvJKBICNQghdk2MtGS/BKBoKMQAlekGEvGy3BKxkIMgIleEGGvWy0BK9kIMgIlODFGPbll64biqiyQbwaEY395YGvjsSoqrCvlODFmHqAV6HKHulVgLc0RlWFfaUETzP1ExMTQ9TVNVSt1YZqtWiIotogitYoGhqfOLhwZO3mM8Wri7uPfem+b67ZLEnAHUeiaIxefXVsYGBgrLB0GT68BI+IAFm1Wl0FwGoRnRsRrTLBsv+fh+iKL/1svsiSxcfRz7/xMc0rNQHe9ohoR19f32gJIhU39X3iwIFVlVlaRRGtjQMC4JMfwOf+1GHcPhtFGwd6e7e7v9c5JQsl8SDZKpWu4biwpTPtxYSw48HLJ2w6hGtjVIs29vf3rksH8vzU2rHgtRdwHIg5AGdnXx3tVOek48CrA1etriWKhtP6fR/+z8t05U13z1ffvWghbbrtyhSa61wAOwq8yckD67Kw3wDeRTfcNQ/am/q6UwJPNNF5KrgjwJuamhquUTS/kpCC6GmoMnvwXgNwNopGOsETbmvwoFajatcGW9wtaRDDgTcP4Gh/X19bL9G1LXj1OFyNtiUNlUt94cFDL2tj7Sz92hK8NGw5BIT3/2MuKLzkjceRKSDMwes94Q1008fPd2G2qczpy06K9d7cS+1r+7UVeEmpVkC28aGn6dnde+vTx1chBAmA4oL3LqPTl53cACIHLy45qP+Oz10S93XpvdrY7JEjq9sp9NI24CWhWh954q/06JO76dnd+7wnG5Bc86GVhP/PH3hHVW8bwdcW4LUKHUC7fXSrVrL5UAjwrv/o2XTt1+71eU1ZNjmJJ3m9bQJf7sFrNVQy+tDOulo1Pd0n9FB3Tzf1nNBD0wenaWZ6hmYOTjuDtejYY+j8M5dby++bmqan/jw+Xy558OYkX0R0S96zYHINXqvQ3fjtLVq1eto7VtDbz1hBb1laT7Nrev62Zw6Q32/dQeK/dWQNDpxID6+/zgre3qlpev+n7kwZvPZwOnILXlrQffDDF9Pg0kGClHN9AN6fntlFz/1xl/KVk/t66Nc/vN5aXXbgHbX5chxsziV4rdp0cCJuH20M8QG0D334Yq2Es1JDVJd8v7z/wSY13L3o9fTEps9bq0gKPHjh8MgvPMum3vMb68sdeK1Cx7ODQQPU6VXXrrGC4Vpg/bfvbICvq1qhXfd92fp6EuDBUYIJgecLw6vd4Muhw5Er8OYyS7rkTTTWyRQxORSEFOAxOUi6z3zOrgatDbECMnxxwUOVulihqj8ydOLv7QpfrsDbP3Vgm+u6KyZh4y93WmNykHQ6B8IXNrl8UuDJdcqxQt43k3eO/R621Psa0fYlfb2rW/nmJN/NDXiu0EGiISbnEgRefurb6LLLP+I1XrDjXEBNAzzRUQ6gyTsX77jA9/8tcrfkJbs5F+C52nUqVWOi6vwPvJ9WnvUeK3jwVuG1irAJVLPN640DnujIzj+P0/p7dtDeqRmC3ad7xDou/5G9+9RB5bt2+PLjbAQHz9WuM0GHmNybhwbp6SefosmJ/fPz+KXbbrZChwLcWTj7vHPofeeda3y3FfDkil0hFO8Aug23riG89+U7H2wC1wW+/r6+4JvPg4PnomJVniomAsCdvfqceenEAXIFDxLvV/c/2ACaTeolBZ7cKEACUDop+JmPnkPXXf7aD6IF+ILn8wUFzyVIrIJOF5Pj4Nng0TkL+He0cdXHr9aq3DTAQ7uAbv09jzUBOHrrGlp5avMqiwo+OBp3fP4So8MxG9HqkJnMQcGbnDpQs+lC7s2ZwiOQWvLqgo9HC/vu7p/8tKk7WOmAZOVPWuCp7MCvX3+xEjq5LFe7dvhqYyFVbjDwJqemNth2gqmknQkmDp6LrSYDhXXZx7c+1gQZvFzYfLK3mzZ4th8k//v3Nu+gLduea1DTNvgiqo2ESiYIAp6rQ4FlLyx/iccGEpdacVYsdPChD6gPGSzH93TTzieeopdfeqneNdcAsi9MvuX94Qsn9YKA5+JQYNBXf/L782PvugLB7TydqjRNqgk+1Xsq8OQslJP7uumkvh5aecogIaFAZav5QqYrHwO+II5G5uDFjdnZpJ2YCA6NzUnQTaAuIcAHPJ13CvguWX0avfvUocQh5OvBor9IsVfv7wgj9TIHz8W2w2Bxp6IVD9UVWhVULgDqJJ4pOCzaAoQ258FHGo7c/NOGZFO8a13PDbCiEQA8uyeLwZKXiVzVrE7q4d8B32lnrLCuSOgmGRnJyEwe3zN33N1Tj/+BXnnlFa2NpwLABNCl560gxOkAYtxH1eY1F72Lhi9aaakye6mXKXiu0g6jhIMPRaZJHCfhru/9iCYnJhsGHPUgJ8+2HOYy8a5erZB6iLftfH6cHtiqTiZFm0IFy0Fil76gDMIpvG6f1PqsPdyMwXOTdtyxQBwNToLLY1ONgA6rHb5ZyLxtV/BUfQaMgASBYtUjlsVcvhdl4FDwunygm2snW6mXGXguqxTyQMserSt4CADb9keINiD98D+oXzy+UrAV8EQfTABC+m249Wqr6oUkHb65MfBtPhpXj3OWqxmZgeeqZlVpTy7gmUIgCxYsmLfHdMPuG3ZJAjwZwJGbNzWt0brAB3j5u252nWIkMnQyMgTPrmZ1GSg2G0+13MXXc20q2NfzTRI8IKCTfi4bibiqta1Y6GVeduo2E/Bc1KxtK6LJxuMq1gQqz70TkxAaPNEPlb1ms/mSlHpZqdtMwLOpWV1at2qNVPVr/cZXbm34Z5fkAEhAhEZenJ6pb+Lma7E2wz5piSe3B8cDXqr88JQo3r/EpF5G6jYr8PYQRUOqyVSpV5+tiFzNutiDNqhc/p4meDpPVZcaJfqLZTo5aG0NHCvNvGz2ZqQOnikhQJdr57MrTGy2FmOITGRVGpMLTD5l0gYPAH3lzgcbViFs9h6Xev4hlezCKqmDZ7LvuF3nu0LhA0rSZWXwqtUKvfNtb25oAkkBJ/V219djT+rrtoZFVP1Trbv6Sj17Knxzy1nYeamDp7PvfHPtkgan1fo4eEeOzBqrjLskxu09m9Tjy2Zx1G0Wu9GyAE9p3/nm2rUKStLvy+AteF2VXvnvEacmkBAACF0flcdqknocVIRWcMKp7lmy+Ph6EoH8ZLEHNwPwmuN3XNrZVKyw49K23xBq+fvY3ClR8HTFA+96cOmQNgPZBzzUCQ8V8LkmBHCYbOEV7mSYIFevcqQfz0sVPF3uHQ+f2GJofBeYrbyrNBHlsOrxp2ees56JBwBxtBmcF1niHbOgi0ZvuXy+WZyl/OwLe2nXC/vq5yqrjrq1hUfkb+C2nq+69QePqL+vN1U2Uq1c51jImSd1CWDZQK3afugTctENPOp9fNtjVuD4+wDw4L8O0qGZF+t/AniPfPcT2vnFD+3RJ3Y3AegDH7fdTOpWlamiV7XqK0/TdjCCgOeb0q5bh20FPp+EAtWkVSoVmp2dcyhs4KEMpN6N39rSBB/O1XNRuVzdQlXDXtQ9uiTUfVMzDUkFuoSCtgZP5dFy+84l4IskzPE943X7ix+OaLMPVRNjgg79wWae7p4empmerme72I6mdQFPB5+r1OPq1mbnmYCU94NoM1lSXsFIVeKpwOMrFb72mkrtusCLiQDAOFhRlTpl64fJDnQFD33g9q3NXhMA+dp5hQZPtZuMn9bpm46EAeXwuUg93YZtW+aLPIG6DJeurgr9Zv2nnH0abuO6qlvZW3UFlneKA9yREk8FHv/Fuyzou6hLceInP2IMsOgO0PaBTvQBUvPuuzY1OCTVSoV++wN38PiKjWtsjzsYrsCaPGR90mgt1W2PaavapuBxK7vH5AHU2Wli0zVsQqFeVeDaVKtJfHFnx0fVol4ePI8Lnm35TPUNzhKPSvCUDPDjKpz1HFH9PGSXwxdNdX7n9jvo34cOO3u1cl1NPz52CpSu3SwlXtqrF5lLPG7jxYEA6g4BXN+HH2vm+75cngeQTXE83k5cVctXJEpVq5nBNJwLlWfaP7CEjll4jHajj+0ylTgAtgKeHMese7qaI8h4v065rDHh9flfuB08WTgbTwVe3HAKPFnE1VSnOclSUw6V4Joo391jrhDGBY9LfB/vVAbP570SvKMjIP/iXTxLVexODKbL+64w+ZSLA54qFcw1gOybKKD7lkI4F7pToZJYq8XAusTvfGASZcVxFfU2NFIzDnjctvORWnz9Ne0ls7Rz8tJ2LpSHL/Jwgi2IrAoYv/2M06wHZPtAB9ieewanvzdmqeicHx/wVFdcoW+u0g5luWNhsgtVO9V0Y6GL46V9pEW64E0eWEcRreUfze08m7oU9h3q4XlxPnDpyupWNepwaDJnbGlR+//5Iu16YUJ52xDqtUmsVhwL7oSYxqgjwTOdheerbpMATFWHCTpX8HwTQX0X+H3UrO58PF+JN3vk1aVpXjWfqsQz7TDjQdQkT3JyhdQUDxSXJ+tOl4qb+u6jXvEdKpBMKx26A3z04DWnvqNsWyeC2s465lKvlWUsV9jkcqplN9cfQFabfbi0szkkXM3GPUelrcHDJJvOO1adIGDLRo4DmOodlbTzWUVx2d6IdnHusc/mHrmvqpOgTE6FSjpu+9GnYwxZuuu06FCqqtYGHv4eSupxT9nm4PDZy2JDNz8FymYbqo6xwL5a3ydtjzYT8GwH9sTZ+IMVDPHEPV6WJxnYQjpZg6c6Vta2tJaUmk077T0T8Gx2Ho/p2dRdXGD4IT08C9lXxacp8VTQ2ZwSlVMR5xSBLByLTMBDI6aro3g033bxnSqYrLtzDHYcdpHxfRoq1WNrNyuJp4LOpmLRNx5gjutUUMp5eGIcU7fxbHaeL3ioj1+iwu+y8AEO9dmkrArUpCWe6pAetGvzYlEmSWnXUeCZAslxwNNtd4Sd1tXVRVvuvd/Jnm5le2SS4Km8VwGdyx0YyUk7orQDx5lKPJOdx208V1vL99onQIb1XTxJLLslAZ5OyrlKOp2009/iY/89ph2/yxQ8k7ptZdeZS/p7K1LNNE1xwRNnHfObFuW2fNZxdSsVXxg+z3hfrfrb0o/fZQ6eTt3yhAHXPbLiA+A4PPa77fPHScgDmuZKiA08sZMfO/fx3/jf08+PN133xAGwea8qYFTwxXEuslKzmXm1aMikbuUgcpxL71RLX3EcBp2EE6dIySdI7d87YbxSyufEJrQbBzi5v6r2fFRu2pt7+Nhm4tWKRic1aVLcwfAJ5qqyS5KQdOJoNJdQTCuX6CFUctv1Fzudn2JS/apz9FDeNZaXxWqF3P9MwdNJPW7n+SxfcTvP513dRPo6Lr7gAbZ3nTJIce4sM8GnUrmud15k5VRkbuPNSz3NlfBx12x5TM83ECxPpOlsFdOEq8BDIBiPOAsZ/53G/bS8X3HsvaylXaY2nhggndSLk6nS6kI/h860V1dskcQeDJwe9cC9989v6M7L1fD4Hl0iqEnlZi3tgoCHRl03AdkcDQ6er0csg6dSr6ZQjM2rNUnItP6mg858AHd2IZRgNp5N6qkOLzQlZnJYfJwSm7Sz2YpZgIcVDderCuJBl36mse5HlqlzIXdC5+Gqjm3VST7uWLiuevDBUK392i55SRs8kXnseoOjfNii+D7bVQMhbLtgzkWj1KtuU101pbvbjJ99wiVenNidyqFwqSct8HTnF+vOSdFJOlsAOeu4Hf+xB5N46IgpSVR3YDXeE5frHT50uCEhIK6qRZ0ibodjaHGhnu1JGjyXvbB8k48OugvPWt50dwX/niySPU1jGBQ8eLhRtWtDRLRK1Uksp90+ulV5XL+q/BsWLaLPfvFGGzOJ/D0J8HAsxZZtu6zLaHKHBXytQJdV6lNuwUPHbBnKKIMMlmd373UCMK6d50tjHPBEgoDLmi36A3WpuqYASQSAlj8uko4o/ctTXMYyqMQTHbTty0A5SL9Hn9xtBbBvoJ+uve6TLt/eUpk44KnuoVV1QrbPdNcUxIOOKLSKDe5c8IGzXaYslweE4uacvVMzdODgvxuqa8XWc6UxafBwxecF711GkFr8scHnfD1oylcIuI4dyuVC4r2mctVeru2D+HKbLfBsq8/l70mBB9AAHOCxPfw7Ud4VutBeLP+23IDnau/pJidL+PhmcNclM65qXaGRv1nO5HF/Px92nfwduQKvFfhUsT/X4yhskkb+uyoNK0vw0Bc4WziNCvl29qc2NhtFIwO9vdvtZbMrkTvw8OkuzoZqiPj+DZQRMb9WT3k3Za70Lz6Otv74BuusJSHxrI2wAnlxJnKtauXO6ZbUbAOvgk8AqDv5yVSnyD42JYQODpxID6+/zta1eggEKxPicQt/WKvVFsgrdOhwLiWeGMm48OmW3ASA4uJjfsysOIIWKe64sA+XtODfbE8ewcszdLkHDx1sBT5V8JVDJE6FdwFMvHvFhWfQzx95Zr4q2Hj9i4+38Vn/u3ydZ1oSL+/QtQV4rdh8rkFnJ2KI6jE2BHcXvX4BXXTDXa6vacslD14+HQnVAORa1coddlla080wArAbH3rauuqheh9wrHjrQENg9/B/Xs4heO0DXdtIPAHEHHzxgsyiDkhBhCIA464X9tH+fxyiJW88rv7nJUfVJUA7fdnJ2g3ReQMvb8FhF1XQNhKvAb5K17DqNHmXD06iDAfvTX3dtOm2K5Oo2r+OHC2D+XS+7cATHxfX6fAZHF3ZfIDXXqqVj2XbgocPseXzJQGZqo7Q4LWjau0o8MTHzK104CKXaCgt2OR6w4HX3lJOHsO2lnhNXm9Gtl/24NXGqBZt7O/vXZfFDyuLNjoGPOb5QvoNpzWAAO+Km+6er75n0cL0nIs2dR5sY99x4OXJ+7UNvv7vnSfhOtLGM01wPfZXV8G1a7KyAUvg7CPQsRKPfzoApK6uoUqtDmBqatg+5LzEnHSbrdD2vOXM+X+L+xuFAY87ItVqdVWN6NwaRUO67ZWmYcTKh/zgODD3p5iwdaRX6z7pzSUhDX1A5Fe86+58nWupNjb3f8WTaqY5KaTEc4FUqOZqrTYEySjegYQcnzi4cGTt5jPFvy3uPval+765ZvNRwMajqDZ2JIrGiqQ6Xca0lHi+o8TKL7903VCFKnukfx77ywNfXdpitYV6vZR4MaYb4EVU2SBejYgA3kiMqgr7SgleYac+7IeX4IUd/8K2XoJX2KkP++EleGHHv7Ctl+AVdurDfngJXtjxL2zrJXiFnfqwH16CF3b8C9t6CV5hpz7sh5fghR3/wrZeglfYqQ/74SV4Yce/sK2X4BV26sN+eAle2PEvbOsleIWd+rAfXoIXdvwL23oJXmGnPuyH/w8uFE14OGFIggAAAABJRU5ErkJggg==;strokeWidth=2;points=[];labelBackgroundColor=none;rounded=0;html=1;whiteSpace=wrap;" vertex="1" parent="1">
            <mxGeometry x="570" y="273" width="40" height="40" as="geometry" />
          </mxCell>
        </UserObject>
        <mxCell id="219CYF1WuWqsUgkXM-5G-99" value="Bingo." style="shape=callout;whiteSpace=wrap;html=1;perimeter=calloutPerimeter;position2=0;size=10;position=0.23;fillColor=#e1d5e7;strokeColor=#9673a6;flipV=0;flipH=0;fontFamily=Comic Sans MS;base=19;" vertex="1" parent="1">
          <mxGeometry x="449.5" y="405" width="88" height="32" as="geometry" />
        </mxCell>
        <mxCell id="219CYF1WuWqsUgkXM-5G-103" value="" style="group" vertex="1" connectable="0" parent="1">
          <mxGeometry x="200" y="130" width="167.38" height="80" as="geometry" />
        </mxCell>
        <mxCell id="219CYF1WuWqsUgkXM-5G-5" value="" style="shape=callout;whiteSpace=wrap;html=1;perimeter=calloutPerimeter;position2=0;size=20;position=0.24;fillColor=#e1d5e7;strokeColor=#9673a6;fontFamily=Comic Sans MS;align=center;" vertex="1" parent="219CYF1WuWqsUgkXM-5G-103">
          <mxGeometry x="35.25" width="124.75" height="70" as="geometry" />
        </mxCell>
        <UserObject label="" tags="Background" id="219CYF1WuWqsUgkXM-5G-11">
          <mxCell style="vsdxID=4;fillColor=none;gradientColor=none;image;aspect=fixed;image=data:image/png,iVBORw0KGgoAAAANSUhEUgAAAJYAAACWCAYAAAA8AXHiAAAAAXNSR0IArs4c6QAAE19JREFUeF7tnXtwFdUdx397kxDIAwghgdBQgkAQEJFHKOoo78EHSlofcZxRSLVVsda2Oh0JVsBHcDqOdgYVnY5NsDMOVK2gglJQElseFZBaLAgqBEUDKA02Ca+Eu53fhr337Lm7d8/eu+fs7r1n/yHce3b3PD73+/ud33kpIC9ZAxxqQOHwTPlIWQMgwQKAhysnTAmDUqbzEAK1iWSjEzK1/z+5epvhc8mPdQ2kDVgReFSYrAKUKQAIUgQmVkhUgAYFoAkU5VAIwg0InQQutvZSFqyayop5gCqkqoMAYB4rOImk02BTlMYwhOolZF01mFJgaTCpMJk3SPHgk5ClCFiJwFSQ30MrfVZmBnTLzIRumRmQlYV/Z8DZznMRbjo6on/j52c7O6H99FnAz8l0cUCrDysZS9JRxQKrWDWVExeDqs6185N0iHK7Z0Nuj24aPG5d7afOQtvpMxps+LcELFoDgQPrPFCL4rUiwlSQl6OBJPJCuI6eaLWCrCmkqNWPr97RIDJPXr0rMGDZAYUwoSrpCuVVheJ74wKmKEvSwcn3PVjxgEJFQmXyA0xmICNgh789EeuPpQFcvgUL407nVGWRAjCFbjQEql/vfOGmLlEVRLgQMoPDn+Jw+RIsK5UKGlAkiKbqpShLald/uDhRYP18n6/AslIp7MmVFvUOjEJZNTgq1sFvjscoVyrC5Ruwzsej6uhGQf8JoUqVy1y5oLp29fb6VCmjbyLvNXMqECjDsEuqqJQZLEdbWuFYS5vhq7CSMTiVAqmeK9aCORWbaAe9uCAP+hXkp9IPOKYsZnCBoizBhPrgNv4dVNg8A+uhykllinqujobqgpLCwPtSrL8IU7iom3HsUTMtitIYpNkUnoFlplTpBJXOz4Hm43bDQQbUgjLI7QlYNFSp7E+xqFdL6yloaTvpZHBbe2wXZLAiDBkNfjOZwsGiY1QI1fAfFrPUf9qk0Qe0cYBbGyJimVGh+KtnKRQsbRanqmwiCUlH85foL0RXNquZFKhgqpJR7Qf1EgYWOush9dxBCVWiWEXv06frnGg9ZT4vzAfqJQws2gSmQ0gheYTsn4A9SzPAvFYvIWDRaoVjfmgC5eVODeBQkT7QbXiihwPdQsCie4HorLs5k9Od5gn+U0zVy6OBbu5g0Q67NIF8AfbLQDd3sGrmVKDDrq3fk6EFvlDpT8fe47GWVk9nUXAFSzrsYkAye4vXA918wZJq5R1ZAGACV33tmu3VIjLFDSy6Jyh9KxHNGfsO7C2iadQvUdNzuIFFm0HZE/QGLNqZx/jW0jXbp/LODTewyBCDdNp5N2P858eYRAGReS5gSTPoLUhmb9/35TGyl9gUVjKm8hxT5AIWbQZHX1Div5pOsxzRqhVS1Kk8V2VzAUuaQX9Sa1AtzhF518GSZtAZVOhcixreInuIvJ147mDJ+VbWoOnTknFQHpe48QYMww4Il4jQg+tg0esDpX9lDpZZZBzXUBYX5HMFbPeB5miGOJpDDmBp+1Zp2wzJMIM5VDhRD9XK6tJXffNQMNLP4mkO3QeLWHwqwYpFB30qbFzyyswKQWdH2PAZL/NIKyWvSLzrYJE9QjmMYwTLTKmGjy6FS8aWw7q3tkJrS3ToRb8T1cvNbZroPAQGrJo5FapeKRKsKFhmUJX8sA/c/YsfRxKt/msj7N55gKt6xSgmpyi8q4pFhxrc/rU568j7J7WZo55f0AMeXHBrTCYPHz4Gb6xqhO+O/o+baTTGs/gsG5NgceTPai66FVRkVt5dtxV2bN0HHWeiOze75XdRwztcptJwBSudY1h0zEiHBn2qW2+bxYQzqlf9i+sMcGGHaPCAwqRCEtSyfgkWU2t4nCjexrbX33QZjK8Y4SiHPOASEYGXiuWoma0TWy7BAgA0fbfcNgNKSxPbSsAMrmQ6RrTPV7tmu6scYC25+kDaeU8HU4gKhRt6kLM0Sfwumz4KZs2alDS+rW3tsOz3r8OZ0x2RZyU6eZI20xKspJvHvQfY7aMw8IIiuPPu6917IQCgctUtXxsJRyTqb0nFcrVZkn8YwtSOR5zQW2sTj0agrpo9KWGzZ5fLV/68HvbtPhxJlohJDDxYqRDHYoEJW7lvSU+YPnMCjLxosB0bSX3vhkmUYCXVBM5uJlXITpXIJ/NWKLNS7Ny+F958dUvCqkWB1VS7ZrvrvwZXnXcsKbny2cuttLGX1gVLJ3ScPypOPxmCPi7OGYIAvYpyYOSoMrjqmkud3upa+qeWvhIZW3S6yYoEy0EzsJosB480JEVl6lvcCyp/gudsen9hZH5rw56EeohBBSuyZ7vTX5KT5uINEg4Q9x/QB0ZeVAbl5Xj6r78u9LWeenRlQuZQgmXSllYbjcVr9qzsDMjKzoSc3GzIysqEzMwM7W/96lPYE4qKekN+rxwoLiqE3gV5/qLIIje1j7wciWs5+REHE6yuc5kjR5e4MTXZ5oBJQ7Wj0vTslQMDBhTB0OGl3Lr9fiDvtVXvw+6d0d03WQOm5Fghr1mkrjvv9H5YrIW1aih67wE6HXbzBw4qhgkTR6Q0RGb1s+eTg7Dq5fcjX7GOdARuEBpL6NacLKvZAfiOnJ7ZMHzkQN840l6pF+1nscYNRSyocF2xsJKTDTlYndbgRczIK2hY3/vYwrrIEA8LWIGcQapXBgmWE6fSaoYAKtR1lZdzj2qzNqaf0j3+u/rIfC2WuCENFq+l9rwUy3BMHKufZaZUM2aPgyuuHOuntvRVXshAKQtYohat8gGL6hmygEU76ahSM2aNdzwxzletLiAzy555Fb5r7pofz2IdRIQaMC9cwDrvZ0VW69jZfnoFS3b3LKh59HYBzRL8V7zw7BvQ/OV/mcGirAKXcULeYEV2S7aTaLKXgos3q+ZO82W0248YkmCxLBAW0SPkDRbT0A7tTI4ePxhurJrmxzb0ZZ6cgBXbI1SW8DronJ8pZPSz6LlBDz5yC+Tn5fqyEf2YKSdg0Y47rx4hV8Wi41lWMx1Jmy99K+foOgFLlOMuFCyrHgsJFstCTudVn9p3OAFLlOMuAizbeJYEKznwWcES6V9xB4sekDYLO0iwxIAl0r/iDhbtZ5mZQwmWGLBE+ldiwKqM7vCHL6Sj8BIsMWCR8Stec7DIknALN+gvsTOHEiz+YIn2r4Qolp05lGC5B5ZVz1vEOkK6FNwVSwMrjjkkwSromwe/+m1VcjWdZnezjBXSx53wWEfoCVjxDhWQYCX3S7ADywszKMwU4ovoY1D0zcNIsOg9OZOr8vS42w4sL8ygULDogwX0mJYEK7kfgB1YXphBoWBZOfESLH5geWUGvQArZogHZ47iRD+8kjWFzcdPwa59x6H5+EkoKcyBkr49YGx5YXItx+nuzf8+Cnubvoe2Ux3QO68bjB7SB8Zf6Dyv8RRLdFBUaBxLf9nyh64qaznWWtl2/Owz+mc446H99NmkwUKgald8DB/tiz1GpKSwByx74FLAf/1wbdl9DJ57fS80NbfFZOfiIQVwf9UouHBQL+asWoFFq1W3HhkrFq/cNo/5wUkmFBJueK5mxmIFQDtf58j+VsOOdPiZvgtMIoqFUN1YE120aVYfCNXCeWM8V68NH34Di1/aFbfJsrMy4On7J8Ilw/owNa0VWLTT3r88HzKzlCYVlBX31m5czPTwJBJxB+v5BTM2gQJT9Dy2nzgLLV/HHu2RqCm87+ltpkpF1wnC9VqtdzNTv/nuJNy0cBNTU5UW58LKR6eAwtA6VmCRTnt2biYUlRGTJ1VomL90I9cDxxmyzlQXpolIpSITkKpFfu5UsdZtOQxPrPiYOYM/nT0M7riunDm9mwn/sOo/8Or7TcyPvL9qJNw8zX4/NDOwzNUqZHi3CrCEp3JxBev5mukHAZQyvUSTL58A5UPLYP3af8KWxk9iKtkpWAgVwsV6jRteCMt+k/wOxqzvI9NVPdwAh79tZ771R6OK4OlfTrRNbwYWqVYDy4qh6vZp0HzkW2jcvIN4nto0v/Y9e3Jtc2CegBtYz9XMnKeAGtl1ZtyYkTD+kpGRXDyzdBWcaDE6sE7BQt8KfSzWy0tzePlda1mzqaVDc7jqsYgHYXkvDVZu925wjKjXXy+oimzLtP/zJgNcSgim3vP4xgZHGWNMLAysW2642rBIYtOGj6Bhg9GRdQoWq39F1sXmF69lrBp3k4kAC5d/6R0hzP2UmWNh6sxxkYLgJiIrX38n8n8VlOp7azfUu1vSrqdxBCvaE8QX/WzujYb8o1rVvbDWoFpOwXrprf3wp7c/Y66Xay4rhYVzxzCndzPhnUs3w96m6HnMds+eWTEAFt9pv7UAqVjkM3HzOFQr+vrjitcIsPj5WZ6BhaVb/ZcPYNeOKBhOwWIJNZAV++wDkzwLObzytwNa/Ir1euKu8TBlXH/b5FZgVd91DZQNKbEBK4CKtfzhGVPUMET617NnTYaS/kWGgjZ90Qx1L66LfOYULLyRVbW8dNz1AlY//nfY/5XxHEIzcq4Y0w+enD/BFipMYAaWFVTowL+9vjHYphAj7WqoM7KPIe2866UjN7UYPLwfzLtjNlOF6olQtdZt+SquSfRL9P3QkTZ4cNl2wJiW1XXx0D7w1H0VkNs9k6ke6l96Gw7uOxpJW3nzlTB2wjDTe2Oc93Dm4HuefJc9BsKUo65E3EwhPpwMN6BaoWrRF/6CPv/0a+3jsRPKAUMSiVyoXO9sPWzoJSJQV19a6lnsyqwcbSc74IXV++DNf3wJ585F9k2BvJwsuGHyIPh55XBHxccQwq4d+7V7hl74A9M61h+IdY2qpV/zazdya39uD8bML6+ZXqeCEhmfMjOHZGExxpUoWKSCHTl+0jNfipWKjs4wfHroe2g/1Qm98rJgRFlv1lsN6RAsVCK8rH68+B1tBhVQ6++pfa86oZcy3MQXLMocmhXcbbAYypxSSVjBotVK4WgGuZtCzRxSY4W0akmwkuOcBSxarSDoY4WaOaRUC3eSuXbWlZFgqQSLL1h0UFRTE44Rd700XE2h/hJ6MBrhwkg8XhgJxsLj5YaPlVwzBe9uO8WiTSDvwWehYGmqpXTWkdNn0N9CR33t+g8kWEnwTIJD+rD4Y0XoyF6gCBMoFKyoSezYRM52QOXq6OiE02fOSMVKEC4zsGJ8Ku3ZapMSUqp5DTrT2RdiCvWXdvlbRrhCIQXC4a54jjSFzukiwcIfal5ejlGlPIBKSK+QriozuPQ0EqzkwDK/W21SwllTeUXYrXIsVLFI5QqHOufp8+AlWM6B0u+gnXPySaIcdbPcewKW0TR27gYA7YBAqVjOAYsFS9UWTITCmfWiVYrMvadgYUbI8UQJVtJgbZtfu9G7g6qJ7EuwnLelr+4wKJaAiDpr4b0HixjyiTeIylqgdEtHgsV7YNlJ3XoOFhmVJyPyTgqRzmnJkQsJFkECPdOUXnSRztCwlF3UHHaWvPjKeacHqc3mbDktVDqlN4LFbw670zr13BSyTmF2WrB0SC9yOZfT+vQcLC3kIB14p+2mpRc5h91pBn0BFj2tRppDtmYkp8zgHTznsLPlKJrKF2BJc+i02brSk/6Vn3qEmDdfgCXNoXOwaDPIc7m889z5CCxpDp01n5/NoK8UizaHctzQGjS6N+g3M+grsGhziFF4nLpML8t39rtOzdS0WolYHOG0Jn3jY2HGpWrZN18Q1Mp3iiVVyx6smIWnApZy2ecqNoWvFMtMteTAdLTRvFh4mghUvlQsDS5qzwernWoSLXQQ7/Nq4WmideU7xYqqVnQ1j3TkQdvXilwj6OV8dhbYfAmWBhe1cRu9NJ+lcKmSZue/9sBHH++JFsdHM0Wt6ti3YGGG4y3NTxVo7MphtviU904xdnli+d7XYJktzU8nZ94UKp/2AmnYfA2Wmb+Fn6VDVN4MKr+NB8ZTLt+DZQVXKi+8MFUqzjvwsZg3J2kCAZYVXKno0NOzFrTGDICzHjhTSGaYHvLB7xCucWNGaOYx6FdM7y+gUGG2A6NYOjRmm4ogXMOGDDKc1RM0yMz2YPDjrAXWeg0cWLpZhFDHInJHZl29yG0oWSvBy3SmG6Rp1o/fcSQiyhtIsHS4zHasCZJ6mZo+QXuE8oYrsGDpFWN12Kafh4GsVEr0rns84Qo8WPHUS495oXOPoPnhslSpgIUT7OoyJcCKqhcevhleRO5zqvteGPfyEjD9hFN9h+how4jdG9QOCLe+Tymw7NTLC//L2uwFMz7FCl7KgUWGJcyce908Jntmj10FI1D7Pz9knJUQualr1z2eh33b5Y/39ykLliHuRe0xr5tH/RADtyvZfDvsrrcEPYzAWlcpD5YBMGorcB5DQlbOeboApdd32oCl+1/0PvNu+V1xQwgebIfNqiy80qUVWFZw4ec4r7586KCEwhJWpi/dVIqENO3A0uGyGhLCsET5kEG2C2V15/yzLw5FzgJK9RCCE3VLS7DswhK6c4/Hh+iB1bzcHGhr7zrLGRUqNh51vtoDOMXFCTCsadMWLLteI2sFkiqV6iEEJ3WS9mCRgJmZR/vKTP2YlH0dxKaQYFF1gvO9ILOzDMLqXFVVumYPKmp0FqGqaCd7qwo0hkLQIOqYtkQa18t7JFhe1n4Kv1uClcKN62XR/g95/OE8KHgB7wAAAABJRU5ErkJggg==;strokeWidth=2;points=[];labelBackgroundColor=none;rounded=0;html=1;whiteSpace=wrap;" vertex="1" parent="219CYF1WuWqsUgkXM-5G-103">
            <mxGeometry y="40" width="40" height="40" as="geometry" />
          </mxCell>
        </UserObject>
        <mxCell id="219CYF1WuWqsUgkXM-5G-102" value="&lt;div style=&quot;font-family: &amp;quot;Comic Sans MS&amp;quot;;&quot;&gt;Why did the&amp;nbsp;&lt;span style=&quot;background-color: transparent; color: light-dark(rgb(0, 0, 0), rgb(255, 255, 255));&quot;&gt;director&amp;nbsp;&lt;/span&gt;&lt;/div&gt;&lt;div style=&quot;font-family: &amp;quot;Comic Sans MS&amp;quot;;&quot;&gt;&lt;span style=&quot;background-color: transparent; color: light-dark(rgb(0, 0, 0), rgb(255, 255, 255));&quot;&gt;of&amp;nbsp;&lt;/span&gt;&lt;span style=&quot;background-color: transparent; color: light-dark(rgb(0, 0, 0), rgb(255, 255, 255));&quot;&gt;film The Dalton&amp;nbsp;&lt;/span&gt;&lt;/div&gt;&lt;div style=&quot;font-family: &amp;quot;Comic Sans MS&amp;quot;;&quot;&gt;Girls die?&lt;/div&gt;" style="text;html=1;align=center;verticalAlign=middle;whiteSpace=wrap;rounded=0;" vertex="1" parent="219CYF1WuWqsUgkXM-5G-103">
          <mxGeometry x="32.629999999999995" width="134.75" height="50" as="geometry" />
        </mxCell>
        <mxCell id="219CYF1WuWqsUgkXM-5G-104" value="" style="group" vertex="1" connectable="0" parent="1">
          <mxGeometry x="407" y="130" width="167.38" height="80" as="geometry" />
        </mxCell>
        <mxCell id="219CYF1WuWqsUgkXM-5G-105" value="" style="shape=callout;whiteSpace=wrap;html=1;perimeter=calloutPerimeter;position2=0;size=20;position=0.24;fillColor=#e1d5e7;strokeColor=#9673a6;fontFamily=Comic Sans MS;align=center;" vertex="1" parent="219CYF1WuWqsUgkXM-5G-104">
          <mxGeometry x="35.25" width="124.75" height="70" as="geometry" />
        </mxCell>
        <UserObject label="" tags="Background" id="219CYF1WuWqsUgkXM-5G-106">
          <mxCell style="vsdxID=4;fillColor=none;gradientColor=none;image;aspect=fixed;image=data:image/png,iVBORw0KGgoAAAANSUhEUgAAAJYAAACWCAYAAAA8AXHiAAAAAXNSR0IArs4c6QAAE19JREFUeF7tnXtwFdUdx397kxDIAwghgdBQgkAQEJFHKOoo78EHSlofcZxRSLVVsda2Oh0JVsBHcDqOdgYVnY5NsDMOVK2gglJQElseFZBaLAgqBEUDKA02Ca+Eu53fhr337Lm7d8/eu+fs7r1n/yHce3b3PD73+/ud33kpIC9ZAxxqQOHwTPlIWQMgwQKAhysnTAmDUqbzEAK1iWSjEzK1/z+5epvhc8mPdQ2kDVgReFSYrAKUKQAIUgQmVkhUgAYFoAkU5VAIwg0InQQutvZSFqyayop5gCqkqoMAYB4rOImk02BTlMYwhOolZF01mFJgaTCpMJk3SPHgk5ClCFiJwFSQ30MrfVZmBnTLzIRumRmQlYV/Z8DZznMRbjo6on/j52c7O6H99FnAz8l0cUCrDysZS9JRxQKrWDWVExeDqs6185N0iHK7Z0Nuj24aPG5d7afOQtvpMxps+LcELFoDgQPrPFCL4rUiwlSQl6OBJPJCuI6eaLWCrCmkqNWPr97RIDJPXr0rMGDZAYUwoSrpCuVVheJ74wKmKEvSwcn3PVjxgEJFQmXyA0xmICNgh789EeuPpQFcvgUL407nVGWRAjCFbjQEql/vfOGmLlEVRLgQMoPDn+Jw+RIsK5UKGlAkiKbqpShLald/uDhRYP18n6/AslIp7MmVFvUOjEJZNTgq1sFvjscoVyrC5Ruwzsej6uhGQf8JoUqVy1y5oLp29fb6VCmjbyLvNXMqECjDsEuqqJQZLEdbWuFYS5vhq7CSMTiVAqmeK9aCORWbaAe9uCAP+hXkp9IPOKYsZnCBoizBhPrgNv4dVNg8A+uhykllinqujobqgpLCwPtSrL8IU7iom3HsUTMtitIYpNkUnoFlplTpBJXOz4Hm43bDQQbUgjLI7QlYNFSp7E+xqFdL6yloaTvpZHBbe2wXZLAiDBkNfjOZwsGiY1QI1fAfFrPUf9qk0Qe0cYBbGyJimVGh+KtnKRQsbRanqmwiCUlH85foL0RXNquZFKhgqpJR7Qf1EgYWOush9dxBCVWiWEXv06frnGg9ZT4vzAfqJQws2gSmQ0gheYTsn4A9SzPAvFYvIWDRaoVjfmgC5eVODeBQkT7QbXiihwPdQsCie4HorLs5k9Od5gn+U0zVy6OBbu5g0Q67NIF8AfbLQDd3sGrmVKDDrq3fk6EFvlDpT8fe47GWVk9nUXAFSzrsYkAye4vXA918wZJq5R1ZAGACV33tmu3VIjLFDSy6Jyh9KxHNGfsO7C2iadQvUdNzuIFFm0HZE/QGLNqZx/jW0jXbp/LODTewyBCDdNp5N2P858eYRAGReS5gSTPoLUhmb9/35TGyl9gUVjKm8hxT5AIWbQZHX1Div5pOsxzRqhVS1Kk8V2VzAUuaQX9Sa1AtzhF518GSZtAZVOhcixreInuIvJ147mDJ+VbWoOnTknFQHpe48QYMww4Il4jQg+tg0esDpX9lDpZZZBzXUBYX5HMFbPeB5miGOJpDDmBp+1Zp2wzJMIM5VDhRD9XK6tJXffNQMNLP4mkO3QeLWHwqwYpFB30qbFzyyswKQWdH2PAZL/NIKyWvSLzrYJE9QjmMYwTLTKmGjy6FS8aWw7q3tkJrS3ToRb8T1cvNbZroPAQGrJo5FapeKRKsKFhmUJX8sA/c/YsfRxKt/msj7N55gKt6xSgmpyi8q4pFhxrc/rU568j7J7WZo55f0AMeXHBrTCYPHz4Gb6xqhO+O/o+baTTGs/gsG5NgceTPai66FVRkVt5dtxV2bN0HHWeiOze75XdRwztcptJwBSudY1h0zEiHBn2qW2+bxYQzqlf9i+sMcGGHaPCAwqRCEtSyfgkWU2t4nCjexrbX33QZjK8Y4SiHPOASEYGXiuWoma0TWy7BAgA0fbfcNgNKSxPbSsAMrmQ6RrTPV7tmu6scYC25+kDaeU8HU4gKhRt6kLM0Sfwumz4KZs2alDS+rW3tsOz3r8OZ0x2RZyU6eZI20xKspJvHvQfY7aMw8IIiuPPu6917IQCgctUtXxsJRyTqb0nFcrVZkn8YwtSOR5zQW2sTj0agrpo9KWGzZ5fLV/68HvbtPhxJlohJDDxYqRDHYoEJW7lvSU+YPnMCjLxosB0bSX3vhkmUYCXVBM5uJlXITpXIJ/NWKLNS7Ny+F958dUvCqkWB1VS7ZrvrvwZXnXcsKbny2cuttLGX1gVLJ3ScPypOPxmCPi7OGYIAvYpyYOSoMrjqmkud3upa+qeWvhIZW3S6yYoEy0EzsJosB480JEVl6lvcCyp/gudsen9hZH5rw56EeohBBSuyZ7vTX5KT5uINEg4Q9x/QB0ZeVAbl5Xj6r78u9LWeenRlQuZQgmXSllYbjcVr9qzsDMjKzoSc3GzIysqEzMwM7W/96lPYE4qKekN+rxwoLiqE3gV5/qLIIje1j7wciWs5+REHE6yuc5kjR5e4MTXZ5oBJQ7Wj0vTslQMDBhTB0OGl3Lr9fiDvtVXvw+6d0d03WQOm5Fghr1mkrjvv9H5YrIW1aih67wE6HXbzBw4qhgkTR6Q0RGb1s+eTg7Dq5fcjX7GOdARuEBpL6NacLKvZAfiOnJ7ZMHzkQN840l6pF+1nscYNRSyocF2xsJKTDTlYndbgRczIK2hY3/vYwrrIEA8LWIGcQapXBgmWE6fSaoYAKtR1lZdzj2qzNqaf0j3+u/rIfC2WuCENFq+l9rwUy3BMHKufZaZUM2aPgyuuHOuntvRVXshAKQtYohat8gGL6hmygEU76ahSM2aNdzwxzletLiAzy555Fb5r7pofz2IdRIQaMC9cwDrvZ0VW69jZfnoFS3b3LKh59HYBzRL8V7zw7BvQ/OV/mcGirAKXcULeYEV2S7aTaLKXgos3q+ZO82W0248YkmCxLBAW0SPkDRbT0A7tTI4ePxhurJrmxzb0ZZ6cgBXbI1SW8DronJ8pZPSz6LlBDz5yC+Tn5fqyEf2YKSdg0Y47rx4hV8Wi41lWMx1Jmy99K+foOgFLlOMuFCyrHgsJFstCTudVn9p3OAFLlOMuAizbeJYEKznwWcES6V9xB4sekDYLO0iwxIAl0r/iDhbtZ5mZQwmWGLBE+ldiwKqM7vCHL6Sj8BIsMWCR8Stec7DIknALN+gvsTOHEiz+YIn2r4Qolp05lGC5B5ZVz1vEOkK6FNwVSwMrjjkkwSromwe/+m1VcjWdZnezjBXSx53wWEfoCVjxDhWQYCX3S7ADywszKMwU4ovoY1D0zcNIsOg9OZOr8vS42w4sL8ygULDogwX0mJYEK7kfgB1YXphBoWBZOfESLH5geWUGvQArZogHZ47iRD+8kjWFzcdPwa59x6H5+EkoKcyBkr49YGx5YXItx+nuzf8+Cnubvoe2Ux3QO68bjB7SB8Zf6Dyv8RRLdFBUaBxLf9nyh64qaznWWtl2/Owz+mc446H99NmkwUKgald8DB/tiz1GpKSwByx74FLAf/1wbdl9DJ57fS80NbfFZOfiIQVwf9UouHBQL+asWoFFq1W3HhkrFq/cNo/5wUkmFBJueK5mxmIFQDtf58j+VsOOdPiZvgtMIoqFUN1YE120aVYfCNXCeWM8V68NH34Di1/aFbfJsrMy4On7J8Ilw/owNa0VWLTT3r88HzKzlCYVlBX31m5czPTwJBJxB+v5BTM2gQJT9Dy2nzgLLV/HHu2RqCm87+ltpkpF1wnC9VqtdzNTv/nuJNy0cBNTU5UW58LKR6eAwtA6VmCRTnt2biYUlRGTJ1VomL90I9cDxxmyzlQXpolIpSITkKpFfu5UsdZtOQxPrPiYOYM/nT0M7riunDm9mwn/sOo/8Or7TcyPvL9qJNw8zX4/NDOwzNUqZHi3CrCEp3JxBev5mukHAZQyvUSTL58A5UPLYP3af8KWxk9iKtkpWAgVwsV6jRteCMt+k/wOxqzvI9NVPdwAh79tZ771R6OK4OlfTrRNbwYWqVYDy4qh6vZp0HzkW2jcvIN4nto0v/Y9e3Jtc2CegBtYz9XMnKeAGtl1ZtyYkTD+kpGRXDyzdBWcaDE6sE7BQt8KfSzWy0tzePlda1mzqaVDc7jqsYgHYXkvDVZu925wjKjXXy+oimzLtP/zJgNcSgim3vP4xgZHGWNMLAysW2642rBIYtOGj6Bhg9GRdQoWq39F1sXmF69lrBp3k4kAC5d/6R0hzP2UmWNh6sxxkYLgJiIrX38n8n8VlOp7azfUu1vSrqdxBCvaE8QX/WzujYb8o1rVvbDWoFpOwXrprf3wp7c/Y66Xay4rhYVzxzCndzPhnUs3w96m6HnMds+eWTEAFt9pv7UAqVjkM3HzOFQr+vrjitcIsPj5WZ6BhaVb/ZcPYNeOKBhOwWIJNZAV++wDkzwLObzytwNa/Ir1euKu8TBlXH/b5FZgVd91DZQNKbEBK4CKtfzhGVPUMET617NnTYaS/kWGgjZ90Qx1L66LfOYULLyRVbW8dNz1AlY//nfY/5XxHEIzcq4Y0w+enD/BFipMYAaWFVTowL+9vjHYphAj7WqoM7KPIe2866UjN7UYPLwfzLtjNlOF6olQtdZt+SquSfRL9P3QkTZ4cNl2wJiW1XXx0D7w1H0VkNs9k6ke6l96Gw7uOxpJW3nzlTB2wjDTe2Oc93Dm4HuefJc9BsKUo65E3EwhPpwMN6BaoWrRF/6CPv/0a+3jsRPKAUMSiVyoXO9sPWzoJSJQV19a6lnsyqwcbSc74IXV++DNf3wJ585F9k2BvJwsuGHyIPh55XBHxccQwq4d+7V7hl74A9M61h+IdY2qpV/zazdya39uD8bML6+ZXqeCEhmfMjOHZGExxpUoWKSCHTl+0jNfipWKjs4wfHroe2g/1Qm98rJgRFlv1lsN6RAsVCK8rH68+B1tBhVQ6++pfa86oZcy3MQXLMocmhXcbbAYypxSSVjBotVK4WgGuZtCzRxSY4W0akmwkuOcBSxarSDoY4WaOaRUC3eSuXbWlZFgqQSLL1h0UFRTE44Rd700XE2h/hJ6MBrhwkg8XhgJxsLj5YaPlVwzBe9uO8WiTSDvwWehYGmqpXTWkdNn0N9CR33t+g8kWEnwTIJD+rD4Y0XoyF6gCBMoFKyoSezYRM52QOXq6OiE02fOSMVKEC4zsGJ8Ku3ZapMSUqp5DTrT2RdiCvWXdvlbRrhCIQXC4a54jjSFzukiwcIfal5ejlGlPIBKSK+QriozuPQ0EqzkwDK/W21SwllTeUXYrXIsVLFI5QqHOufp8+AlWM6B0u+gnXPySaIcdbPcewKW0TR27gYA7YBAqVjOAYsFS9UWTITCmfWiVYrMvadgYUbI8UQJVtJgbZtfu9G7g6qJ7EuwnLelr+4wKJaAiDpr4b0HixjyiTeIylqgdEtHgsV7YNlJ3XoOFhmVJyPyTgqRzmnJkQsJFkECPdOUXnSRztCwlF3UHHaWvPjKeacHqc3mbDktVDqlN4LFbw670zr13BSyTmF2WrB0SC9yOZfT+vQcLC3kIB14p+2mpRc5h91pBn0BFj2tRppDtmYkp8zgHTznsLPlKJrKF2BJc+i02brSk/6Vn3qEmDdfgCXNoXOwaDPIc7m889z5CCxpDp01n5/NoK8UizaHctzQGjS6N+g3M+grsGhziFF4nLpML8t39rtOzdS0WolYHOG0Jn3jY2HGpWrZN18Q1Mp3iiVVyx6smIWnApZy2ecqNoWvFMtMteTAdLTRvFh4mghUvlQsDS5qzwernWoSLXQQ7/Nq4WmideU7xYqqVnQ1j3TkQdvXilwj6OV8dhbYfAmWBhe1cRu9NJ+lcKmSZue/9sBHH++JFsdHM0Wt6ti3YGGG4y3NTxVo7MphtviU904xdnli+d7XYJktzU8nZ94UKp/2AmnYfA2Wmb+Fn6VDVN4MKr+NB8ZTLt+DZQVXKi+8MFUqzjvwsZg3J2kCAZYVXKno0NOzFrTGDICzHjhTSGaYHvLB7xCucWNGaOYx6FdM7y+gUGG2A6NYOjRmm4ogXMOGDDKc1RM0yMz2YPDjrAXWeg0cWLpZhFDHInJHZl29yG0oWSvBy3SmG6Rp1o/fcSQiyhtIsHS4zHasCZJ6mZo+QXuE8oYrsGDpFWN12Kafh4GsVEr0rns84Qo8WPHUS495oXOPoPnhslSpgIUT7OoyJcCKqhcevhleRO5zqvteGPfyEjD9hFN9h+how4jdG9QOCLe+Tymw7NTLC//L2uwFMz7FCl7KgUWGJcyce908Jntmj10FI1D7Pz9knJUQualr1z2eh33b5Y/39ykLliHuRe0xr5tH/RADtyvZfDvsrrcEPYzAWlcpD5YBMGorcB5DQlbOeboApdd32oCl+1/0PvNu+V1xQwgebIfNqiy80qUVWFZw4ec4r7586KCEwhJWpi/dVIqENO3A0uGyGhLCsET5kEG2C2V15/yzLw5FzgJK9RCCE3VLS7DswhK6c4/Hh+iB1bzcHGhr7zrLGRUqNh51vtoDOMXFCTCsadMWLLteI2sFkiqV6iEEJ3WS9mCRgJmZR/vKTP2YlH0dxKaQYFF1gvO9ILOzDMLqXFVVumYPKmp0FqGqaCd7qwo0hkLQIOqYtkQa18t7JFhe1n4Kv1uClcKN62XR/g95/OE8KHgB7wAAAABJRU5ErkJggg==;strokeWidth=2;points=[];labelBackgroundColor=none;rounded=0;html=1;whiteSpace=wrap;" vertex="1" parent="219CYF1WuWqsUgkXM-5G-104">
            <mxGeometry y="40" width="40" height="40" as="geometry" />
          </mxCell>
        </UserObject>
        <mxCell id="219CYF1WuWqsUgkXM-5G-107" value="&lt;div style=&quot;font-family: &amp;quot;Comic Sans MS&amp;quot;;&quot;&gt;Why did the&amp;nbsp;&lt;span style=&quot;background-color: transparent; color: light-dark(rgb(0, 0, 0), rgb(255, 255, 255));&quot;&gt;director&amp;nbsp;&lt;/span&gt;&lt;/div&gt;&lt;div style=&quot;font-family: &amp;quot;Comic Sans MS&amp;quot;;&quot;&gt;&lt;span style=&quot;background-color: transparent; color: light-dark(rgb(0, 0, 0), rgb(255, 255, 255));&quot;&gt;of&amp;nbsp;&lt;/span&gt;&lt;span style=&quot;background-color: transparent; color: light-dark(rgb(0, 0, 0), rgb(255, 255, 255));&quot;&gt;film The Dalton&amp;nbsp;&lt;/span&gt;&lt;/div&gt;&lt;div style=&quot;font-family: &amp;quot;Comic Sans MS&amp;quot;;&quot;&gt;Girls die?&lt;/div&gt;" style="text;html=1;align=center;verticalAlign=middle;whiteSpace=wrap;rounded=0;" vertex="1" parent="219CYF1WuWqsUgkXM-5G-104">
          <mxGeometry x="32.629999999999995" width="134.75" height="50" as="geometry" />
        </mxCell>
        <UserObject label="" tags="Background" id="219CYF1WuWqsUgkXM-5G-108">
          <mxCell style="vsdxID=1;fillColor=none;gradientColor=none;image;aspect=fixed;image=data:image/png,iVBORw0KGgoAAAANSUhEUgAAAJYAAACWCAYAAAA8AXHiAAAAAXNSR0IArs4c6QAAEPhJREFUeF7tnc2PHUcRwGu86w0iH1Jiy4YEFBth4pO1UhxhFJvYBy7JIZyRwLFyQxwCEgoXlKw4QISEckBIHKI48A+QQ3Lh4A1rhKXY0sri4BCEN0IJGNmJhBNE7N0M1Lzp93pqqrur502/15NX75J4X0+/nupfV1VXd1cXoB+VQAIJFAnq1CpVAqBgKQRJJKBgJRGrVqpgKQNJJKBgJRGrVqpgKQNJJKBgJRGrVqpgKQNJJKBgJRGrVqpgKQNJJKBgJRGrVqpgKQNJJKBgJRGrVqpgKQNJJKBgJRGrVqpgKQNJJKBgJRGrVqpgORg4unr8pASPZVjeurC5viUpu0hlFCymt4+tnjywDTtXJSAsw9JBBastKQWLoWekrYpzErAKgDNvbm6clZRdpDIKFtPbj6yeeKoEeFkCgoLFS0nBYjXW158HKJ+bfFWeahabaLMS4OylzY0zEggXqYyCxfT2w6snXi4AnsKvSoCtS5sbB+1iD6+euFoAHKj/tn5xc4OAt0gIqcYS9/bR1RPoX5lZYQsc+3sOPPEPfYoLLoTGGs3yto2GgYub59d9fdrUSMXaxc0/PE801lij4d9DM0M7dLEo4YmFAOvoatNnuri54X3vo6snyglIbbCocx8Ga1LfovhkChZRXe0YVnmKajgKVmhmaIOqYGVs/7HzY4KSMRqLgsVpNxrnSg1W7Pvm0HWD01joOP9/1B/YDUunpHAhCAUUYx/LF9C0tZHPMY/RQlin6ewSyq2Qj2eD0eV9FaxICZDZGiae6CXqjRphB3ZOlgCnrdkgG2owTSYhB/zzOkDxBsAn63046DgYSihwklANCIQ8ZjBFirb34oPRWBSqiQaAs7thaU2qvcxzqEU+AXgMQbJiUg0B+/whV3usCtYByrUukFHTbb3rYOAaBFihTowZza5Oc4T5WqEGS2M1Qg6BIb++DEtnJPD3+a69q6GICrMHiwoaIRqZnbam8ZnG0PofaieU2y6AN5ZgaV0CwSQ+tuskQPkY+n4u7VebM6d2rScEuIxEtusUayWUp+16YwZSBAu9Fs0aLA6qAsoz6PxSH8SOOy3DrrMGjNrkPcd1OMIUA5JE8iNAdp2kMNjP4gCw4XVDPwp1cO+aO1zZguWDynQSaozbsHOOgWa9AHiFOuPT+mUSsJozumr7DaOFRs74LoA1ro34nRlApr6hwZUlWLw2akfA4/0ddx02EMbEYYiirMMUJZQPmjIFFO8UUG5h6AD/FgofGDMXMpV1/c5Fbd4/lL1T7KCYtnyWYOFLcUL0LZ1geY/58e5AmIQbMNZlb5eRidf4fWhWfTEyt/keI+ucLDh2tWa7syJbsEZwNXYZBGM5XOyHmpSmqarWEKuQgwyhcKkaMiigeIUuXk/MGjcI2ktHzba2ZUG384RbN7sSWYOFYmgHIv2qvx7Z1e5P1z6psOZod8Ade/ZWf/z4xnVx7xg/itNiVhu2QqEI3gT6QRQ3MlHB7MHiHfRufoUEKARoz7FH4Z5Dh2Flz14wQNnyN3DdunEd/v32Fbj59ltw8y9XnF3kAyzUr/z++27vH/qtPr/PHqwu/hYVkKXFWJN3/xNPVo888MQ3O8sWYbtZQ3b9T+dd9UT5REPzq+yXHgRYHFzSOI4nJAEI1N5jx1mt1Jmw2lxev3Ae3nvt1VY107R7SLtVBwMW529hgNO3Tug6xnX3Vw7DwW8/3TtQlCLUYu+9/ipQDTaKU7md+9FAajrro7rz9qsGqbGw0TH+Fufwor+EQCFYs/wgYG+9+ALj+PO+0pDiVS45DkpjOfwt5rADPb4FlXY68pOfi3lCU4ZOOX4QDHTU8YMOPX6wvr1ffdTp4HPaSwoXnQkPyQSa9x4UWNSZ5QTOmT/UUIefeTYI1buv/Q5uXPhjVEgBK8X67z70UNBfQ0B536upuTjNHNpXH3y5GRcYFFhtE9H0OTio0EEPzfYQKM7R7tIXkgkB/T1+bbCpdYe2Vz4bsMyyiulMGlRkpt4tE0hNSEhTSYAadTps1f81uzmr//q2yBz8ztOVBnN9OLjoDlH6PpzWmmbbc5eBI30mG7BCR6pCp5PpLCoE1ZUXX3AGNc12mlCyjzrgWm1n5iDb+7XjcP/jTzqDrFd/+1KjDdS0MyaxMZjagy2fwOkgwAoJkELpc9TRz6EdajmcnffQu/Z9+UIb3GyRblak5t/+PiQXqXZJUW4QYIWOtFOTgY46F1LAjrz84x8ycuxvpHO7LBD0h5551qm57DaFtJYdYFWwBEPCdQw+JDyqrdD8YKyKm+5zpse3+0HQbLYItybpgwvbZQdRpVqLyqzLwY2u7xh6LhuN5Wpo6LAp1VYYq+IWjhmfSnzAISRE7nsuZOCaMVJNymktO8PgEGaIAwBrsrRBBS7VVtwMbBZ7mVxwceGPkNaSzBC7DIBUz2QNVsgMUmE/8qt2Ej7er5rdmhsHF6dVQ1qrfeBidu/QBb6swfKZQQqdy7ei2qqv09Mxwqbv4QraUq1FF53tgZS7OcwaLDt2hWcJ7R2hdAR30QIxcExbVuIL4mZB9AUnn+ZsNZQQbto29vl81mD58lTRgChnBtuR9fmZDzoQOK3FmO3GYCIDLZjwrU9QYuvKDix7aaeZuZiuC06SmbnM4JvfneSczWGHgMQntGevockKQLFmH86N7fyU5ecClg1PnZgD39GZnAO/tPNU0dHPrcu1R39/QdCuHSIx321z6B5Qph3N9cziHcx4g9/NM641U7DiEnJMuo+OXFoP519RMxhKD9kVlpjn6O4LmTlsDggmfZK3CQY6TLHkOo4W8w7SskMAa70Ga2zXqK/B+Vc+kyIVTopyNhiuhXLbhKO5s4Ewidh8Oysc7Y46yDHtu+cCVgWPfXTdp8YlYOH6mzmmldPU3G67a7HcbjudDdsdPsnGXCUheRBh8xzjXySwus3S7Blhl1HPjcaReR19MC+DvWVm5BuNUk3GfMf9jmRQkOWnTkAwGWw61dNVc81VY3XdbmubE8mMkJoTR4c7b5vwxY9iY0sSB74PMy7ZGNkVGslzgwdLorEk0XbfNSYpweL8QzsC3zVMomB1uERSYgqbfko41DArsOiMNjTx8PlYPs2x0GBx8Rd02lFgvlSNNlgSBzgn590Gq8+2c7FBc9FUDeDi+Fi+EWdDR/NOSWZWxE/J5uo3yaAgKwaNtpuc9dLAsiVjBYsCFwqQhvyUURQ6jyt27fVP1y4HXxwrNkC6EGA1M+fhK1dJzzChWvA4lQ0GnVlxe9zxYOjV37xkybVbaEMyA5KWoX4PtxRF293epmxfIOX+ZZNlEEugxo+9EUP6Tq5yM50VSho72cddpbhu3HJqcn3SDnKN/FgHXtK+acpIHHe6J8seUFxaIzuNOLZNmkp8mveQPJsdWHajbbXPjNzxZZUuJ5juc5+nOaRQSBx3lIW9xtleaw3PdiUQpCiTO1j2FbrEiW0eQZeZw/l1BIXCdVLa77jH3buYAhhpnVmD5TsdTXcKuDqKrLvNxYmXaqsY/6pr4FQKxrTlsgYLX85lDrt21jw2x9Hdrq5BQE23bQZDB0umBaHv5wcFFg100gVdqdaSrB32JWhqAl2+FdVW9F1pPfP0FyWyyR4sn0ClWovPqJfe36Lm2pdTImSyycWbW7M4FykBaDDhBtrQds6r1o7KxvVuLq1lEp4187Sng4vbLevKKRGrrWapcbvClY3Gsq5Vq97FTqpPUxjZeaSkWgvr5PNh9X8ggUtM68uXFdJWvlPQ9W9VMsOLqUKpl7qCEvtcNmD5ZoDt08R+reXao2XgYtJBVreFTRtcdKUy8kFFHfa2b1XdIIYxO/MZr/nl7NAPAqx6dmjHtBpX2HIRaV+KSDwJgxFu5vqSToD57kR0mT+XBqVOuU9bKVgCPeozhfh4SGtx+Ud9msKdInuiGczl4SPTPNrOsw3bB/C6Ofx/132I+F0o9Xf7mFdVY3XxpWlBKNJegzVOWKGmUAAaVyQ05eam9qG87rxT37GBNVAmXZGrFj5RSTtzsp26COvK4QibVDLZmEJpg0lijNat7hxceOlSKHNyH4CFEtriO/KaqpmXAsu1JwDpZrBS2ceUGyJY5PZ4dqSjeRhfyGRu9ArBZTre3OiFlwb4rpHDSQLmd7/70GHR9SmOLM3BCxByX77hgBsUWJyTzu0J53JS4ctLcr5zQqI3U3AZA0OjmcvS7AKGu5mCpuoO/d68vx8UWNyNq64I9AjCT56iV/EiFCEfqM9O8c1AXRd18gNDTWGf/TKuq+sto658EaFZ27Qv4Uv7LYmcD/2ipkFoLP56OPlWY9f1cpKwQCxgfqDaIQVf/bEXrse2NWX57MFybce9tLkxSX4lkFBtXp4jR6LGT6IGM5ctSZ1xfNhcvBS6vhd9wdDdz3yIJe7CdYEoZlIke7CYdbepjjGFADNSR9DsK+RW7ttTfXXr/RvjmaLvHmir9zoBZfc+48x7LwCdCTmBH8kaLGoKQtPuSSQ6nAvKilqz90RP2zncjV68Rjp+soTitO+m2CE689mCxWRL8V5dS/0o6Ua48ZG0En4KBXxuKqBK+CcUxa+l6RttMx+6K7rr5GWq95ni4SzB4uNV7um2Y+YXZTJtc3Pv7iU4etdn4Nrtbbh2aweu3dpuiHj/yjLsX1mC/buX4fJH/63K1J/Y3yTB3mrri/OiKE6D5xrfyhas27Bzzs5a5xrR/KXc7SWS0OCzwTpy1x3wsy/tGz/yg79egyv/uVX9+/BnV+AXX94//u5Hf/sXXP7w405gcXfujCpy3RXdvoA8p7wUtoyzBAsbyPkVzM1XjaUbX6fkCJZpEzc4EBjb7+prAIXk0Nf32YLlg2sXwFozVbcRhzy2RQU4D41lt8FlzjFEsQ07rQGUq6Yy75Q1WC64KBTSGZhvNM4bLGybb8Ngs+35L+9kD5YAriiH2QVXDmBh29x+V23oPc59X2asj3oGAZYbrv5Gbi5gmU6lZyZHf+9u6vuAJaaOwYDVhqtfIecG1kh72bka+n3fGEi6lB0UWAYu3Hdu7w0PvbjxXUw5bqtNSrCwbquN6zHrnKNAcbkV874heczi+8GB1UUooet/sc6UYJFTzNmkrewiS+kzClYtKQVLioys3EKAVZvCKi0lfjhT5APrl+9+0JDm9x64d/xvSeQdHXHzAE3UK+um4ZVaCLAk3eIDy/e8BCzJ73/ayihYAlOoYMVjr2ApWPHUCJ5QsBQsASbxRRQsBSueGsETCpaCJcAkvoiCpWDFUyN4QsFSsASYxBdRsBSseGoETyhYCpYAk/giCpaCFU+N4AkFS8ESYBJfRMFSsOKpETyhYClYAkziiyhYClY8NYInFCwFS4BJfBEFq5YZPWn8+pEviqT5+OW/2+V6OYom+uHMCylYE43VSNDx8uHPAyb/8H0wWciZK/+wivR3HC1zboLNU7DGGqt5Zw0mBvn+F+7zwkV2j87l9tZgD8+pgIJlCZ5mzvvGvXfCt/bfw8JFoQolhZtT/87tZxUsS/Rchhs0h0fuvAP2rSzBvpVl+POHH8PvP/iI6bBhHShNTZyCRSSMZxBLKE/bublCneBLlhZ69tP6vYLF9GwoMUfzEdVU3OBQsDwqw6+9dAbo07YKlsAWjXKibh8wdxZe2Fyv7i7Uj1sCCpbSkUQCClYSsWqlCpYykEQCClYSsWqlCpYykEQCClYSsWqlCpYykEQCClYSsWqlCpYykEQCClYSsWqlCpYykEQCClYSsWqlCpYykEQCClYSsWqlCpYykEQCClYSsWqlCpYykEQCClYSsWql/wOGcWJaknA8VQAAAABJRU5ErkJggg==;strokeWidth=2;points=[];labelBackgroundColor=none;rounded=0;html=1;whiteSpace=wrap;" vertex="1" parent="1">
            <mxGeometry x="360" y="323" width="40" height="40" as="geometry" />
          </mxCell>
        </UserObject>
        <UserObject label="" tags="Background" id="219CYF1WuWqsUgkXM-5G-109">
          <mxCell style="vsdxID=2;fillColor=none;gradientColor=none;image;aspect=fixed;image=data:image/png,iVBORw0KGgoAAAANSUhEUgAAAJYAAACWCAYAAAA8AXHiAAAAAXNSR0IArs4c6QAAFiZJREFUeF7tXW+MXcV1P/ftWn7gpV47oK67S7GLlbgS/yLVNlEdvAaDaZsowfQDKU3sVVPTkkAkUhmQ0hpHqG5RKSWlSKhN1w4i4QsmiSpVKbTeoKRioWldO5XSYsfPYhes4NiOs5C32t1363P3zfq+eWdmztw78+7by9wvhn1z5885vznnzDlnzo0gPIECHigQeegzdBkoAAFYAQReKBCA5YWsodMArIABLxQIwPJC1tBpAFbAgBcKBGB5IWvoNAArYMALBQKwvJA1dBqAFTDghQIBWF7IGjoNwAoY8EKBACwvZA2dBmAFDHihQACWF7KGTgOwAga8UCAAywtZQ6cBWAEDXigQgOWFrKHTAKyAAS8UCMDyQtbQaQBWwIAXCgRgeSFr6DQAK2DACwUCsLyQNXT6vgTWDf3V1QnrZ2H+X3x6oYb/HD5XT/4NTz4KlB5YN/RVh+ciWF1pwOYYYBiiFJgo2sVQiyOo9QDsRbAFoGUDWCmBde1l1Z0Qw44IgZTziSMY6emBsSwAS0tGBHcUw2oELU6pJ57/t6zgLQ2wUDLFMey4wLidObHU/noMtUoEI4en6mOqvnH8BsBwDLAZAWSUjHJHTaBd2AxjjQp8NyuYna89Y4eLHlgoFeIZ2OMFUO1E3Xtkqv4I/hnHbczCzgRIDiQjyb8Yagi0KIIDOlBn5L3X1xY1sK7rqyKT93ApdEGS7L+g2k4KdXTbrl3H+gd/9bP4/orBoW0n/+s/B46//hqcmZiAM5MTZLcf/M1Nx/7v+99byx3TWTsBsiWwN4tadjYPZkeLEliJQQ6wxyQpEEiyWjn09turZxuNnZEBkN/52yfh9RcPKgHGpK/7ZotEii06YJmk1IWT3xhEcEC2UV6anHwkAtgBYDgVNqGAEuuV/aPwytf224GjeaqMAL6LLyYnzKb99MQbJ2r/9Ff7hn5tw0duPDM5ec07tZP91cuWfWDqp2eGfvb2W9Vzp05V3/yfH/ZzB8SN061qclEB69q+6iGdlMIT3NGf11uQ8NKbbw5HlcqoDaBeP/gCfOepr7D4u3JwCJYP/PLhEz/4wbeE/SVeTEnHq2DeDrvoN1P0joA+Pj4Ox18fhzOTk3Bs/FXjPBKAdZmKXBTAQkN5bhZGNaBaMKrTTJ2bmxuFKGK7HFD9cQCFYFp/x3a4euONsHbDxmTIKI5HKj09Y4majePNNuPqkINAQ6Ab1TJKygrslTeWEZWeGnQ9sJqnrxOqUxPlBvjXiYmdcRShlGI9x14bh+cf2m20pzZsvxNu+/z9gMDq9CMkGQJfdbBYUl16aqY+/YwsOTs912SjFTEod8ymb+gQ1R5tqaNT9S3yby9PTiKgWL4sIQ1MUmrb5++H9dvvLARQ8vo4AFu6rO/0zPTU+iJPj10LLK2kAsit+pBBj968WYlxoe623fcF7j7oaDvTpuhftWp206fufvzPv/zoQx2dWHOwrgSWDlQVgC2ysxCN5LlGg1aXBFVR9T396d9T0hslVLcCipJgT3/6blI94ua44bd/59wndj/04S2rVnU0uN51wEpANQOHqJCIC1DpDHRkxF1/8diCQV7ETs8ypk564Zp+98uPnvrQpo8+c+vgYBI16MTTdcC6ru+SvwGI2/VPBAeiBsRpz/lNv/+Z/mtvu/0JcTIzEezpz9ytPL4vJimlWqdq0yC47n32ObQRaz2VypZOSK/CgeUi5oaEWzk0BFev39DiAkgzQAWqxSqlVOBC6UWpxjS4ojjee8vQkKXn17RtW38vBFgCTDZxPptloVvgN+64c0GlqUC1duONcO/XnrPpelG0VR1MEFxf+rckIFCLAQ74VI0dBVYSjolhh3VKSUZ2onrDoDLlvS4rqASpGOCCGGCvL3B1BFiJPyqG0dyAwpibKQOUAcIlS5fCzPQ02TLt/ET1unJwMGl39fqNsKL5/0U4SBnLamuCHvtvPLy77e8o0e/a91jyd1/g8g4sU9A4vWp0emLwNh24veWeXbO3P/DgVjlMIrzPIq52bBxja3SqSxam6N4RwFq7cWMCOHSeduujMujvffbrC6aCD3B5AxYjvofbBSXQgQrAmOybamYjsHOtkLEqw9U30wXQ5Pih73G5/VPgStlb8zZXozFy65VXKjNkuWOJdt6Apc1E0KT62qa3yAtGcD3+yY/DL86ft6WFs/bINBEGctZpjo6QJs8//GCbrZlWiQiurYODa3IM0/KqF2ApQaWJwCfec8tsBIoIKtHfPzAAl181n7Ui7KYVvzJvP6Wfs29NLvwvpq3gw0ldoebSTWEhKtpAuFr2bx0cHHEBLufAUtlUqqAxLsIVqFShmrQ9kZVosk3HzZWaB/KCgzLr8E7ee/7h3fDawRda+pKkFsSNxhYXKtEpsFQxPiOoLOJ8OgpT/iqfHnUEGwLs+PirxnwpH9JLgJ17SlW5IKSN50QlOgXW9cuqo/JtGR2oECQvT05i8NiYWWnasgwD1dRF7t+Rcf/y1FfapEK6Y/Sf3bXvL3On4KQ30af2PcY+mVIuCFlqYdJiXs+8U2Bd11eNW7gTQ+3Iu3WlQfjyxMQhV5mWD3zo6jZguFCBWdBmSmnJqxqpTYQedY7kogx56YSIS84ttZwBC28fR+gETT1UDrr42TbLU8dgju2QBSB531GdxvLaXZTUsVH5FDDlTZjX1nIGLEoNHpmqK/t/eXKyVbrl4CIlrf76f4/n6NHdq6aUlmbszmpAlb/ORmrJSY5tIa44Hts6NNSWocudqDNgXbeseiIdbsGbI//9bp08umZxfqoWREkrG5uDS6i87XQpLVnARfVnI7Xkgw6hDnOdEAsB1vtFWslg5MTuuADOK7VY6jBHkNodsC6rngAshnHxefXIVP0jMqFc2lYUcbpRWqVpoJJcNtJG9JdHalE+P+Kwk9mIzw0sVUwwBqgfnapfIgPL5UkQ7QQ58NwttpVO8qhcI80sT67QImOj3HQgyqdFgTurEZ8LWKbMBepU6EoNcvwxbA4V0JCyDbmgSE+X6odjxLOBlVEdZgaW6bp7sngMNi+BLeJ+m0s1SHnZOQQtAEPkkCobyVaVUypNdniq1ixL/HUfvQl2/YN0zzfj6TATsFigEquJodY/MPCtP33l++dMFV5smC67GLjEtBnDd1tKalCnM9M8KJOAs8mo96jIQBZ1aA0sXeYC9EQPw1y8j8rypOodmAim+p1Sg0V52bOuQbxHqTLbtXBOeNQ8Kf8ftpNtrSyJgFbAUoEq7bOiPPDyosStmnT6ykKyHCMbk1KDi8Fop5hLSS1bW4tSh5xTpgpYOE9J4lmfDtnA0hjqbdfdv/jF+zeNH/zmS+ff+UnVdkdzVFoZ1KALAzzdh6zWTOA0lRjIm07DApamOEcbqHCx6FI489bksE2dKUEkk41RJjUo1sz0KWn3KKVSdVJc5axND9IitSyNeBawKBWorPYiZSyIWJnqGhalJnUhDlsC2krMItpzj/66uVFA0RnwFB3l/mWpZ5NOYwQWpQKzlhASJXhEtTq5iCznVnIRahAlyn+8+AJgKrOvckay3WhSZTIIKKmnc11QdKRuOmW1tTjAastCoIpzNEsykrWsXEkBalfa+n1s5yJLk7y5VKrx8wKLknoq2qjoiHOT7yFmTQLUAouSVqqsBZehGhXx8yS42QJKZ//4qOyXF1g4X1kKqU6GulAYwyfGOiHqgSWlwuDkqRwrl2kwOgAUYV+pPOSc47wNmGWGck7Hcv8cYJlCYZzANsfWUgJL4Y+iT4EOk/Z0zHBBfBtmi7YuMxKo8W3tI9UaTMBSuRhkI5/hujBKLTWwiNLXlV5YI9e17JS0okS9b/sqzUCf4KIYzgnJ2EosyrFMSUZOYNsU5iGBRV3jUtpWjm7ZmCSJ7XHa1F+W31XlkFyoxTRws2wYk/GuklaUr4vlyTf4tUhgUWqQOgm6zFYwMZpjXyFBzk7MFwZBQuIJznWFGMq4xfFcgEvM2UQL6ndTvJACli4mmVcdksDiXoxweRIUlz8FMBAQ+GA8EQEiA0v4vNC/xKk0g+2xOgwWZBN9ZmEgvqMDly8/l2muFLBkaSTacGpL5FWHJLDk+4EaNZjrpg2qN3SWmoCBhHj37FmYfu/dBfr+0hVXwPl33jHRm/wdnY/rP4lfltjIuotHdaICl6sLqTYLc5V+kx6TGTpT1npoAxb3fmAeNShiiHJasQ0xXbTlePptTqmirS8nqmouHBeBLb1MNluzP+XpsA1YlFOUOg3afAFCLEp3gdN24S7b53F46mJuWYxw23X5kFZiDhz3Tk+lsoaqwtwOLKZT1Lbmgqlovy1B5fZoPKOkQPV2EcjzZYg4dlgeKaOrHe9TNao2qouDBNKNEw1QuR2MwKLsK9dfghA2jzjB4aJEbSqs5PK9555NbCz5kasjm8ApgslyKZ/0e1mljOnDmdhvHptOXpsKVKa0IxON0r9zTuKq7FJKFcoGeZu33ca+0iWUcVWQ6ShtQyxsa/raV1ZwmfoVp7G8ANPlUtmmNetoxzlpgsKf1QIsyjGquMLF/sKWygaxIQBn59iCC9vrpExWcGG/plwnlND4sQNb10Ty3cJvHlRWGMwzZ4p+TKc0acC3AgvLZgO0pL5QjlGu4e6qwh7lw8pS74Aing5cWcIqYgzuyVeADD+qKe4AiPz/dP6aySXjGlS4DmfAIj3uRHyQa7hTOzeLYckxIrNILPGOSoXlMehF30gDEyjyzB3ftZH+NmM5AxblaqDSZLjAkqPtWQ1LzrHXhmBUWxW4smwEytA2VfrLOv/rb/8t2PHkU1lf175XBLCMHndWIJNJjk4AS2fUuwCX6J9Tr5RJlqRZ1s3KGYNlvAPA1sHBtkNgyx84EovrauBOirPATgFLGPTUp3zz2FsqCSn8a/i7KQqBJ2j8Cga6Xb792L6WLn3YV9QhRAViJ8Di5rbLwMqzs0wJbBxw2rQpojxSOgifznKQszN8etplGrFsW467waXEcuki6DSwqHRk21szNkC2beviWj5nTOaNKDIQ3aIKOafCPKowqzrpNLAoNYB/yzp/DhNt2uSpMMMdx+KuY2eB5fKqVhHAYp6IuHxy3o5TQzTPoNxoh+pihbWDlCuxcFGy0Z3VL1QEsIq4amYDBC7jbfpMt+UCl5XdoPhkSVuskFuVj7IFssTLigBWt1e0cVHvQQU6CzVIuhqwX2MQmrpOzwWW6k4eDmyTTtJpYKk2hKswUlYpkn6PYr6rA4aFNLTIIJWvfRGfLbHJddfF4riXMjsFLF18z1fYJA/IWO6ADANQJgy1qXQXV80ZpASwbO8SqhjG3WG+HKTcOJ4rz3sGHmtf8RGct4mYUI5RMeE2YFG1sOQMB66TVBbdGC9LB2S5x3cfO1OX9ZmeNxf8rkHD6c9ldEOMR10SUUhr7Ucz24HVX13dmAX81NvCI9tZNidDikC29+d8AEt1+TQ9326VVGKOrg14CqiqjaU6DSolFv7QVmiNsrM6VK8B5+ND5Osklm3KM7V5xJyzulg4Ess1sKiapAqtYvzEL/smtJxJyk324xDI1MZl3DE9lrjXiAXVxK3ptRsuXsYwzUv1u+xc9aVOXQLLJnfOVLeBdDfgH8kUZYCxo1P1hc+M5VWHNkxjXp606dJrW4vjeq55UMDi2q3yBpMLruHvWaWVElj4A/kZ3ghGjv68vl9MysbtkIeCLndmnnlw37U5WXH7pNq5CDup0sdV9qXuJJieo7KMEVkpWbK1bG7r5CGgjSc4zziu3vXpvEzPkVNfQbcm1Q0qlermqECt8S5+pKolp+8ZdlId+jgZugIS1Q831pZnDnm+fqaSVJq8OaPBzpJYKlsr+fBSBCOHp+pj2KZTUstlflceZnLf9eFjksdm5ku1TVl3Ilb4rIwV/ORBjFWTyZKRqa96JVJrbm7U1dfoVYxzVU6RC4y87VzYP7o5ZE1L0vnvXIFKa7yLRak+dJn+ZFwnVGInU3Lzggrf9w0sRnXjhWUg7Uy3hFyCigUspUrEH1KSyzZ+aMs81U7rxuCwb2CpVBka3fiIi6/436Y7jcpSTpafOLFWhQuG/GXVnVEM0lcSm+CKYOSJN07UfKhEU+mjPJc0bMFt096XTeiyao/y9Jfxq6ps410mpPKTcTHUIIIDT75xYr9LcHE+JIRzlHwuNYCWj57b4MFZ2zwnNhs7M+uEFX6qWtxojNx65ZXJwSzPYzTe5c6134GOoTaw7oN/t/vb//y5PMw1SSlqwUio2z5335be3t7aXKOB9SdW5yFMnnd9XHZQSaqll14K0++9x5quKBeFxUhSTy0GONBbqeynCqixOiYaWQML+zB9ZLzS2zsxPPIHfetu2tzPjb2JAhh4WVR3eRMDxPjINa6WVJeemqlPP3Nkqv5IJw4TOoJT9mAeW9DkHsC54A1r/MIaPj/58Y/r+K1IzEqpxFC7EOc9+eubbvrRZ//+q6cqUZRsuEYc13ATugRTZlWYfjGJJ87AIeozvel2olox/g1v8opqyOmy2dxPzgnmKFOemyq5KHCpTl9Lli6Fm//wHth23xesBIBJcpNgzWl0W01Q0ziTxBL9NYPVOy+Y8HtcTYjqh8qPR6I/fsfHz/3iZ+f75XcwOhAtgb2P//DYcBxF7QcOD5PlGNXcdByUUGffmmyTyulpdzOocJ65gJUG2NwsjEYAwy55pjgKJzbBrYODj2ilZlN6feyBP6nefM8fP+hyXqIvBHdSDO3Fg8baC7IUH1y37tQly5cPYMoOPggkLI95bPxV7VR9uQdc08cJsNokWAw7TCpStxBFgfsFQNmq5KXL+k5fv23b5UIVc+2+9DjC7kMg4UMVDpHXhCpwZnraGc+UJ7nmRnM2kIOOnAJLZng8A3sa0fzpTCfNkPGrb/jwuSvWrOnd/qU/q0EUIYhOJv01GmOm46+tShYV81amvn6BQ6H0QMlxUSLN/7dJilB8QBDg6cvk8ebwUFOP3iowzBnLVRtvwKImiACA2ZQboBdq8tfE8iwsSfVBJ24TzHn6yvouZQ/++ze+fnps9KtTp0/WrFwgOvcAmgJZ59iJ9zoKrE4sSEivGGCza5tPNX+UKOvv2C4Xq01UdyWOa7cMDSXJkS1zi2F1ywaYdwvU+pb3nx685pol9/zjgcMt4zEkdyfoyx2jdMCS1XFjFnb6AJkAExalbdps6PEfS1S4BQgQbC6lNpfxvtuVGlgyyPD/5+ZguNKAzYn5Juw/lB7zhmDyLzp4e3p7evG/l61Yee7S5ctP933g8p+uGFh1+oqrrjp9y64/+hE6GPF3k/3nm4Hd2v/7BljdyoCyzisAq6ycLXhdAVgFM6CswwdglZWzBa8rAKtgBpR1+ACssnK24HUFYBXMgLIOH4BVVs4WvK4ArIIZUNbhA7DKytmC1xWAVTADyjp8AFZZOVvwugKwCmZAWYcPwCorZwteVwBWwQwo6/ABWGXlbMHrCsAqmAFlHT4Aq6ycLXhdAVgFM6CswwdglZWzBa8rAKtgBpR1+ACssnK24HUFYBXMgLIOH4BVVs4WvK4ArIIZUNbhA7DKytmC1xWAVTADyjr8/wMejvppXCESdAAAAABJRU5ErkJggg==;strokeWidth=2;points=[];labelBackgroundColor=none;rounded=0;html=1;whiteSpace=wrap;" vertex="1" parent="1">
            <mxGeometry x="364" y="390" width="36" height="36" as="geometry" />
          </mxCell>
        </UserObject>
        <mxCell id="219CYF1WuWqsUgkXM-5G-111" value="" style="group" vertex="1" connectable="0" parent="1">
          <mxGeometry x="223.75" y="405" width="119.5" height="46" as="geometry" />
        </mxCell>
        <mxCell id="219CYF1WuWqsUgkXM-5G-39" value="" style="shape=callout;whiteSpace=wrap;html=1;perimeter=calloutPerimeter;position2=0;size=16;position=0.19;fillColor=#e1d5e7;strokeColor=#9673a6;fontFamily=Comic Sans MS;" vertex="1" parent="219CYF1WuWqsUgkXM-5G-111">
          <mxGeometry x="1" width="111.75" height="46" as="geometry" />
        </mxCell>
        <mxCell id="219CYF1WuWqsUgkXM-5G-110" value="&lt;span style=&quot;font-family: &amp;quot;Comic Sans MS&amp;quot;;&quot;&gt;Bingo. But it is expensive and slow.&amp;nbsp;&lt;/span&gt;" style="text;html=1;align=center;verticalAlign=middle;whiteSpace=wrap;rounded=0;" vertex="1" parent="219CYF1WuWqsUgkXM-5G-111">
          <mxGeometry width="119.5" height="30" as="geometry" />
        </mxCell>
        <UserObject label="" tags="Background" id="219CYF1WuWqsUgkXM-5G-112">
          <mxCell style="vsdxID=4;fillColor=none;gradientColor=none;image;aspect=fixed;image=data:image/png,iVBORw0KGgoAAAANSUhEUgAAAJYAAACWCAYAAAA8AXHiAAAAAXNSR0IArs4c6QAAE19JREFUeF7tnXtwFdUdx397kxDIAwghgdBQgkAQEJFHKOoo78EHSlofcZxRSLVVsda2Oh0JVsBHcDqOdgYVnY5NsDMOVK2gglJQElseFZBaLAgqBEUDKA02Ca+Eu53fhr337Lm7d8/eu+fs7r1n/yHce3b3PD73+/ud33kpIC9ZAxxqQOHwTPlIWQMgwQKAhysnTAmDUqbzEAK1iWSjEzK1/z+5epvhc8mPdQ2kDVgReFSYrAKUKQAIUgQmVkhUgAYFoAkU5VAIwg0InQQutvZSFqyayop5gCqkqoMAYB4rOImk02BTlMYwhOolZF01mFJgaTCpMJk3SPHgk5ClCFiJwFSQ30MrfVZmBnTLzIRumRmQlYV/Z8DZznMRbjo6on/j52c7O6H99FnAz8l0cUCrDysZS9JRxQKrWDWVExeDqs6185N0iHK7Z0Nuj24aPG5d7afOQtvpMxps+LcELFoDgQPrPFCL4rUiwlSQl6OBJPJCuI6eaLWCrCmkqNWPr97RIDJPXr0rMGDZAYUwoSrpCuVVheJ74wKmKEvSwcn3PVjxgEJFQmXyA0xmICNgh789EeuPpQFcvgUL407nVGWRAjCFbjQEql/vfOGmLlEVRLgQMoPDn+Jw+RIsK5UKGlAkiKbqpShLald/uDhRYP18n6/AslIp7MmVFvUOjEJZNTgq1sFvjscoVyrC5Ruwzsej6uhGQf8JoUqVy1y5oLp29fb6VCmjbyLvNXMqECjDsEuqqJQZLEdbWuFYS5vhq7CSMTiVAqmeK9aCORWbaAe9uCAP+hXkp9IPOKYsZnCBoizBhPrgNv4dVNg8A+uhykllinqujobqgpLCwPtSrL8IU7iom3HsUTMtitIYpNkUnoFlplTpBJXOz4Hm43bDQQbUgjLI7QlYNFSp7E+xqFdL6yloaTvpZHBbe2wXZLAiDBkNfjOZwsGiY1QI1fAfFrPUf9qk0Qe0cYBbGyJimVGh+KtnKRQsbRanqmwiCUlH85foL0RXNquZFKhgqpJR7Qf1EgYWOush9dxBCVWiWEXv06frnGg9ZT4vzAfqJQws2gSmQ0gheYTsn4A9SzPAvFYvIWDRaoVjfmgC5eVODeBQkT7QbXiihwPdQsCie4HorLs5k9Od5gn+U0zVy6OBbu5g0Q67NIF8AfbLQDd3sGrmVKDDrq3fk6EFvlDpT8fe47GWVk9nUXAFSzrsYkAye4vXA918wZJq5R1ZAGACV33tmu3VIjLFDSy6Jyh9KxHNGfsO7C2iadQvUdNzuIFFm0HZE/QGLNqZx/jW0jXbp/LODTewyBCDdNp5N2P858eYRAGReS5gSTPoLUhmb9/35TGyl9gUVjKm8hxT5AIWbQZHX1Div5pOsxzRqhVS1Kk8V2VzAUuaQX9Sa1AtzhF518GSZtAZVOhcixreInuIvJ147mDJ+VbWoOnTknFQHpe48QYMww4Il4jQg+tg0esDpX9lDpZZZBzXUBYX5HMFbPeB5miGOJpDDmBp+1Zp2wzJMIM5VDhRD9XK6tJXffNQMNLP4mkO3QeLWHwqwYpFB30qbFzyyswKQWdH2PAZL/NIKyWvSLzrYJE9QjmMYwTLTKmGjy6FS8aWw7q3tkJrS3ToRb8T1cvNbZroPAQGrJo5FapeKRKsKFhmUJX8sA/c/YsfRxKt/msj7N55gKt6xSgmpyi8q4pFhxrc/rU568j7J7WZo55f0AMeXHBrTCYPHz4Gb6xqhO+O/o+baTTGs/gsG5NgceTPai66FVRkVt5dtxV2bN0HHWeiOze75XdRwztcptJwBSudY1h0zEiHBn2qW2+bxYQzqlf9i+sMcGGHaPCAwqRCEtSyfgkWU2t4nCjexrbX33QZjK8Y4SiHPOASEYGXiuWoma0TWy7BAgA0fbfcNgNKSxPbSsAMrmQ6RrTPV7tmu6scYC25+kDaeU8HU4gKhRt6kLM0Sfwumz4KZs2alDS+rW3tsOz3r8OZ0x2RZyU6eZI20xKspJvHvQfY7aMw8IIiuPPu6917IQCgctUtXxsJRyTqb0nFcrVZkn8YwtSOR5zQW2sTj0agrpo9KWGzZ5fLV/68HvbtPhxJlohJDDxYqRDHYoEJW7lvSU+YPnMCjLxosB0bSX3vhkmUYCXVBM5uJlXITpXIJ/NWKLNS7Ny+F958dUvCqkWB1VS7ZrvrvwZXnXcsKbny2cuttLGX1gVLJ3ScPypOPxmCPi7OGYIAvYpyYOSoMrjqmkud3upa+qeWvhIZW3S6yYoEy0EzsJosB480JEVl6lvcCyp/gudsen9hZH5rw56EeohBBSuyZ7vTX5KT5uINEg4Q9x/QB0ZeVAbl5Xj6r78u9LWeenRlQuZQgmXSllYbjcVr9qzsDMjKzoSc3GzIysqEzMwM7W/96lPYE4qKekN+rxwoLiqE3gV5/qLIIje1j7wciWs5+REHE6yuc5kjR5e4MTXZ5oBJQ7Wj0vTslQMDBhTB0OGl3Lr9fiDvtVXvw+6d0d03WQOm5Fghr1mkrjvv9H5YrIW1aih67wE6HXbzBw4qhgkTR6Q0RGb1s+eTg7Dq5fcjX7GOdARuEBpL6NacLKvZAfiOnJ7ZMHzkQN840l6pF+1nscYNRSyocF2xsJKTDTlYndbgRczIK2hY3/vYwrrIEA8LWIGcQapXBgmWE6fSaoYAKtR1lZdzj2qzNqaf0j3+u/rIfC2WuCENFq+l9rwUy3BMHKufZaZUM2aPgyuuHOuntvRVXshAKQtYohat8gGL6hmygEU76ahSM2aNdzwxzletLiAzy555Fb5r7pofz2IdRIQaMC9cwDrvZ0VW69jZfnoFS3b3LKh59HYBzRL8V7zw7BvQ/OV/mcGirAKXcULeYEV2S7aTaLKXgos3q+ZO82W0248YkmCxLBAW0SPkDRbT0A7tTI4ePxhurJrmxzb0ZZ6cgBXbI1SW8DronJ8pZPSz6LlBDz5yC+Tn5fqyEf2YKSdg0Y47rx4hV8Wi41lWMx1Jmy99K+foOgFLlOMuFCyrHgsJFstCTudVn9p3OAFLlOMuAizbeJYEKznwWcES6V9xB4sekDYLO0iwxIAl0r/iDhbtZ5mZQwmWGLBE+ldiwKqM7vCHL6Sj8BIsMWCR8Stec7DIknALN+gvsTOHEiz+YIn2r4Qolp05lGC5B5ZVz1vEOkK6FNwVSwMrjjkkwSromwe/+m1VcjWdZnezjBXSx53wWEfoCVjxDhWQYCX3S7ADywszKMwU4ovoY1D0zcNIsOg9OZOr8vS42w4sL8ygULDogwX0mJYEK7kfgB1YXphBoWBZOfESLH5geWUGvQArZogHZ47iRD+8kjWFzcdPwa59x6H5+EkoKcyBkr49YGx5YXItx+nuzf8+Cnubvoe2Ux3QO68bjB7SB8Zf6Dyv8RRLdFBUaBxLf9nyh64qaznWWtl2/Owz+mc446H99NmkwUKgald8DB/tiz1GpKSwByx74FLAf/1wbdl9DJ57fS80NbfFZOfiIQVwf9UouHBQL+asWoFFq1W3HhkrFq/cNo/5wUkmFBJueK5mxmIFQDtf58j+VsOOdPiZvgtMIoqFUN1YE120aVYfCNXCeWM8V68NH34Di1/aFbfJsrMy4On7J8Ilw/owNa0VWLTT3r88HzKzlCYVlBX31m5czPTwJBJxB+v5BTM2gQJT9Dy2nzgLLV/HHu2RqCm87+ltpkpF1wnC9VqtdzNTv/nuJNy0cBNTU5UW58LKR6eAwtA6VmCRTnt2biYUlRGTJ1VomL90I9cDxxmyzlQXpolIpSITkKpFfu5UsdZtOQxPrPiYOYM/nT0M7riunDm9mwn/sOo/8Or7TcyPvL9qJNw8zX4/NDOwzNUqZHi3CrCEp3JxBev5mukHAZQyvUSTL58A5UPLYP3af8KWxk9iKtkpWAgVwsV6jRteCMt+k/wOxqzvI9NVPdwAh79tZ771R6OK4OlfTrRNbwYWqVYDy4qh6vZp0HzkW2jcvIN4nto0v/Y9e3Jtc2CegBtYz9XMnKeAGtl1ZtyYkTD+kpGRXDyzdBWcaDE6sE7BQt8KfSzWy0tzePlda1mzqaVDc7jqsYgHYXkvDVZu925wjKjXXy+oimzLtP/zJgNcSgim3vP4xgZHGWNMLAysW2642rBIYtOGj6Bhg9GRdQoWq39F1sXmF69lrBp3k4kAC5d/6R0hzP2UmWNh6sxxkYLgJiIrX38n8n8VlOp7azfUu1vSrqdxBCvaE8QX/WzujYb8o1rVvbDWoFpOwXrprf3wp7c/Y66Xay4rhYVzxzCndzPhnUs3w96m6HnMds+eWTEAFt9pv7UAqVjkM3HzOFQr+vrjitcIsPj5WZ6BhaVb/ZcPYNeOKBhOwWIJNZAV++wDkzwLObzytwNa/Ir1euKu8TBlXH/b5FZgVd91DZQNKbEBK4CKtfzhGVPUMET617NnTYaS/kWGgjZ90Qx1L66LfOYULLyRVbW8dNz1AlY//nfY/5XxHEIzcq4Y0w+enD/BFipMYAaWFVTowL+9vjHYphAj7WqoM7KPIe2866UjN7UYPLwfzLtjNlOF6olQtdZt+SquSfRL9P3QkTZ4cNl2wJiW1XXx0D7w1H0VkNs9k6ke6l96Gw7uOxpJW3nzlTB2wjDTe2Oc93Dm4HuefJc9BsKUo65E3EwhPpwMN6BaoWrRF/6CPv/0a+3jsRPKAUMSiVyoXO9sPWzoJSJQV19a6lnsyqwcbSc74IXV++DNf3wJ585F9k2BvJwsuGHyIPh55XBHxccQwq4d+7V7hl74A9M61h+IdY2qpV/zazdya39uD8bML6+ZXqeCEhmfMjOHZGExxpUoWKSCHTl+0jNfipWKjs4wfHroe2g/1Qm98rJgRFlv1lsN6RAsVCK8rH68+B1tBhVQ6++pfa86oZcy3MQXLMocmhXcbbAYypxSSVjBotVK4WgGuZtCzRxSY4W0akmwkuOcBSxarSDoY4WaOaRUC3eSuXbWlZFgqQSLL1h0UFRTE44Rd700XE2h/hJ6MBrhwkg8XhgJxsLj5YaPlVwzBe9uO8WiTSDvwWehYGmqpXTWkdNn0N9CR33t+g8kWEnwTIJD+rD4Y0XoyF6gCBMoFKyoSezYRM52QOXq6OiE02fOSMVKEC4zsGJ8Ku3ZapMSUqp5DTrT2RdiCvWXdvlbRrhCIQXC4a54jjSFzukiwcIfal5ejlGlPIBKSK+QriozuPQ0EqzkwDK/W21SwllTeUXYrXIsVLFI5QqHOufp8+AlWM6B0u+gnXPySaIcdbPcewKW0TR27gYA7YBAqVjOAYsFS9UWTITCmfWiVYrMvadgYUbI8UQJVtJgbZtfu9G7g6qJ7EuwnLelr+4wKJaAiDpr4b0HixjyiTeIylqgdEtHgsV7YNlJ3XoOFhmVJyPyTgqRzmnJkQsJFkECPdOUXnSRztCwlF3UHHaWvPjKeacHqc3mbDktVDqlN4LFbw670zr13BSyTmF2WrB0SC9yOZfT+vQcLC3kIB14p+2mpRc5h91pBn0BFj2tRppDtmYkp8zgHTznsLPlKJrKF2BJc+i02brSk/6Vn3qEmDdfgCXNoXOwaDPIc7m889z5CCxpDp01n5/NoK8UizaHctzQGjS6N+g3M+grsGhziFF4nLpML8t39rtOzdS0WolYHOG0Jn3jY2HGpWrZN18Q1Mp3iiVVyx6smIWnApZy2ecqNoWvFMtMteTAdLTRvFh4mghUvlQsDS5qzwernWoSLXQQ7/Nq4WmideU7xYqqVnQ1j3TkQdvXilwj6OV8dhbYfAmWBhe1cRu9NJ+lcKmSZue/9sBHH++JFsdHM0Wt6ti3YGGG4y3NTxVo7MphtviU904xdnli+d7XYJktzU8nZ94UKp/2AmnYfA2Wmb+Fn6VDVN4MKr+NB8ZTLt+DZQVXKi+8MFUqzjvwsZg3J2kCAZYVXKno0NOzFrTGDICzHjhTSGaYHvLB7xCucWNGaOYx6FdM7y+gUGG2A6NYOjRmm4ogXMOGDDKc1RM0yMz2YPDjrAXWeg0cWLpZhFDHInJHZl29yG0oWSvBy3SmG6Rp1o/fcSQiyhtIsHS4zHasCZJ6mZo+QXuE8oYrsGDpFWN12Kafh4GsVEr0rns84Qo8WPHUS495oXOPoPnhslSpgIUT7OoyJcCKqhcevhleRO5zqvteGPfyEjD9hFN9h+how4jdG9QOCLe+Tymw7NTLC//L2uwFMz7FCl7KgUWGJcyce908Jntmj10FI1D7Pz9knJUQualr1z2eh33b5Y/39ykLliHuRe0xr5tH/RADtyvZfDvsrrcEPYzAWlcpD5YBMGorcB5DQlbOeboApdd32oCl+1/0PvNu+V1xQwgebIfNqiy80qUVWFZw4ec4r7586KCEwhJWpi/dVIqENO3A0uGyGhLCsET5kEG2C2V15/yzLw5FzgJK9RCCE3VLS7DswhK6c4/Hh+iB1bzcHGhr7zrLGRUqNh51vtoDOMXFCTCsadMWLLteI2sFkiqV6iEEJ3WS9mCRgJmZR/vKTP2YlH0dxKaQYFF1gvO9ILOzDMLqXFVVumYPKmp0FqGqaCd7qwo0hkLQIOqYtkQa18t7JFhe1n4Kv1uClcKN62XR/g95/OE8KHgB7wAAAABJRU5ErkJggg==;strokeWidth=2;points=[];labelBackgroundColor=none;rounded=0;html=1;whiteSpace=wrap;" vertex="1" parent="1">
            <mxGeometry x="407" y="428" width="40" height="40" as="geometry" />
          </mxCell>
        </UserObject>
        <UserObject label="" tags="Background" id="219CYF1WuWqsUgkXM-5G-113">
          <mxCell style="vsdxID=1;fillColor=none;gradientColor=none;image;aspect=fixed;image=data:image/png,iVBORw0KGgoAAAANSUhEUgAAAJYAAACWCAYAAAA8AXHiAAAAAXNSR0IArs4c6QAAEPhJREFUeF7tnc2PHUcRwGu86w0iH1Jiy4YEFBth4pO1UhxhFJvYBy7JIZyRwLFyQxwCEgoXlKw4QISEckBIHKI48A+QQ3Lh4A1rhKXY0sri4BCEN0IJGNmJhBNE7N0M1Lzp93pqqrur502/15NX75J4X0+/nupfV1VXd1cXoB+VQAIJFAnq1CpVAqBgKQRJJKBgJRGrVqpgKQNJJKBgJRGrVqpgKQNJJKBgJRGrVqpgKQNJJKBgJRGrVqpgKQNJJKBgJRGrVqpgKQNJJKBgJRGrVqpgKQNJJKBgJRGrVqpgKQNJJKBgJRGrVqpgORg4unr8pASPZVjeurC5viUpu0hlFCymt4+tnjywDTtXJSAsw9JBBastKQWLoWekrYpzErAKgDNvbm6clZRdpDIKFtPbj6yeeKoEeFkCgoLFS0nBYjXW158HKJ+bfFWeahabaLMS4OylzY0zEggXqYyCxfT2w6snXi4AnsKvSoCtS5sbB+1iD6+euFoAHKj/tn5xc4OAt0gIqcYS9/bR1RPoX5lZYQsc+3sOPPEPfYoLLoTGGs3yto2GgYub59d9fdrUSMXaxc0/PE801lij4d9DM0M7dLEo4YmFAOvoatNnuri54X3vo6snyglIbbCocx8Ga1LfovhkChZRXe0YVnmKajgKVmhmaIOqYGVs/7HzY4KSMRqLgsVpNxrnSg1W7Pvm0HWD01joOP9/1B/YDUunpHAhCAUUYx/LF9C0tZHPMY/RQlin6ewSyq2Qj2eD0eV9FaxICZDZGiae6CXqjRphB3ZOlgCnrdkgG2owTSYhB/zzOkDxBsAn63046DgYSihwklANCIQ8ZjBFirb34oPRWBSqiQaAs7thaU2qvcxzqEU+AXgMQbJiUg0B+/whV3usCtYByrUukFHTbb3rYOAaBFihTowZza5Oc4T5WqEGS2M1Qg6BIb++DEtnJPD3+a69q6GICrMHiwoaIRqZnbam8ZnG0PofaieU2y6AN5ZgaV0CwSQ+tuskQPkY+n4u7VebM6d2rScEuIxEtusUayWUp+16YwZSBAu9Fs0aLA6qAsoz6PxSH8SOOy3DrrMGjNrkPcd1OMIUA5JE8iNAdp2kMNjP4gCw4XVDPwp1cO+aO1zZguWDynQSaozbsHOOgWa9AHiFOuPT+mUSsJozumr7DaOFRs74LoA1ro34nRlApr6hwZUlWLw2akfA4/0ddx02EMbEYYiirMMUJZQPmjIFFO8UUG5h6AD/FgofGDMXMpV1/c5Fbd4/lL1T7KCYtnyWYOFLcUL0LZ1geY/58e5AmIQbMNZlb5eRidf4fWhWfTEyt/keI+ucLDh2tWa7syJbsEZwNXYZBGM5XOyHmpSmqarWEKuQgwyhcKkaMiigeIUuXk/MGjcI2ktHzba2ZUG384RbN7sSWYOFYmgHIv2qvx7Z1e5P1z6psOZod8Ade/ZWf/z4xnVx7xg/itNiVhu2QqEI3gT6QRQ3MlHB7MHiHfRufoUEKARoz7FH4Z5Dh2Flz14wQNnyN3DdunEd/v32Fbj59ltw8y9XnF3kAyzUr/z++27vH/qtPr/PHqwu/hYVkKXFWJN3/xNPVo888MQ3O8sWYbtZQ3b9T+dd9UT5REPzq+yXHgRYHFzSOI4nJAEI1N5jx1mt1Jmw2lxev3Ae3nvt1VY107R7SLtVBwMW529hgNO3Tug6xnX3Vw7DwW8/3TtQlCLUYu+9/ipQDTaKU7md+9FAajrro7rz9qsGqbGw0TH+Fufwor+EQCFYs/wgYG+9+ALj+PO+0pDiVS45DkpjOfwt5rADPb4FlXY68pOfi3lCU4ZOOX4QDHTU8YMOPX6wvr1ffdTp4HPaSwoXnQkPyQSa9x4UWNSZ5QTOmT/UUIefeTYI1buv/Q5uXPhjVEgBK8X67z70UNBfQ0B536upuTjNHNpXH3y5GRcYFFhtE9H0OTio0EEPzfYQKM7R7tIXkgkB/T1+bbCpdYe2Vz4bsMyyiulMGlRkpt4tE0hNSEhTSYAadTps1f81uzmr//q2yBz8ztOVBnN9OLjoDlH6PpzWmmbbc5eBI30mG7BCR6pCp5PpLCoE1ZUXX3AGNc12mlCyjzrgWm1n5iDb+7XjcP/jTzqDrFd/+1KjDdS0MyaxMZjagy2fwOkgwAoJkELpc9TRz6EdajmcnffQu/Z9+UIb3GyRblak5t/+PiQXqXZJUW4QYIWOtFOTgY46F1LAjrz84x8ycuxvpHO7LBD0h5551qm57DaFtJYdYFWwBEPCdQw+JDyqrdD8YKyKm+5zpse3+0HQbLYItybpgwvbZQdRpVqLyqzLwY2u7xh6LhuN5Wpo6LAp1VYYq+IWjhmfSnzAISRE7nsuZOCaMVJNymktO8PgEGaIAwBrsrRBBS7VVtwMbBZ7mVxwceGPkNaSzBC7DIBUz2QNVsgMUmE/8qt2Ej7er5rdmhsHF6dVQ1qrfeBidu/QBb6swfKZQQqdy7ei2qqv09Mxwqbv4QraUq1FF53tgZS7OcwaLDt2hWcJ7R2hdAR30QIxcExbVuIL4mZB9AUnn+ZsNZQQbto29vl81mD58lTRgChnBtuR9fmZDzoQOK3FmO3GYCIDLZjwrU9QYuvKDix7aaeZuZiuC06SmbnM4JvfneSczWGHgMQntGevockKQLFmH86N7fyU5ecClg1PnZgD39GZnAO/tPNU0dHPrcu1R39/QdCuHSIx321z6B5Qph3N9cziHcx4g9/NM641U7DiEnJMuo+OXFoP519RMxhKD9kVlpjn6O4LmTlsDggmfZK3CQY6TLHkOo4W8w7SskMAa70Ga2zXqK/B+Vc+kyIVTopyNhiuhXLbhKO5s4Ewidh8Oysc7Y46yDHtu+cCVgWPfXTdp8YlYOH6mzmmldPU3G67a7HcbjudDdsdPsnGXCUheRBh8xzjXySwus3S7Blhl1HPjcaReR19MC+DvWVm5BuNUk3GfMf9jmRQkOWnTkAwGWw61dNVc81VY3XdbmubE8mMkJoTR4c7b5vwxY9iY0sSB74PMy7ZGNkVGslzgwdLorEk0XbfNSYpweL8QzsC3zVMomB1uERSYgqbfko41DArsOiMNjTx8PlYPs2x0GBx8Rd02lFgvlSNNlgSBzgn590Gq8+2c7FBc9FUDeDi+Fi+EWdDR/NOSWZWxE/J5uo3yaAgKwaNtpuc9dLAsiVjBYsCFwqQhvyUURQ6jyt27fVP1y4HXxwrNkC6EGA1M+fhK1dJzzChWvA4lQ0GnVlxe9zxYOjV37xkybVbaEMyA5KWoX4PtxRF293epmxfIOX+ZZNlEEugxo+9EUP6Tq5yM50VSho72cddpbhu3HJqcn3SDnKN/FgHXtK+acpIHHe6J8seUFxaIzuNOLZNmkp8mveQPJsdWHajbbXPjNzxZZUuJ5juc5+nOaRQSBx3lIW9xtleaw3PdiUQpCiTO1j2FbrEiW0eQZeZw/l1BIXCdVLa77jH3buYAhhpnVmD5TsdTXcKuDqKrLvNxYmXaqsY/6pr4FQKxrTlsgYLX85lDrt21jw2x9Hdrq5BQE23bQZDB0umBaHv5wcFFg100gVdqdaSrB32JWhqAl2+FdVW9F1pPfP0FyWyyR4sn0ClWovPqJfe36Lm2pdTImSyycWbW7M4FykBaDDhBtrQds6r1o7KxvVuLq1lEp4187Sng4vbLevKKRGrrWapcbvClY3Gsq5Vq97FTqpPUxjZeaSkWgvr5PNh9X8ggUtM68uXFdJWvlPQ9W9VMsOLqUKpl7qCEvtcNmD5ZoDt08R+reXao2XgYtJBVreFTRtcdKUy8kFFHfa2b1XdIIYxO/MZr/nl7NAPAqx6dmjHtBpX2HIRaV+KSDwJgxFu5vqSToD57kR0mT+XBqVOuU9bKVgCPeozhfh4SGtx+Ud9msKdInuiGczl4SPTPNrOsw3bB/C6Ofx/132I+F0o9Xf7mFdVY3XxpWlBKNJegzVOWKGmUAAaVyQ05eam9qG87rxT37GBNVAmXZGrFj5RSTtzsp26COvK4QibVDLZmEJpg0lijNat7hxceOlSKHNyH4CFEtriO/KaqpmXAsu1JwDpZrBS2ceUGyJY5PZ4dqSjeRhfyGRu9ArBZTre3OiFlwb4rpHDSQLmd7/70GHR9SmOLM3BCxByX77hgBsUWJyTzu0J53JS4ctLcr5zQqI3U3AZA0OjmcvS7AKGu5mCpuoO/d68vx8UWNyNq64I9AjCT56iV/EiFCEfqM9O8c1AXRd18gNDTWGf/TKuq+sto658EaFZ27Qv4Uv7LYmcD/2ipkFoLP56OPlWY9f1cpKwQCxgfqDaIQVf/bEXrse2NWX57MFybce9tLkxSX4lkFBtXp4jR6LGT6IGM5ctSZ1xfNhcvBS6vhd9wdDdz3yIJe7CdYEoZlIke7CYdbepjjGFADNSR9DsK+RW7ttTfXXr/RvjmaLvHmir9zoBZfc+48x7LwCdCTmBH8kaLGoKQtPuSSQ6nAvKilqz90RP2zncjV68Rjp+soTitO+m2CE689mCxWRL8V5dS/0o6Ua48ZG0En4KBXxuKqBK+CcUxa+l6RttMx+6K7rr5GWq95ni4SzB4uNV7um2Y+YXZTJtc3Pv7iU4etdn4Nrtbbh2aweu3dpuiHj/yjLsX1mC/buX4fJH/63K1J/Y3yTB3mrri/OiKE6D5xrfyhas27Bzzs5a5xrR/KXc7SWS0OCzwTpy1x3wsy/tGz/yg79egyv/uVX9+/BnV+AXX94//u5Hf/sXXP7w405gcXfujCpy3RXdvoA8p7wUtoyzBAsbyPkVzM1XjaUbX6fkCJZpEzc4EBjb7+prAIXk0Nf32YLlg2sXwFozVbcRhzy2RQU4D41lt8FlzjFEsQ07rQGUq6Yy75Q1WC64KBTSGZhvNM4bLGybb8Ngs+35L+9kD5YAriiH2QVXDmBh29x+V23oPc59X2asj3oGAZYbrv5Gbi5gmU6lZyZHf+9u6vuAJaaOwYDVhqtfIecG1kh72bka+n3fGEi6lB0UWAYu3Hdu7w0PvbjxXUw5bqtNSrCwbquN6zHrnKNAcbkV874heczi+8GB1UUooet/sc6UYJFTzNmkrewiS+kzClYtKQVLioys3EKAVZvCKi0lfjhT5APrl+9+0JDm9x64d/xvSeQdHXHzAE3UK+um4ZVaCLAk3eIDy/e8BCzJ73/ayihYAlOoYMVjr2ApWPHUCJ5QsBQsASbxRRQsBSueGsETCpaCJcAkvoiCpWDFUyN4QsFSsASYxBdRsBSseGoETyhYCpYAk/giCpaCFU+N4AkFS8ESYBJfRMFSsOKpETyhYClYAkziiyhYClY8NYInFCwFS4BJfBEFq5YZPWn8+pEviqT5+OW/2+V6OYom+uHMCylYE43VSNDx8uHPAyb/8H0wWciZK/+wivR3HC1zboLNU7DGGqt5Zw0mBvn+F+7zwkV2j87l9tZgD8+pgIJlCZ5mzvvGvXfCt/bfw8JFoQolhZtT/87tZxUsS/Rchhs0h0fuvAP2rSzBvpVl+POHH8PvP/iI6bBhHShNTZyCRSSMZxBLKE/bublCneBLlhZ69tP6vYLF9GwoMUfzEdVU3OBQsDwqw6+9dAbo07YKlsAWjXKibh8wdxZe2Fyv7i7Uj1sCCpbSkUQCClYSsWqlCpYykEQCClYSsWqlCpYykEQCClYSsWqlCpYykEQCClYSsWqlCpYykEQCClYSsWqlCpYykEQCClYSsWqlCpYykEQCClYSsWqlCpYykEQCClYSsWqlCpYykEQCClYSsWql/wOGcWJaknA8VQAAAABJRU5ErkJggg==;strokeWidth=2;points=[];labelBackgroundColor=none;rounded=0;html=1;whiteSpace=wrap;" vertex="1" parent="1">
            <mxGeometry x="570" y="210" width="40" height="40" as="geometry" />
          </mxCell>
        </UserObject>
        <mxCell id="219CYF1WuWqsUgkXM-5G-114" value="" style="group" vertex="1" connectable="0" parent="1">
          <mxGeometry x="417" y="210" width="153" height="50" as="geometry" />
        </mxCell>
        <mxCell id="219CYF1WuWqsUgkXM-5G-115" value="&lt;div&gt;The Dalton Girls is&amp;nbsp;&lt;span style=&quot;background-color: transparent; color: light-dark(rgb(0, 0, 0), rgb(255, 255, 255));&quot;&gt;directed by Reginald Le Borg ...&lt;/span&gt;&lt;/div&gt;" style="rounded=1;whiteSpace=wrap;html=1;fillColor=#d5e8d4;strokeColor=#82b366;dashed=1;fontFamily=Comic Sans MS;" vertex="1" parent="219CYF1WuWqsUgkXM-5G-114">
          <mxGeometry x="12.784366576819409" width="140.21563342318058" height="40" as="geometry" />
        </mxCell>
        <UserObject label="" tags="Background" id="219CYF1WuWqsUgkXM-5G-116">
          <mxCell style="vsdxID=3;fillColor=none;gradientColor=none;image;aspect=fixed;image=data:image/png,iVBORw0KGgoAAAANSUhEUgAAAJYAAACWCAYAAAA8AXHiAAAAAXNSR0IArs4c6QAACiJJREFUeF7tnU1sFVUUx88MJCaaEAxgBDUWY/gIGyyEYEUtsjHGkhhdk1ZMu8GVkEhc0C4UE3ClGwhJK2s/EmqMG6RGeBhDH24IfYSEIloW0CAkElnwRs+jY14f8zrn3rlz7503/7uh0Dv3439+73/v3DnzCAgFCuSgQJBDm2gSChDAAgS5KACwcpEVjQIsMJCLAgArF1nRKMACA7koALBykRWNAiwwkIsCACsXWdEowAIDuSgAsHKRFY0CLDCQiwIAKxdZ0WhHg7Vu87be6P79AxQEvQUJ9TSPMyKaCIl+onp9Yuq3Xxr/VrTSkWCt27i1KwrDU0TUVbSAPDTeKJoIFi0amTp3eqJIc+k4sBpQBcFogVxKyst0EIYDRQGs48Ba090zGhD1S6NVtHoB0QjV62O+L5EdB9ba7p4rHbEELkz8dED05VS1MuzrB6OjwGps1ut13luVorB7+QoXwCo+gtNBvb7dt6WxVGCt79tBjy5b6jVKv5+t0o0ar+ZKxTu4SgXW6wf30qPLHleKmIvKd2dv0Q/7D6t27dW+C2Cphs9S/auVKk2Ofa3amzdwASzV0Fms//Nnx3SWRX71yvmmHmBZBEW1K80lsdGNa7gAlmq0LdfXdS3XcAEsy6Codsd3iAxXc3lq1crGX/+cuZ7aXEQ0dqlaGUitaLgCwDIsqOnm2i2Hx498TvtHPvEWLuNg8UNg0+KK2wvD3ohotF39lz94jx5bvrQQRw7Nc0haDg8Of0RbNr1Au4be9xIuI2Ct6+4ZjqLo1SJlFPB5FkO2fM1ztHzNalqxdrWYX9sVk44e3up7gxguLjv63vEOrkxgddKzOQZtfd9r9GxPt21uUvtLWg7ZrY4f/eL/a/cPf0zfjn+f2hYRTdeqldw/RdpgdRJUzdFgwDb1v+2Vg7XbZ01NnpkHkhQuGxt6bbA6PT2FnYsdzJdHQEn7rJPjX1F8hxgT5gtcWcCKJL5b5DoMVQyY63nw4x3eazUXvjPcsvnhpVsKV56HqFpgrevu6V/o7st1EEz3z1kR7F4uy8XxH+ni+Ml5Q+DNO2/ik4pruACWkBZ2r1f27na2NCYdlDbfGWaEa2CqWhkTSiGqlgtYR/ZtEHXuqtL1m/do8tJtGj9zQ2kILuHSAYsnJ3Qu4/lcuYA1eexFpYC5qjzzH2B9H87ft6SNxdW+S3Lk0G7swnMuo8cQpQaLA8GuNTx6OY2neb93AVe7Iwc+z4oL3yHGd4lbujc2fo7/LoHL5DFE6cHioAweukCTtTtKcHFlm5t63RSaBlwrn2wAJjhANfbuIsAionO1OzR06IIyWLbh+mbwwSOcnIuRJRFgzUVJ17VswpV0lpUHZAFR5rtEgDUXmaS9lkreEx+k8qOgPAsvh1cr5xsHpfxzjiWzawGsuei0u0NUyXuyAVcrTM2A/X3zrwZwd2fjP29p5cxzH1ldC2A1RSppOeTncVykeU8u4FrIuRg0PgO7eenKQ4+EFnS8KJqonT+7XdcVAVaTckdP/EFHTlybp2XzYxPJLTtf7BtczRPiZZQfDwmW0kzLIcBqUj3p7rD1scmuwT306+T51A+yz3DFe7XWZ4+tk8qyHAKsJjWT9lmtCXVcXfiYxGvn4nmkno1lWA4BVsvHlB/xMGDNJUvek8/OxXNc8PUygJW6MokrtNvAtybUqTiXzRN68UTnKial4zS1ob3PgmO1RIKfG7ZmPZjIe/IVrrTviKhVK1qMaF2UluhXlOyGpE932p1h0jWSPZePufQ8F4Cl6vGa9ZNO4PcM7aY9g+8u2KIULpfJgkkTAFiaoKheJjlyaNem5JyLnYu/p8uXArAsRaJdpkO8eecUFC5xrpNO3pNP+y2A5RgsSfd85iXJe/JpvwWwJJE1UEcnXVmnW1+WRIClEz3Na7LkZql0yV9S4vo7IwCWSsQy1mXX+q5yg87VbtP12Qen8K2n8Rm7aFzug2sBLBORNNBGDFicI8+vkXFRfZUsHopr1wJYBqDIswkGbmb2HlVrdxpOJ305g5dChstVAViulNfsl48tRkYvpy6hrpdDgKUZYJeXxXu11uTB1jG5XA4BlktCMvaddoTh8sAUYGUMruvLFzrCcLnPAliuycjYP8ASCNjJaTOC6WtVSUrHiRtyuYGHY2mF05+LAJYgFnAsgUgtVQCWQDOAJRAJYKmLBLDUNYNjCTQDWAKR4FjqIgEsdc3gWALN8gCLT6elD24FQ8y9yqrlj9CmtUvE/QAsgVSmweJv0+OHtkUrDNfwwPMiwACWILomwdL5clnBEK1VYbjGP03/j50AliAkJsFKevNYMARvqgCs5FA4fxO66I61ee0SkvyHCXAsgReYdCzetA8dvpCaECcYlpMqR/dtwB4rQXnnjsVjiu8IZ2b/cQKHbqd9PU8QL4WSAscSqGTSsQTddUQVgCUII8ASiISTd3WRAJa6ZnAsgWYASyASHEtdJIClrhkcS6AZwBKIBMdSFwlgqWsGxxJoZhoszmo4euJa4xX1IpU3e1bQ0M5nREMGWAKZTILFUPGrUUUtfS+taGQ4pBWAlaYQEZkECw+h3X6dUce+/sXfa8Cf5iIXydePw7EEETbpWGnfayAYjtMqgzufFu2zAJYgTCbB4u7izXuRskj54TM27+1h8SK7QcBy4avAsQQhNO1Ygi4LXwVgCUIIsAQi4eRdXSSApa4ZHEugGcASiATHUhcJYKlrBscSaAawBCLBsdRFAljqmsGxBJoBLIFIcCx1kQCWumZwLIFmAEsgEhxLXSSApa4ZHEugGcASiATHUhcJYKlrBscSaAawBCLBsdRFAljqmsGxBJoBLIFIcCx1kQCWumZwLIFmAEsgEhxLXSSApa7ZQo6l3pq9K2rVilb6utZFAEs9sABLoBnAEoiksBSqt2btiulatbJapzc4lo5qGtcU0bEiorFL1cqAxnQJYOmopnFNEcEKwnD71LnTExrTBVg6oulcUzSwAqKRqWplWGeufA0cS1c5xesKBNZ0EIYDuk4VywKwFAHRrZ4GVkCktZfRHU/idWE4nRUogGU0IumNpYClffeV3rObGnAsS7oDLIHQOMcSiKR2jgXHYr0AFsBKUwBLYZpChn6PpVAgJBxLIBKWQnWRAJa6ZnAsgWYASyASHEtdpDSw1Fss/RW4K2zcFW7e1hvV66dKj4M5AQBWA6yNW7uiMLxiTtdyt5QlPcVX5fSOGwCW0XhmzSQwOhhDjWmBNXdIOhwRHTA0jlI3o5tX7rNo+mCxawXBKAVBr88T9H1sWZLpfJ6bNljxXovCsB/OpRViI3lPWj1buCgTWM3j4w09LV7cZWHMhe/CVM6Tz0IYA8vnSWJs9hUAWPY1L0WPAKsUYbY/SYBlX/NS9AiwShFm+5MEWPY1L0WPAKsUYbY/SYBlX/NS9AiwShFm+5MEWPY1L0WPAKsUYbY/SYBlX/NS9AiwShFm+5P8Fx/Maw/ul5ZtAAAAAElFTkSuQmCC;strokeWidth=2;points=[];labelBackgroundColor=none;rounded=0;html=1;whiteSpace=wrap;" vertex="1" parent="219CYF1WuWqsUgkXM-5G-114">
            <mxGeometry y="20" width="21.883364753906797" height="21.883364753906797" as="geometry" />
          </mxCell>
        </UserObject>
        <mxCell id="219CYF1WuWqsUgkXM-5G-117" value="" style="group;align=left;horizontal=1;spacing=2;" vertex="1" connectable="0" parent="1">
          <mxGeometry x="420" y="313" width="166" height="50" as="geometry" />
        </mxCell>
        <mxCell id="219CYF1WuWqsUgkXM-5G-118" value="Reginald Le Borg was ...&amp;nbsp;&lt;span style=&quot;background-color: transparent;&quot;&gt;died &lt;/span&gt;&lt;span style=&quot;background-color: transparent; color: light-dark(rgb(0, 0, 0), rgb(255, 255, 255));&quot;&gt;from a heart attack.&lt;/span&gt;" style="rounded=1;whiteSpace=wrap;html=1;fillColor=#d5e8d4;strokeColor=#82b366;dashed=1;fontFamily=Comic Sans MS;align=center;" vertex="1" parent="219CYF1WuWqsUgkXM-5G-117">
          <mxGeometry x="0.0006199460916480604" width="152.1293800539084" height="40" as="geometry" />
        </mxCell>
        <UserObject label="" tags="Background" id="219CYF1WuWqsUgkXM-5G-119">
          <mxCell style="vsdxID=3;fillColor=none;gradientColor=none;image;aspect=fixed;image=data:image/png,iVBORw0KGgoAAAANSUhEUgAAAJYAAACWCAYAAAA8AXHiAAAAAXNSR0IArs4c6QAACiJJREFUeF7tnU1sFVUUx88MJCaaEAxgBDUWY/gIGyyEYEUtsjHGkhhdk1ZMu8GVkEhc0C4UE3ClGwhJK2s/EmqMG6RGeBhDH24IfYSEIloW0CAkElnwRs+jY14f8zrn3rlz7503/7uh0Dv3439+73/v3DnzCAgFCuSgQJBDm2gSChDAAgS5KACwcpEVjQIsMJCLAgArF1nRKMACA7koALBykRWNAiwwkIsCACsXWdEowAIDuSgAsHKRFY0CLDCQiwIAKxdZ0WhHg7Vu87be6P79AxQEvQUJ9TSPMyKaCIl+onp9Yuq3Xxr/VrTSkWCt27i1KwrDU0TUVbSAPDTeKJoIFi0amTp3eqJIc+k4sBpQBcFogVxKyst0EIYDRQGs48Ba090zGhD1S6NVtHoB0QjV62O+L5EdB9ba7p4rHbEELkz8dED05VS1MuzrB6OjwGps1ut13luVorB7+QoXwCo+gtNBvb7dt6WxVGCt79tBjy5b6jVKv5+t0o0ar+ZKxTu4SgXW6wf30qPLHleKmIvKd2dv0Q/7D6t27dW+C2Cphs9S/auVKk2Ofa3amzdwASzV0Fms//Nnx3SWRX71yvmmHmBZBEW1K80lsdGNa7gAlmq0LdfXdS3XcAEsy6Codsd3iAxXc3lq1crGX/+cuZ7aXEQ0dqlaGUitaLgCwDIsqOnm2i2Hx498TvtHPvEWLuNg8UNg0+KK2wvD3ohotF39lz94jx5bvrQQRw7Nc0haDg8Of0RbNr1Au4be9xIuI2Ct6+4ZjqLo1SJlFPB5FkO2fM1ztHzNalqxdrWYX9sVk44e3up7gxguLjv63vEOrkxgddKzOQZtfd9r9GxPt21uUvtLWg7ZrY4f/eL/a/cPf0zfjn+f2hYRTdeqldw/RdpgdRJUzdFgwDb1v+2Vg7XbZ01NnpkHkhQuGxt6bbA6PT2FnYsdzJdHQEn7rJPjX1F8hxgT5gtcWcCKJL5b5DoMVQyY63nw4x3eazUXvjPcsvnhpVsKV56HqFpgrevu6V/o7st1EEz3z1kR7F4uy8XxH+ni+Ml5Q+DNO2/ik4pruACWkBZ2r1f27na2NCYdlDbfGWaEa2CqWhkTSiGqlgtYR/ZtEHXuqtL1m/do8tJtGj9zQ2kILuHSAYsnJ3Qu4/lcuYA1eexFpYC5qjzzH2B9H87ft6SNxdW+S3Lk0G7swnMuo8cQpQaLA8GuNTx6OY2neb93AVe7Iwc+z4oL3yHGd4lbujc2fo7/LoHL5DFE6cHioAweukCTtTtKcHFlm5t63RSaBlwrn2wAJjhANfbuIsAionO1OzR06IIyWLbh+mbwwSOcnIuRJRFgzUVJ17VswpV0lpUHZAFR5rtEgDUXmaS9lkreEx+k8qOgPAsvh1cr5xsHpfxzjiWzawGsuei0u0NUyXuyAVcrTM2A/X3zrwZwd2fjP29p5cxzH1ldC2A1RSppOeTncVykeU8u4FrIuRg0PgO7eenKQ4+EFnS8KJqonT+7XdcVAVaTckdP/EFHTlybp2XzYxPJLTtf7BtczRPiZZQfDwmW0kzLIcBqUj3p7rD1scmuwT306+T51A+yz3DFe7XWZ4+tk8qyHAKsJjWT9lmtCXVcXfiYxGvn4nmkno1lWA4BVsvHlB/xMGDNJUvek8/OxXNc8PUygJW6MokrtNvAtybUqTiXzRN68UTnKial4zS1ob3PgmO1RIKfG7ZmPZjIe/IVrrTviKhVK1qMaF2UluhXlOyGpE932p1h0jWSPZePufQ8F4Cl6vGa9ZNO4PcM7aY9g+8u2KIULpfJgkkTAFiaoKheJjlyaNem5JyLnYu/p8uXArAsRaJdpkO8eecUFC5xrpNO3pNP+y2A5RgsSfd85iXJe/JpvwWwJJE1UEcnXVmnW1+WRIClEz3Na7LkZql0yV9S4vo7IwCWSsQy1mXX+q5yg87VbtP12Qen8K2n8Rm7aFzug2sBLBORNNBGDFicI8+vkXFRfZUsHopr1wJYBqDIswkGbmb2HlVrdxpOJ305g5dChstVAViulNfsl48tRkYvpy6hrpdDgKUZYJeXxXu11uTB1jG5XA4BlktCMvaddoTh8sAUYGUMruvLFzrCcLnPAliuycjYP8ASCNjJaTOC6WtVSUrHiRtyuYGHY2mF05+LAJYgFnAsgUgtVQCWQDOAJRAJYKmLBLDUNYNjCTQDWAKR4FjqIgEsdc3gWALN8gCLT6elD24FQ8y9yqrlj9CmtUvE/QAsgVSmweJv0+OHtkUrDNfwwPMiwACWILomwdL5clnBEK1VYbjGP03/j50AliAkJsFKevNYMARvqgCs5FA4fxO66I61ee0SkvyHCXAsgReYdCzetA8dvpCaECcYlpMqR/dtwB4rQXnnjsVjiu8IZ2b/cQKHbqd9PU8QL4WSAscSqGTSsQTddUQVgCUII8ASiISTd3WRAJa6ZnAsgWYASyASHEtdJIClrhkcS6AZwBKIBMdSFwlgqWsGxxJoZhoszmo4euJa4xX1IpU3e1bQ0M5nREMGWAKZTILFUPGrUUUtfS+taGQ4pBWAlaYQEZkECw+h3X6dUce+/sXfa8Cf5iIXydePw7EEETbpWGnfayAYjtMqgzufFu2zAJYgTCbB4u7izXuRskj54TM27+1h8SK7QcBy4avAsQQhNO1Ygi4LXwVgCUIIsAQi4eRdXSSApa4ZHEugGcASiATHUhcJYKlrBscSaAawBCLBsdRFAljqmsGxBJoBLIFIcCx1kQCWumZwLIFmAEsgEhxLXSSApa4ZHEugGcASiATHUhcJYKlrBscSaAawBCLBsdRFAljqmsGxBJoBLIFIcCx1kQCWumZwLIFmAEsgEhxLXSSApa7ZQo6l3pq9K2rVilb6utZFAEs9sABLoBnAEoiksBSqt2btiulatbJapzc4lo5qGtcU0bEiorFL1cqAxnQJYOmopnFNEcEKwnD71LnTExrTBVg6oulcUzSwAqKRqWplWGeufA0cS1c5xesKBNZ0EIYDuk4VywKwFAHRrZ4GVkCktZfRHU/idWE4nRUogGU0IumNpYClffeV3rObGnAsS7oDLIHQOMcSiKR2jgXHYr0AFsBKUwBLYZpChn6PpVAgJBxLIBKWQnWRAJa6ZnAsgWYASyASHEtdpDSw1Fss/RW4K2zcFW7e1hvV66dKj4M5AQBWA6yNW7uiMLxiTtdyt5QlPcVX5fSOGwCW0XhmzSQwOhhDjWmBNXdIOhwRHTA0jlI3o5tX7rNo+mCxawXBKAVBr88T9H1sWZLpfJ6bNljxXovCsB/OpRViI3lPWj1buCgTWM3j4w09LV7cZWHMhe/CVM6Tz0IYA8vnSWJs9hUAWPY1L0WPAKsUYbY/SYBlX/NS9AiwShFm+5MEWPY1L0WPAKsUYbY/SYBlX/NS9AiwShFm+5MEWPY1L0WPAKsUYbY/SYBlX/NS9AiwShFm+5P8Fx/Maw/ul5ZtAAAAAElFTkSuQmCC;strokeWidth=2;points=[];labelBackgroundColor=none;rounded=0;html=1;whiteSpace=wrap;" vertex="1" parent="219CYF1WuWqsUgkXM-5G-117">
            <mxGeometry x="-10" y="24.68" width="25.320999754962024" height="25.320999754962024" as="geometry" />
          </mxCell>
        </UserObject>
        <UserObject label="" tags="Background" id="219CYF1WuWqsUgkXM-5G-120">
          <mxCell style="vsdxID=1;fillColor=none;gradientColor=none;image;aspect=fixed;image=data:image/png,iVBORw0KGgoAAAANSUhEUgAAAJYAAACWCAYAAAA8AXHiAAAAAXNSR0IArs4c6QAAEPhJREFUeF7tnc2PHUcRwGu86w0iH1Jiy4YEFBth4pO1UhxhFJvYBy7JIZyRwLFyQxwCEgoXlKw4QISEckBIHKI48A+QQ3Lh4A1rhKXY0sri4BCEN0IJGNmJhBNE7N0M1Lzp93pqqrur502/15NX75J4X0+/nupfV1VXd1cXoB+VQAIJFAnq1CpVAqBgKQRJJKBgJRGrVqpgKQNJJKBgJRGrVqpgKQNJJKBgJRGrVqpgKQNJJKBgJRGrVqpgKQNJJKBgJRGrVqpgKQNJJKBgJRGrVqpgKQNJJKBgJRGrVqpgKQNJJKBgJRGrVqpgORg4unr8pASPZVjeurC5viUpu0hlFCymt4+tnjywDTtXJSAsw9JBBastKQWLoWekrYpzErAKgDNvbm6clZRdpDIKFtPbj6yeeKoEeFkCgoLFS0nBYjXW158HKJ+bfFWeahabaLMS4OylzY0zEggXqYyCxfT2w6snXi4AnsKvSoCtS5sbB+1iD6+euFoAHKj/tn5xc4OAt0gIqcYS9/bR1RPoX5lZYQsc+3sOPPEPfYoLLoTGGs3yto2GgYub59d9fdrUSMXaxc0/PE801lij4d9DM0M7dLEo4YmFAOvoatNnuri54X3vo6snyglIbbCocx8Ga1LfovhkChZRXe0YVnmKajgKVmhmaIOqYGVs/7HzY4KSMRqLgsVpNxrnSg1W7Pvm0HWD01joOP9/1B/YDUunpHAhCAUUYx/LF9C0tZHPMY/RQlin6ewSyq2Qj2eD0eV9FaxICZDZGiae6CXqjRphB3ZOlgCnrdkgG2owTSYhB/zzOkDxBsAn63046DgYSihwklANCIQ8ZjBFirb34oPRWBSqiQaAs7thaU2qvcxzqEU+AXgMQbJiUg0B+/whV3usCtYByrUukFHTbb3rYOAaBFihTowZza5Oc4T5WqEGS2M1Qg6BIb++DEtnJPD3+a69q6GICrMHiwoaIRqZnbam8ZnG0PofaieU2y6AN5ZgaV0CwSQ+tuskQPkY+n4u7VebM6d2rScEuIxEtusUayWUp+16YwZSBAu9Fs0aLA6qAsoz6PxSH8SOOy3DrrMGjNrkPcd1OMIUA5JE8iNAdp2kMNjP4gCw4XVDPwp1cO+aO1zZguWDynQSaozbsHOOgWa9AHiFOuPT+mUSsJozumr7DaOFRs74LoA1ro34nRlApr6hwZUlWLw2akfA4/0ddx02EMbEYYiirMMUJZQPmjIFFO8UUG5h6AD/FgofGDMXMpV1/c5Fbd4/lL1T7KCYtnyWYOFLcUL0LZ1geY/58e5AmIQbMNZlb5eRidf4fWhWfTEyt/keI+ucLDh2tWa7syJbsEZwNXYZBGM5XOyHmpSmqarWEKuQgwyhcKkaMiigeIUuXk/MGjcI2ktHzba2ZUG384RbN7sSWYOFYmgHIv2qvx7Z1e5P1z6psOZod8Ade/ZWf/z4xnVx7xg/itNiVhu2QqEI3gT6QRQ3MlHB7MHiHfRufoUEKARoz7FH4Z5Dh2Flz14wQNnyN3DdunEd/v32Fbj59ltw8y9XnF3kAyzUr/z++27vH/qtPr/PHqwu/hYVkKXFWJN3/xNPVo888MQ3O8sWYbtZQ3b9T+dd9UT5REPzq+yXHgRYHFzSOI4nJAEI1N5jx1mt1Jmw2lxev3Ae3nvt1VY107R7SLtVBwMW529hgNO3Tug6xnX3Vw7DwW8/3TtQlCLUYu+9/ipQDTaKU7md+9FAajrro7rz9qsGqbGw0TH+Fufwor+EQCFYs/wgYG+9+ALj+PO+0pDiVS45DkpjOfwt5rADPb4FlXY68pOfi3lCU4ZOOX4QDHTU8YMOPX6wvr1ffdTp4HPaSwoXnQkPyQSa9x4UWNSZ5QTOmT/UUIefeTYI1buv/Q5uXPhjVEgBK8X67z70UNBfQ0B536upuTjNHNpXH3y5GRcYFFhtE9H0OTio0EEPzfYQKM7R7tIXkgkB/T1+bbCpdYe2Vz4bsMyyiulMGlRkpt4tE0hNSEhTSYAadTps1f81uzmr//q2yBz8ztOVBnN9OLjoDlH6PpzWmmbbc5eBI30mG7BCR6pCp5PpLCoE1ZUXX3AGNc12mlCyjzrgWm1n5iDb+7XjcP/jTzqDrFd/+1KjDdS0MyaxMZjagy2fwOkgwAoJkELpc9TRz6EdajmcnffQu/Z9+UIb3GyRblak5t/+PiQXqXZJUW4QYIWOtFOTgY46F1LAjrz84x8ycuxvpHO7LBD0h5551qm57DaFtJYdYFWwBEPCdQw+JDyqrdD8YKyKm+5zpse3+0HQbLYItybpgwvbZQdRpVqLyqzLwY2u7xh6LhuN5Wpo6LAp1VYYq+IWjhmfSnzAISRE7nsuZOCaMVJNymktO8PgEGaIAwBrsrRBBS7VVtwMbBZ7mVxwceGPkNaSzBC7DIBUz2QNVsgMUmE/8qt2Ej7er5rdmhsHF6dVQ1qrfeBidu/QBb6swfKZQQqdy7ei2qqv09Mxwqbv4QraUq1FF53tgZS7OcwaLDt2hWcJ7R2hdAR30QIxcExbVuIL4mZB9AUnn+ZsNZQQbto29vl81mD58lTRgChnBtuR9fmZDzoQOK3FmO3GYCIDLZjwrU9QYuvKDix7aaeZuZiuC06SmbnM4JvfneSczWGHgMQntGevockKQLFmH86N7fyU5ecClg1PnZgD39GZnAO/tPNU0dHPrcu1R39/QdCuHSIx321z6B5Qph3N9cziHcx4g9/NM641U7DiEnJMuo+OXFoP519RMxhKD9kVlpjn6O4LmTlsDggmfZK3CQY6TLHkOo4W8w7SskMAa70Ga2zXqK/B+Vc+kyIVTopyNhiuhXLbhKO5s4Ewidh8Oysc7Y46yDHtu+cCVgWPfXTdp8YlYOH6mzmmldPU3G67a7HcbjudDdsdPsnGXCUheRBh8xzjXySwus3S7Blhl1HPjcaReR19MC+DvWVm5BuNUk3GfMf9jmRQkOWnTkAwGWw61dNVc81VY3XdbmubE8mMkJoTR4c7b5vwxY9iY0sSB74PMy7ZGNkVGslzgwdLorEk0XbfNSYpweL8QzsC3zVMomB1uERSYgqbfko41DArsOiMNjTx8PlYPs2x0GBx8Rd02lFgvlSNNlgSBzgn590Gq8+2c7FBc9FUDeDi+Fi+EWdDR/NOSWZWxE/J5uo3yaAgKwaNtpuc9dLAsiVjBYsCFwqQhvyUURQ6jyt27fVP1y4HXxwrNkC6EGA1M+fhK1dJzzChWvA4lQ0GnVlxe9zxYOjV37xkybVbaEMyA5KWoX4PtxRF293epmxfIOX+ZZNlEEugxo+9EUP6Tq5yM50VSho72cddpbhu3HJqcn3SDnKN/FgHXtK+acpIHHe6J8seUFxaIzuNOLZNmkp8mveQPJsdWHajbbXPjNzxZZUuJ5juc5+nOaRQSBx3lIW9xtleaw3PdiUQpCiTO1j2FbrEiW0eQZeZw/l1BIXCdVLa77jH3buYAhhpnVmD5TsdTXcKuDqKrLvNxYmXaqsY/6pr4FQKxrTlsgYLX85lDrt21jw2x9Hdrq5BQE23bQZDB0umBaHv5wcFFg100gVdqdaSrB32JWhqAl2+FdVW9F1pPfP0FyWyyR4sn0ClWovPqJfe36Lm2pdTImSyycWbW7M4FykBaDDhBtrQds6r1o7KxvVuLq1lEp4187Sng4vbLevKKRGrrWapcbvClY3Gsq5Vq97FTqpPUxjZeaSkWgvr5PNh9X8ggUtM68uXFdJWvlPQ9W9VMsOLqUKpl7qCEvtcNmD5ZoDt08R+reXao2XgYtJBVreFTRtcdKUy8kFFHfa2b1XdIIYxO/MZr/nl7NAPAqx6dmjHtBpX2HIRaV+KSDwJgxFu5vqSToD57kR0mT+XBqVOuU9bKVgCPeozhfh4SGtx+Ud9msKdInuiGczl4SPTPNrOsw3bB/C6Ofx/132I+F0o9Xf7mFdVY3XxpWlBKNJegzVOWKGmUAAaVyQ05eam9qG87rxT37GBNVAmXZGrFj5RSTtzsp26COvK4QibVDLZmEJpg0lijNat7hxceOlSKHNyH4CFEtriO/KaqpmXAsu1JwDpZrBS2ceUGyJY5PZ4dqSjeRhfyGRu9ArBZTre3OiFlwb4rpHDSQLmd7/70GHR9SmOLM3BCxByX77hgBsUWJyTzu0J53JS4ctLcr5zQqI3U3AZA0OjmcvS7AKGu5mCpuoO/d68vx8UWNyNq64I9AjCT56iV/EiFCEfqM9O8c1AXRd18gNDTWGf/TKuq+sto658EaFZ27Qv4Uv7LYmcD/2ipkFoLP56OPlWY9f1cpKwQCxgfqDaIQVf/bEXrse2NWX57MFybce9tLkxSX4lkFBtXp4jR6LGT6IGM5ctSZ1xfNhcvBS6vhd9wdDdz3yIJe7CdYEoZlIke7CYdbepjjGFADNSR9DsK+RW7ttTfXXr/RvjmaLvHmir9zoBZfc+48x7LwCdCTmBH8kaLGoKQtPuSSQ6nAvKilqz90RP2zncjV68Rjp+soTitO+m2CE689mCxWRL8V5dS/0o6Ua48ZG0En4KBXxuKqBK+CcUxa+l6RttMx+6K7rr5GWq95ni4SzB4uNV7um2Y+YXZTJtc3Pv7iU4etdn4Nrtbbh2aweu3dpuiHj/yjLsX1mC/buX4fJH/63K1J/Y3yTB3mrri/OiKE6D5xrfyhas27Bzzs5a5xrR/KXc7SWS0OCzwTpy1x3wsy/tGz/yg79egyv/uVX9+/BnV+AXX94//u5Hf/sXXP7w405gcXfujCpy3RXdvoA8p7wUtoyzBAsbyPkVzM1XjaUbX6fkCJZpEzc4EBjb7+prAIXk0Nf32YLlg2sXwFozVbcRhzy2RQU4D41lt8FlzjFEsQ07rQGUq6Yy75Q1WC64KBTSGZhvNM4bLGybb8Ngs+35L+9kD5YAriiH2QVXDmBh29x+V23oPc59X2asj3oGAZYbrv5Gbi5gmU6lZyZHf+9u6vuAJaaOwYDVhqtfIecG1kh72bka+n3fGEi6lB0UWAYu3Hdu7w0PvbjxXUw5bqtNSrCwbquN6zHrnKNAcbkV874heczi+8GB1UUooet/sc6UYJFTzNmkrewiS+kzClYtKQVLioys3EKAVZvCKi0lfjhT5APrl+9+0JDm9x64d/xvSeQdHXHzAE3UK+um4ZVaCLAk3eIDy/e8BCzJ73/ayihYAlOoYMVjr2ApWPHUCJ5QsBQsASbxRRQsBSueGsETCpaCJcAkvoiCpWDFUyN4QsFSsASYxBdRsBSseGoETyhYCpYAk/giCpaCFU+N4AkFS8ESYBJfRMFSsOKpETyhYClYAkziiyhYClY8NYInFCwFS4BJfBEFq5YZPWn8+pEviqT5+OW/2+V6OYom+uHMCylYE43VSNDx8uHPAyb/8H0wWciZK/+wivR3HC1zboLNU7DGGqt5Zw0mBvn+F+7zwkV2j87l9tZgD8+pgIJlCZ5mzvvGvXfCt/bfw8JFoQolhZtT/87tZxUsS/Rchhs0h0fuvAP2rSzBvpVl+POHH8PvP/iI6bBhHShNTZyCRSSMZxBLKE/bublCneBLlhZ69tP6vYLF9GwoMUfzEdVU3OBQsDwqw6+9dAbo07YKlsAWjXKibh8wdxZe2Fyv7i7Uj1sCCpbSkUQCClYSsWqlCpYykEQCClYSsWqlCpYykEQCClYSsWqlCpYykEQCClYSsWqlCpYykEQCClYSsWqlCpYykEQCClYSsWqlCpYykEQCClYSsWqlCpYykEQCClYSsWqlCpYykEQCClYSsWql/wOGcWJaknA8VQAAAABJRU5ErkJggg==;strokeWidth=2;points=[];labelBackgroundColor=none;rounded=0;html=1;whiteSpace=wrap;" vertex="1" parent="1">
            <mxGeometry x="570" y="313" width="40" height="40" as="geometry" />
          </mxCell>
        </UserObject>
        <UserObject label="" tags="Background" id="219CYF1WuWqsUgkXM-5G-123">
          <mxCell style="vsdxID=2;fillColor=none;gradientColor=none;image;aspect=fixed;image=data:image/png,iVBORw0KGgoAAAANSUhEUgAAAJ4AAACWCAYAAAAv1jEWAAAAAXNSR0IArs4c6QAAFiBJREFUeF7tnXuMXUUdx3/n3rVULOxC3d0uqLv9x9aAFNQqEoSWECEqL2MiDym7EjVKMBBNVBRbBGOIGhLR+ojSrZVYCEEKSsBHH0jAUCIUxVj+6a6m3e5W7S6tBpDu1e/dzjL3d+d57jlnzr3nnMRIunNm5sx87u81v5mJqHzKEQgwAlGANssmyxGgErwSgiAjUIIXZNjLRkvwSgaCjEAJXpBhLxstwSsZCDICJXhBhr1stASvZCDICJTgBRn2stESvJKBICNQghdk2MtGS/BKBoKMQAlekGEvGy3BKxkIMgIleEGGvWy0BK9kIMgIlODFGPbll64biqiyQbwaEY395YGvjsSoqrCvlODFmHqAV6HKHulVgLc0RlWFfaUETzP1ExMTQ9TVNVSt1YZqtWiIotogitYoGhqfOLhwZO3mM8Wri7uPfem+b67ZLEnAHUeiaIxefXVsYGBgrLB0GT68BI+IAFm1Wl0FwGoRnRsRrTLBsv+fh+iKL/1svsiSxcfRz7/xMc0rNQHe9ohoR19f32gJIhU39X3iwIFVlVlaRRGtjQMC4JMfwOf+1GHcPhtFGwd6e7e7v9c5JQsl8SDZKpWu4biwpTPtxYSw48HLJ2w6hGtjVIs29vf3rksH8vzU2rHgtRdwHIg5AGdnXx3tVOek48CrA1etriWKhtP6fR/+z8t05U13z1ffvWghbbrtyhSa61wAOwq8yckD67Kw3wDeRTfcNQ/am/q6UwJPNNF5KrgjwJuamhquUTS/kpCC6GmoMnvwXgNwNopGOsETbmvwoFajatcGW9wtaRDDgTcP4Gh/X19bL9G1LXj1OFyNtiUNlUt94cFDL2tj7Sz92hK8NGw5BIT3/2MuKLzkjceRKSDMwes94Q1008fPd2G2qczpy06K9d7cS+1r+7UVeEmpVkC28aGn6dnde+vTx1chBAmA4oL3LqPTl53cACIHLy45qP+Oz10S93XpvdrY7JEjq9sp9NI24CWhWh954q/06JO76dnd+7wnG5Bc86GVhP/PH3hHVW8bwdcW4LUKHUC7fXSrVrL5UAjwrv/o2XTt1+71eU1ZNjmJJ3m9bQJf7sFrNVQy+tDOulo1Pd0n9FB3Tzf1nNBD0wenaWZ6hmYOTjuDtejYY+j8M5dby++bmqan/jw+Xy558OYkX0R0S96zYHINXqvQ3fjtLVq1eto7VtDbz1hBb1laT7Nrev62Zw6Q32/dQeK/dWQNDpxID6+/zgre3qlpev+n7kwZvPZwOnILXlrQffDDF9Pg0kGClHN9AN6fntlFz/1xl/KVk/t66Nc/vN5aXXbgHbX5chxsziV4rdp0cCJuH20M8QG0D334Yq2Es1JDVJd8v7z/wSY13L3o9fTEps9bq0gKPHjh8MgvPMum3vMb68sdeK1Cx7ODQQPU6VXXrrGC4Vpg/bfvbICvq1qhXfd92fp6EuDBUYIJgecLw6vd4Muhw5Er8OYyS7rkTTTWyRQxORSEFOAxOUi6z3zOrgatDbECMnxxwUOVulihqj8ydOLv7QpfrsDbP3Vgm+u6KyZh4y93WmNykHQ6B8IXNrl8UuDJdcqxQt43k3eO/R621Psa0fYlfb2rW/nmJN/NDXiu0EGiISbnEgRefurb6LLLP+I1XrDjXEBNAzzRUQ6gyTsX77jA9/8tcrfkJbs5F+C52nUqVWOi6vwPvJ9WnvUeK3jwVuG1irAJVLPN640DnujIzj+P0/p7dtDeqRmC3ad7xDou/5G9+9RB5bt2+PLjbAQHz9WuM0GHmNybhwbp6SefosmJ/fPz+KXbbrZChwLcWTj7vHPofeeda3y3FfDkil0hFO8Aug23riG89+U7H2wC1wW+/r6+4JvPg4PnomJVniomAsCdvfqceenEAXIFDxLvV/c/2ACaTeolBZ7cKEACUDop+JmPnkPXXf7aD6IF+ILn8wUFzyVIrIJOF5Pj4Nng0TkL+He0cdXHr9aq3DTAQ7uAbv09jzUBOHrrGlp5avMqiwo+OBp3fP4So8MxG9HqkJnMQcGbnDpQs+lC7s2ZwiOQWvLqgo9HC/vu7p/8tKk7WOmAZOVPWuCp7MCvX3+xEjq5LFe7dvhqYyFVbjDwJqemNth2gqmknQkmDp6LrSYDhXXZx7c+1gQZvFzYfLK3mzZ4th8k//v3Nu+gLduea1DTNvgiqo2ESiYIAp6rQ4FlLyx/iccGEpdacVYsdPChD6gPGSzH93TTzieeopdfeqneNdcAsi9MvuX94Qsn9YKA5+JQYNBXf/L782PvugLB7TydqjRNqgk+1Xsq8OQslJP7uumkvh5aecogIaFAZav5QqYrHwO+II5G5uDFjdnZpJ2YCA6NzUnQTaAuIcAHPJ13CvguWX0avfvUocQh5OvBor9IsVfv7wgj9TIHz8W2w2Bxp6IVD9UVWhVULgDqJJ4pOCzaAoQ258FHGo7c/NOGZFO8a13PDbCiEQA8uyeLwZKXiVzVrE7q4d8B32lnrLCuSOgmGRnJyEwe3zN33N1Tj/+BXnnlFa2NpwLABNCl560gxOkAYtxH1eY1F72Lhi9aaakye6mXKXiu0g6jhIMPRaZJHCfhru/9iCYnJhsGHPUgJ8+2HOYy8a5erZB6iLftfH6cHtiqTiZFm0IFy0Fil76gDMIpvG6f1PqsPdyMwXOTdtyxQBwNToLLY1ONgA6rHb5ZyLxtV/BUfQaMgASBYtUjlsVcvhdl4FDwunygm2snW6mXGXguqxTyQMserSt4CADb9keINiD98D+oXzy+UrAV8EQfTABC+m249Wqr6oUkHb65MfBtPhpXj3OWqxmZgeeqZlVpTy7gmUIgCxYsmLfHdMPuG3ZJAjwZwJGbNzWt0brAB3j5u252nWIkMnQyMgTPrmZ1GSg2G0+13MXXc20q2NfzTRI8IKCTfi4bibiqta1Y6GVeduo2E/Bc1KxtK6LJxuMq1gQqz70TkxAaPNEPlb1ms/mSlHpZqdtMwLOpWV1at2qNVPVr/cZXbm34Z5fkAEhAhEZenJ6pb+Lma7E2wz5piSe3B8cDXqr88JQo3r/EpF5G6jYr8PYQRUOqyVSpV5+tiFzNutiDNqhc/p4meDpPVZcaJfqLZTo5aG0NHCvNvGz2ZqQOnikhQJdr57MrTGy2FmOITGRVGpMLTD5l0gYPAH3lzgcbViFs9h6Xev4hlezCKqmDZ7LvuF3nu0LhA0rSZWXwqtUKvfNtb25oAkkBJ/V219djT+rrtoZFVP1Trbv6Sj17Knxzy1nYeamDp7PvfHPtkgan1fo4eEeOzBqrjLskxu09m9Tjy2Zx1G0Wu9GyAE9p3/nm2rUKStLvy+AteF2VXvnvEacmkBAACF0flcdqknocVIRWcMKp7lmy+Ph6EoH8ZLEHNwPwmuN3XNrZVKyw49K23xBq+fvY3ClR8HTFA+96cOmQNgPZBzzUCQ8V8LkmBHCYbOEV7mSYIFevcqQfz0sVPF3uHQ+f2GJofBeYrbyrNBHlsOrxp2ees56JBwBxtBmcF1niHbOgi0ZvuXy+WZyl/OwLe2nXC/vq5yqrjrq1hUfkb+C2nq+69QePqL+vN1U2Uq1c51jImSd1CWDZQK3afugTctENPOp9fNtjVuD4+wDw4L8O0qGZF+t/AniPfPcT2vnFD+3RJ3Y3AegDH7fdTOpWlamiV7XqK0/TdjCCgOeb0q5bh20FPp+EAtWkVSoVmp2dcyhs4KEMpN6N39rSBB/O1XNRuVzdQlXDXtQ9uiTUfVMzDUkFuoSCtgZP5dFy+84l4IskzPE943X7ix+OaLMPVRNjgg79wWae7p4empmerme72I6mdQFPB5+r1OPq1mbnmYCU94NoM1lSXsFIVeKpwOMrFb72mkrtusCLiQDAOFhRlTpl64fJDnQFD33g9q3NXhMA+dp5hQZPtZuMn9bpm46EAeXwuUg93YZtW+aLPIG6DJeurgr9Zv2nnH0abuO6qlvZW3UFlneKA9yREk8FHv/Fuyzou6hLceInP2IMsOgO0PaBTvQBUvPuuzY1OCTVSoV++wN38PiKjWtsjzsYrsCaPGR90mgt1W2PaavapuBxK7vH5AHU2Wli0zVsQqFeVeDaVKtJfHFnx0fVol4ePI8Lnm35TPUNzhKPSvCUDPDjKpz1HFH9PGSXwxdNdX7n9jvo34cOO3u1cl1NPz52CpSu3SwlXtqrF5lLPG7jxYEA6g4BXN+HH2vm+75cngeQTXE83k5cVctXJEpVq5nBNJwLlWfaP7CEjll4jHajj+0ylTgAtgKeHMese7qaI8h4v065rDHh9flfuB08WTgbTwVe3HAKPFnE1VSnOclSUw6V4Joo391jrhDGBY9LfB/vVAbP570SvKMjIP/iXTxLVexODKbL+64w+ZSLA54qFcw1gOybKKD7lkI4F7pToZJYq8XAusTvfGASZcVxFfU2NFIzDnjctvORWnz9Ne0ls7Rz8tJ2LpSHL/Jwgi2IrAoYv/2M06wHZPtAB9ieewanvzdmqeicHx/wVFdcoW+u0g5luWNhsgtVO9V0Y6GL46V9pEW64E0eWEcRreUfze08m7oU9h3q4XlxPnDpyupWNepwaDJnbGlR+//5Iu16YUJ52xDqtUmsVhwL7oSYxqgjwTOdheerbpMATFWHCTpX8HwTQX0X+H3UrO58PF+JN3vk1aVpXjWfqsQz7TDjQdQkT3JyhdQUDxSXJ+tOl4qb+u6jXvEdKpBMKx26A3z04DWnvqNsWyeC2s465lKvlWUsV9jkcqplN9cfQFabfbi0szkkXM3GPUelrcHDJJvOO1adIGDLRo4DmOodlbTzWUVx2d6IdnHusc/mHrmvqpOgTE6FSjpu+9GnYwxZuuu06FCqqtYGHv4eSupxT9nm4PDZy2JDNz8FymYbqo6xwL5a3ydtjzYT8GwH9sTZ+IMVDPHEPV6WJxnYQjpZg6c6Vta2tJaUmk077T0T8Gx2Ho/p2dRdXGD4IT08C9lXxacp8VTQ2ZwSlVMR5xSBLByLTMBDI6aro3g033bxnSqYrLtzDHYcdpHxfRoq1WNrNyuJp4LOpmLRNx5gjutUUMp5eGIcU7fxbHaeL3ioj1+iwu+y8AEO9dmkrArUpCWe6pAetGvzYlEmSWnXUeCZAslxwNNtd4Sd1tXVRVvuvd/Jnm5le2SS4Km8VwGdyx0YyUk7orQDx5lKPJOdx208V1vL99onQIb1XTxJLLslAZ5OyrlKOp2009/iY/89ph2/yxQ8k7ptZdeZS/p7K1LNNE1xwRNnHfObFuW2fNZxdSsVXxg+z3hfrfrb0o/fZQ6eTt3yhAHXPbLiA+A4PPa77fPHScgDmuZKiA08sZMfO/fx3/jf08+PN133xAGwea8qYFTwxXEuslKzmXm1aMikbuUgcpxL71RLX3EcBp2EE6dIySdI7d87YbxSyufEJrQbBzi5v6r2fFRu2pt7+Nhm4tWKRic1aVLcwfAJ5qqyS5KQdOJoNJdQTCuX6CFUctv1Fzudn2JS/apz9FDeNZaXxWqF3P9MwdNJPW7n+SxfcTvP513dRPo6Lr7gAbZ3nTJIce4sM8GnUrmud15k5VRkbuPNSz3NlfBx12x5TM83ECxPpOlsFdOEq8BDIBiPOAsZ/53G/bS8X3HsvaylXaY2nhggndSLk6nS6kI/h860V1dskcQeDJwe9cC9989v6M7L1fD4Hl0iqEnlZi3tgoCHRl03AdkcDQ6er0csg6dSr6ZQjM2rNUnItP6mg858AHd2IZRgNp5N6qkOLzQlZnJYfJwSm7Sz2YpZgIcVDderCuJBl36mse5HlqlzIXdC5+Gqjm3VST7uWLiuevDBUK392i55SRs8kXnseoOjfNii+D7bVQMhbLtgzkWj1KtuU101pbvbjJ99wiVenNidyqFwqSct8HTnF+vOSdFJOlsAOeu4Hf+xB5N46IgpSVR3YDXeE5frHT50uCEhIK6qRZ0ibodjaHGhnu1JGjyXvbB8k48OugvPWt50dwX/niySPU1jGBQ8eLhRtWtDRLRK1Uksp90+ulV5XL+q/BsWLaLPfvFGGzOJ/D0J8HAsxZZtu6zLaHKHBXytQJdV6lNuwUPHbBnKKIMMlmd373UCMK6d50tjHPBEgoDLmi36A3WpuqYASQSAlj8uko4o/ctTXMYyqMQTHbTty0A5SL9Hn9xtBbBvoJ+uve6TLt/eUpk44KnuoVV1QrbPdNcUxIOOKLSKDe5c8IGzXaYslweE4uacvVMzdODgvxuqa8XWc6UxafBwxecF711GkFr8scHnfD1oylcIuI4dyuVC4r2mctVeru2D+HKbLfBsq8/l70mBB9AAHOCxPfw7Ud4VutBeLP+23IDnau/pJidL+PhmcNclM65qXaGRv1nO5HF/Px92nfwduQKvFfhUsT/X4yhskkb+uyoNK0vw0Bc4WziNCvl29qc2NhtFIwO9vdvtZbMrkTvw8OkuzoZqiPj+DZQRMb9WT3k3Za70Lz6Otv74BuusJSHxrI2wAnlxJnKtauXO6ZbUbAOvgk8AqDv5yVSnyD42JYQODpxID6+/zta1eggEKxPicQt/WKvVFsgrdOhwLiWeGMm48OmW3ASA4uJjfsysOIIWKe64sA+XtODfbE8ewcszdLkHDx1sBT5V8JVDJE6FdwFMvHvFhWfQzx95Zr4q2Hj9i4+38Vn/u3ydZ1oSL+/QtQV4rdh8rkFnJ2KI6jE2BHcXvX4BXXTDXa6vacslD14+HQnVAORa1coddlla080wArAbH3rauuqheh9wrHjrQENg9/B/Xs4heO0DXdtIPAHEHHzxgsyiDkhBhCIA464X9tH+fxyiJW88rv7nJUfVJUA7fdnJ2g3ReQMvb8FhF1XQNhKvAb5K17DqNHmXD06iDAfvTX3dtOm2K5Oo2r+OHC2D+XS+7cATHxfX6fAZHF3ZfIDXXqqVj2XbgocPseXzJQGZqo7Q4LWjau0o8MTHzK104CKXaCgt2OR6w4HX3lJOHsO2lnhNXm9Gtl/24NXGqBZt7O/vXZfFDyuLNjoGPOb5QvoNpzWAAO+Km+6er75n0cL0nIs2dR5sY99x4OXJ+7UNvv7vnSfhOtLGM01wPfZXV8G1a7KyAUvg7CPQsRKPfzoApK6uoUqtDmBqatg+5LzEnHSbrdD2vOXM+X+L+xuFAY87ItVqdVWN6NwaRUO67ZWmYcTKh/zgODD3p5iwdaRX6z7pzSUhDX1A5Fe86+58nWupNjb3f8WTaqY5KaTEc4FUqOZqrTYEySjegYQcnzi4cGTt5jPFvy3uPval+765ZvNRwMajqDZ2JIrGiqQ6Xca0lHi+o8TKL7903VCFKnukfx77ywNfXdpitYV6vZR4MaYb4EVU2SBejYgA3kiMqgr7SgleYac+7IeX4IUd/8K2XoJX2KkP++EleGHHv7Ctl+AVdurDfngJXtjxL2zrJXiFnfqwH16CF3b8C9t6CV5hpz7sh5fghR3/wrZeglfYqQ/74SV4Yce/sK2X4BV26sN+eAle2PEvbOsleIWd+rAfXoIXdvwL23oJXmGnPuyH/w8uFE14OGFIggAAAABJRU5ErkJggg==;strokeWidth=2;points=[];labelBackgroundColor=none;rounded=0;html=1;whiteSpace=wrap;" vertex="1" parent="1">
            <mxGeometry x="570" y="390" width="40" height="40" as="geometry" />
          </mxCell>
        </UserObject>
      </root>
    </mxGraphModel>
  </diagram>
</mxfile>
